<?xml version="1.0" encoding="UTF-8" standalone="no"?>
<svg
   xmlns:dc="http://purl.org/dc/elements/1.1/"
   xmlns:cc="http://creativecommons.org/ns#"
   xmlns:rdf="http://www.w3.org/1999/02/22-rdf-syntax-ns#"
   xmlns:svg="http://www.w3.org/2000/svg"
   xmlns="http://www.w3.org/2000/svg"
   version="1.1"
   id="svg7420"
   viewBox="0 0 641.7323 641.73229"
   height="181.11111mm"
   width="181.11111mm">
  <defs
     id="defs7422" />
  <metadata
     id="metadata7425">
    <rdf:RDF>
      <cc:Work
         rdf:about="">
        <dc:format>image/svg+xml</dc:format>
        <dc:type
           rdf:resource="http://purl.org/dc/dcmitype/StillImage" />
        <dc:title></dc:title>
      </cc:Work>
    </rdf:RDF>
  </metadata>
  <g
     transform="translate(-353.41957,-217.21035)"
     id="layer1">
    <path
       id="path9743"
       d="m 924.28571,538.07649 a 250,250 0 0 1 -250,250 250,250 0 0 1 -250,-250 250,250 0 0 1 250,-250 250,250 0 0 1 250,250 z"
       style="fill:#bb3e3e;fill-opacity:1" />
    <path
       id="circle13204"
       d="m 895.28571,538.07649 a 200,200 0 0 1 -200,200 200,200 0 0 1 -200,-200 200,200 0 0 1 200,-200 200,200 0 0 1 200,200 z"
       style="fill:#ffffff;fill-opacity:0.27570095" />
    <path
       id="circle13206"
       d="m 803.28571,538.07649 a 150,150 0 0 1 -150,150 150,150 0 0 1 -150,-150 150,150 0 0 1 150,-150 150,150 0 0 1 150,150 z"
       style="fill:#ffffff;fill-opacity:0.27570095" />
    <path
       id="circle13208"
       d="m 784.78571,538.07649 a 100,100 0 0 1 -100,100 100,100 0 0 1 -100,-100 100,100 0 0 1 100,-100 100,100 0 0 1 100,100 z"
       style="fill:#ffffff;fill-opacity:0.27570095" />
    <path
       id="circle13210"
       d="m 713.78571,538.07649 a 50,50 0 0 1 -50,50 50,50 0 0 1 -50,-50 50,50 0 0 1 50,-50 50,50 0 0 1 50,50 z"
       style="fill:#ffffff;fill-opacity:0.27570095" />
  </g>
</svg>
