<?xml version="1.0" encoding="UTF-8" standalone="no"?>
<!-- Created with Inkscape (http://www.inkscape.org/) -->

<svg
   xmlns:dc="http://purl.org/dc/elements/1.1/"
   xmlns:cc="http://creativecommons.org/ns#"
   xmlns:rdf="http://www.w3.org/1999/02/22-rdf-syntax-ns#"
   xmlns:svg="http://www.w3.org/2000/svg"
   xmlns="http://www.w3.org/2000/svg"
   xmlns:sodipodi="http://sodipodi.sourceforge.net/DTD/sodipodi-0.dtd"
   xmlns:inkscape="http://www.inkscape.org/namespaces/inkscape"
   id="svg2"
   xml:space="preserve"
   height="379.23pt"
   width="459.89"
   version="1.0"
   viewBox="0 0 459.886 421.887"
   inkscape:version="0.48.4 r9939"
   sodipodi:docname="Wikimedia Bolivia logo.svg"><defs
     id="defs3811" /><sodipodi:namedview
     pagecolor="#ffffff"
     bordercolor="#666666"
     borderopacity="1"
     objecttolerance="10"
     gridtolerance="10"
     guidetolerance="10"
     inkscape:pageopacity="0"
     inkscape:pageshadow="2"
     inkscape:window-width="1366"
     inkscape:window-height="744"
     id="namedview3809"
     showgrid="false"
     inkscape:zoom="0.72784075"
     inkscape:cx="84.29635"
     inkscape:cy="183.09353"
     inkscape:window-x="0"
     inkscape:window-y="24"
     inkscape:window-maximized="1"
     inkscape:current-layer="svg2" /><metadata
     id="metadata21"><rdf:RDF><cc:Work
         rdf:about=""><dc:format>image/svg+xml</dc:format><dc:type
           rdf:resource="http://purl.org/dc/dcmitype/StillImage" /><dc:title></dc:title></cc:Work></rdf:RDF></metadata><path
     id="path7"
     fill="#900"
     d="m172.82 31.241c0-31.615 25.62-57.241 57.24-57.241s57.25 25.626 57.25 57.241c0 31.612-25.63 57.236-57.25 57.236s-57.24-25.624-57.24-57.236z" /><path
     id="path9"
     fill="#396"
     d="m299.34 65.7c21.4 19.074 34.87 46.84 34.87 77.75 0 53.36-40.15 97.35-91.88 103.42v-124.17l57.01-57z" /><path
     id="path11"
     fill="#396"
     d="m125.92 143.45c0-30.91 13.47-58.676 34.86-77.75l57.01 57v124.17c-51.73-6.07-91.87-50.06-91.87-103.42z" /><path
     id="path13"
     fill="#069"
     d="m56.889 146c0-50.619 21.727-96.166 56.361-127.83l31.65 31.643c-25.73 23.247-41.89 56.877-41.89 94.267 0 70.17 56.88 127.04 127.05 127.04 70.18 0 127.06-56.87 127.06-127.04 0-37.39-16.16-71.02-41.89-94.267l31.65-31.641c34.64 31.661 56.36 77.21 56.36 127.83 0 95.63-77.53 173.16-173.18 173.16-95.64 0-173.17-77.53-173.17-173.16h-0.001z" /><g
     id="g2271"
     fill="#484848"><path
       id="path17"
       d="m22.898 395.89l-22.898-53.23h7.174 7.21l11.858 29.47h-0.025l13.61-29.47h5.068 5.105l13.575 29.5h0.02l11.812-29.5h7.171 7.21l-22.86 53.23h-2.815-2.854l-16.359-33.14h-0.005l-16.33 33.14h-2.815-2.852z" /><path
       id="path19"
       d="m96.067 342.66h6.533 6.58v52.44h-6.54-6.573v-52.44z" /><path
       id="path21"
       d="m134.27 395.1h-6.54-6.57v-52.44h6.53 6.58v24.81h0.02l16.73-24.81h7.4 7.41l-18.28 25.15 23.79 27.29h-8.29-8.34l-20.46-25h0.02v25z" /><path
       id="path23"
       d="m176.91 342.66h6.54 6.57v52.44h-6.54-6.57v-52.44z" /><path
       id="path25"
       d="m215.11 395.1h-6.53-6.58v-52.44h5.9 5.9l16.4 18.92h0.01l16.37-18.92h5.9 5.9v52.44h-6.54-6.57v-32.2h0.03l-13.97 16.13h-1.12-1.13l-13.98-16.13h0.01v32.2z" /><path
       id="path27"
       d="m270.18 395.1v-52.44h38.63v4.72 4.75h-25.53v11.23h23.96v4.71 4.75h-23.96v12.82h25.53v4.71 4.75h-38.63z" /><path
       id="path29"
       d="m318.75 342.66h6.53 13.38c10.76 0 18.84 2.19 24.23 6.57 5.33 4.33 7.99 10.85 7.99 19.56v0.11c0.03 8.73-2.54 15.28-7.69 19.65-5.16 4.36-12.91 6.55-23.26 6.55h-14.65-6.53v-52.44zm13.11 42.78h8.09c5.75 0 10.05-1.38 12.93-4.13 2.87-2.75 4.31-6.89 4.31-12.41s-1.55-9.67-4.63-12.43c-3.09-2.77-7.72-4.15-13.89-4.15h-6.81v33.12z" /><path
       id="path31"
       d="m380.84 342.66h6.54 6.57v52.44h-6.54-6.57v-52.44z" /><path
       id="path33"
       d="m422.46 341.88h7.62 7.66l22.14 53.22h-7.13-7.14l-3.89-9.96h-23.28l-3.86 9.96h-7.13-7.14l22.15-53.22zm-0.41 33.8h16.06l-8.07-20.54h-0.01l-7.98 20.54z" /></g><g
     style="font-size:46.69035339px;font-style:normal;font-variant:normal;font-weight:500;font-stretch:normal;line-height:125%;letter-spacing:0px;word-spacing:0px;fill:#666666;fill-opacity:1;stroke:none;font-family:GillSans-Bold;-inkscape-font-specification:GillSans-Bold Medium"
     id="text3161"><path
       d="m 152.03431,416.52476 0,6.20981 c -1.15172,-0.46688 -2.21003,-0.87153 -3.17494,-1.21395 -0.96496,-0.37349 -1.82095,-0.6692 -2.56797,-0.88711 -0.77819,-0.21786 -1.52524,-0.3735 -2.24114,-0.46691 -0.71594,-0.12448 -1.41629,-0.18673 -2.10107,-0.18676 -0.71593,3e-5 -1.35403,0.0623 -1.9143,0.18676 -0.5603,0.0934 -1.05833,0.26461 -1.49409,0.5136 -0.40466,0.21791 -0.71593,0.49805 -0.93381,0.84042 -0.2179,0.3113 -0.32684,0.66926 -0.32683,1.07388 -1e-5,0.40468 0.0934,0.7782 0.28014,1.12057 0.18675,0.34242 0.48246,0.63812 0.88712,0.88712 0.40464,0.24903 0.85598,0.49805 1.35402,0.74704 0.49802,0.21791 1.04274,0.4358 1.63416,0.65367 0.28013,0.12453 0.57583,0.24903 0.88712,0.37352 0.34238,0.12453 0.66921,0.24904 0.98049,0.37352 0.34238,0.12453 0.68478,0.24904 1.02719,0.37353 0.34238,0.0934 0.70034,0.2179 1.07388,0.37352 0.99604,0.40467 1.96097,0.9027 2.8948,1.49409 0.93379,0.5603 1.8209,1.1984 2.66135,1.91431 0.8404,0.6848 1.46294,1.55635 1.86762,2.61466 0.43575,1.05832 0.65363,2.27227 0.65366,3.64184 -3e-5,1.52523 -0.29573,2.87925 -0.88712,4.06206 -0.5603,1.18283 -1.41629,2.19445 -2.56796,3.03488 -1.15172,0.84042 -2.45905,1.46296 -3.92199,1.86761 -1.46299,0.40465 -3.08158,0.60697 -4.8558,0.60698 -1.21396,-1e-5 -2.31897,-0.0623 -3.31502,-0.18677 -0.99607,-0.0934 -1.86762,-0.24901 -2.61466,-0.4669 -0.77818,-0.24901 -1.52522,-0.51359 -2.24113,-0.79374 -0.71593,-0.28014 -1.41628,-0.59141 -2.10107,-0.9338 -0.0311,-0.0311 -0.0778,-0.0467 -0.14007,-0.0467 -0.0623,-0.0311 -0.10895,-0.0623 -0.14007,-0.0934 -0.0623,-0.0311 -0.12451,-0.0467 -0.18676,-0.0467 -0.0311,-0.0311 -0.0778,-0.0623 -0.14007,-0.0934 -0.0311,-0.0311 -0.0778,-0.0623 -0.14007,-0.0934 -0.0623,-0.0311 -0.10895,-0.0623 -0.14008,-0.0934 -0.0623,1e-5 -0.12451,-0.0156 -0.18676,-0.0467 -0.0311,-0.0311 -0.0778,-0.0623 -0.14007,-0.0934 l 0,-6.95686 c 0.8093,0.59142 1.57191,1.10501 2.28783,1.54078 0.74704,0.43579 1.43183,0.80931 2.05437,1.12057 0.62254,0.31128 1.24507,0.57585 1.86762,0.79374 0.62253,0.18676 1.2295,0.3424 1.82092,0.4669 0.24901,0.0311 0.48246,0.0778 0.70036,0.14007 0.249,0.0311 0.48245,0.0623 0.70035,0.0934 0.24901,0.0311 0.48246,0.0467 0.70036,0.0467 0.249,10e-6 0.49802,10e-6 0.74704,0 0.74704,10e-6 1.4007,-0.0623 1.961,-0.18676 0.59139,-0.1245 1.08942,-0.31126 1.49409,-0.56028 0.40463,-0.24901 0.70034,-0.56028 0.88712,-0.93381 0.21787,-0.37352 0.32681,-0.79373 0.32683,-1.26064 -2e-5,-0.43577 -0.10896,-0.84042 -0.32683,-1.21395 -0.21791,-0.37351 -0.54474,-0.70034 -0.9805,-0.9805 -0.43579,-0.28013 -0.93382,-0.54471 -1.49409,-0.79373 -0.52917,-0.28013 -1.10502,-0.52915 -1.72754,-0.74705 -0.12453,-0.0622 -0.2646,-0.10893 -0.42022,-0.14007 -0.15565,-0.0622 -0.31128,-0.1245 -0.4669,-0.18676 -0.12452,-0.0311 -0.26459,-0.0778 -0.42021,-0.14007 -0.15565,-0.0622 -0.31129,-0.10893 -0.46691,-0.14007 -0.31128,-0.0934 -0.62255,-0.20232 -0.93381,-0.32684 -0.28015,-0.12449 -0.56029,-0.249 -0.84042,-0.37352 -1.0272,-0.40463 -2.00769,-0.8871 -2.94149,-1.4474 -0.93382,-0.56027 -1.82093,-1.18281 -2.66135,-1.86761 -0.84043,-0.71591 -1.47853,-1.60302 -1.91431,-2.66135 -0.40465,-1.0583 -0.60698,-2.30337 -0.60697,-3.73523 -1e-5,-1.36956 0.26457,-2.59907 0.79373,-3.68854 0.56028,-1.12054 1.40071,-2.10104 2.52128,-2.94149 1.08944,-0.8404 2.36564,-1.46294 3.82861,-1.86762 1.49408,-0.43574 3.15937,-0.65363 4.99587,-0.65366 0.12449,3e-5 0.249,3e-5 0.37352,0 0.12449,3e-5 0.26457,3e-5 0.42021,0 0.1245,0.0312 0.249,0.0467 0.37353,0.0467 0.12449,3e-5 0.249,3e-5 0.37352,0 0.249,0.0312 0.49801,0.0623 0.74705,0.0934 0.24899,3e-5 0.49801,0.0156 0.74704,0.0467 0.62252,0.0934 1.24506,0.20236 1.86762,0.32683 0.62251,0.12454 1.24505,0.28018 1.86761,0.46691 0.62252,0.18679 1.26062,0.40468 1.9143,0.65366 0.68477,0.24905 1.38513,0.52919 2.10107,0.84043 l 0,-0.0934 0,0"
       style=""
       id="path5251" /><path
       d="m 188.85038,414.47038 -14.70746,32.26304 -3.45508,0 -15.40782,-32.26304 8.63772,0 8.40426,18.16255 7.98405,-18.16255 8.54433,0 0,0 0,0"
       style=""
       id="path5253" /><path
       d="m 215.96581,440.47691 0,5.83629 -23.48525,0 0,-31.84282 23.15842,0 0,5.8363 -15.22106,0 0,6.67672 14.5207,0 0,5.83629 -14.5207,0 0,7.65722 15.54789,0 0,0 0,0"
       style=""
       id="path5255" /><path
       d="m 222.02461,414.47038 14.24056,0 c 1.6497,0.0623 3.0971,0.32686 4.3422,0.79374 1.27618,0.46693 2.38118,1.16729 3.31502,2.10106 0.90265,0.93384 1.58744,1.9299 2.05437,2.98819 0.46688,1.05833 0.70033,2.1789 0.70036,3.3617 -3e-5,0.87158 -0.12454,1.69644 -0.37353,2.47459 -0.21791,0.74706 -0.54474,1.44742 -0.98049,2.10107 -0.46693,0.65368 -1.04278,1.24509 -1.72755,1.77423 -0.68481,0.52917 -1.47855,1.01164 -2.38121,1.4474 0.34238,0.15565 0.65365,0.34241 0.93381,0.56028 0.28012,0.21791 0.5447,0.45136 0.79374,0.70036 0.12448,0.12452 0.24899,0.26459 0.37352,0.42021 0.12448,0.15565 0.24899,0.31128 0.37352,0.46691 0.0934,0.18677 0.2023,0.37353 0.32684,0.56028 0.12448,0.15565 0.24899,0.32684 0.37352,0.51359 0.34237,0.59143 0.70033,1.27622 1.07388,2.05438 0.40462,0.77818 0.80927,1.63417 1.21395,2.56797 0.40462,0.93381 0.87152,1.99213 1.40071,3.17494 0.56025,1.1517 1.18279,2.41234 1.86761,3.78192 l -8.7311,0 c -0.37354,-0.65366 -0.71594,-1.30733 -1.02718,-1.96099 -0.31129,-0.68479 -0.607,-1.35402 -0.88712,-2.00769 -0.28016,-0.65366 -0.5603,-1.29176 -0.84043,-1.9143 -0.24903,-0.62253 -0.49805,-1.21394 -0.74704,-1.77424 -0.37354,-0.74703 -0.76263,-1.43182 -1.16726,-2.05437 -0.37354,-0.62253 -0.77819,-1.18281 -1.21395,-1.68085 -0.40467,-0.4669 -0.87157,-0.82486 -1.40071,-1.07388 -0.49805,-0.249 -1.05833,-0.37351 -1.68085,-0.37353 l -2.28783,-0.0934 0,12.93323 -7.93736,0 0,-31.84282 0,0 0,0 m 7.93736,5.8363 0,7.237 4.20213,0 c 0.52914,0.0623 1.04274,0.0312 1.54078,-0.0934 0.49802,-0.12449 0.98048,-0.32681 1.4474,-0.60698 0.43576,-0.28012 0.76259,-0.65364 0.9805,-1.12056 0.249,-0.46689 0.3735,-1.04273 0.37352,-1.72755 -2e-5,-0.59139 -0.10896,-1.10498 -0.32683,-1.54078 -0.18678,-0.43575 -0.46692,-0.80927 -0.84042,-1.12057 -0.37355,-0.31124 -0.84045,-0.54469 -1.40071,-0.70035 -0.56031,-0.15561 -1.21397,-0.23343 -1.961,-0.23345 l -4.01537,-0.0934 0,0 0,0"
       style=""
       id="path5257" /><path
       d="m 261.88577,414.47038 0,31.84282 -7.93736,0 0,-31.84282 7.93736,0 0,0 0,0"
       style=""
       id="path5259" /><path
       d="m 299.65753,416.66483 0,6.95686 c -1.02722,-0.43575 -2.03884,-0.8404 -3.03487,-1.21395 -0.99609,-0.3735 -1.99215,-0.6692 -2.98818,-0.88712 -0.96496,-0.24899 -1.94546,-0.43575 -2.94149,-0.56028 -0.96496,-0.12448 -1.94546,-0.18674 -2.9415,-0.18676 -1.96101,2e-5 -3.64186,0.23348 -5.04256,0.70035 -1.40072,0.4358 -2.55242,1.10503 -3.45508,2.00769 -0.87157,0.87157 -1.57192,1.80538 -2.10107,2.80142 -0.49804,0.96495 -0.82487,1.99214 -0.98049,3.08156 -0.0311,0.12453 -0.0623,0.24904 -0.0934,0.37353 -10e-6,0.12452 -10e-6,0.24903 0,0.37352 -10e-6,0.12452 -10e-6,0.24903 0,0.37352 -10e-6,0.0934 -10e-6,0.20234 0,0.32683 -10e-6,1.43186 0.24901,2.72362 0.74705,3.8753 0.49802,1.12058 1.26063,2.10108 2.28783,2.9415 0.99604,0.87156 2.1633,1.52522 3.50177,1.96099 1.33844,0.40466 2.83253,0.60698 4.48228,0.60698 0.18674,0 0.3735,0 0.56028,0 0.18674,0 0.3735,0 0.56029,0 0.15561,0 0.31124,-0.0156 0.4669,-0.0467 0.18674,-0.0311 0.3735,-0.0623 0.56028,-0.0934 0.21787,-0.0311 0.43576,-0.0622 0.65367,-0.0934 0.24899,-0.0622 0.48244,-0.14006 0.70035,-0.23345 0.24899,-0.0622 0.51357,-0.15563 0.79374,-0.28014 0.31124,-0.1245 0.63808,-0.24901 0.9805,-0.37352 l 0,-3.82861 -4.62235,0 0,-5.8363 12.55971,0 0,13.02661 c -0.49807,0.56029 -1.1206,1.07388 -1.86762,1.54078 -0.71595,0.43578 -1.57194,0.84043 -2.56797,1.21395 -0.96496,0.37353 -1.97658,0.66923 -3.03487,0.88712 -1.02721,0.21789 -2.08553,0.38909 -3.17494,0.51359 -0.21791,0 -0.45137,0 -0.70036,0 -0.21791,0.0311 -0.45136,0.0623 -0.70035,0.0934 -0.12453,0 -0.24904,0 -0.37353,0 -0.0934,0 -0.18678,0.0156 -0.28014,0.0467 -0.12453,-1e-5 -0.24904,-1e-5 -0.37352,0 -0.0934,-1e-5 -0.20235,-1e-5 -0.32683,0 -2.77032,-1e-5 -5.30716,-0.35796 -7.61053,-1.07388 -2.27228,-0.74705 -4.29552,-1.88318 -6.06975,-3.4084 -1.77424,-1.52521 -3.11269,-3.26832 -4.01537,-5.22932 -0.87155,-1.96098 -1.30733,-4.1243 -1.30733,-6.48996 0,-2.42788 0.43578,-4.62232 1.30733,-6.58334 0.90268,-1.96097 2.24113,-3.70407 4.01537,-5.22932 1.77423,-1.52519 3.81304,-2.66132 6.11644,-3.40839 2.3345,-0.77814 4.91803,-1.16723 7.7506,-1.16726 1.1828,3e-5 2.35006,0.0623 3.50177,0.18676 1.15167,0.12454 2.27224,0.3113 3.36171,0.56028 1.08941,0.21792 2.1166,0.49807 3.08156,0.84043 0.9649,0.3113 1.83646,0.6537 2.61466,1.02719 l 0,-0.0934 0,0"
       style=""
       id="path5261" /><path
       d="m 330.77665,440.47691 0,5.83629 -23.48524,0 0,-31.84282 23.15841,0 0,5.8363 -15.22105,0 0,6.67672 14.5207,0 0,5.83629 -14.5207,0 0,7.65722 15.54788,0 0,0 0,0"
       style=""
       id="path5263" /></g></svg>
