<?xml version="1.0" encoding="UTF-8" standalone="no"?>
<!-- Created with Inkscape (http://www.inkscape.org/) -->

<svg
   xmlns:dc="http://purl.org/dc/elements/1.1/"
   xmlns:cc="http://creativecommons.org/ns#"
   xmlns:rdf="http://www.w3.org/1999/02/22-rdf-syntax-ns#"
   xmlns:svg="http://www.w3.org/2000/svg"
   xmlns="http://www.w3.org/2000/svg"
   xmlns:sodipodi="http://sodipodi.sourceforge.net/DTD/sodipodi-0.dtd"
   xmlns:inkscape="http://www.inkscape.org/namespaces/inkscape"
   width="56.117241mm"
   height="62.795135mm"
   viewBox="0 0 198.84062 222.50245"
   id="svg4527"
   version="1.1"
   inkscape:version="0.91 r13725"
   sodipodi:docname="bird1.svg">
  <defs
     id="defs4529" />
  <sodipodi:namedview
     id="base"
     pagecolor="#ffffff"
     bordercolor="#666666"
     borderopacity="1.0"
     inkscape:pageopacity="0.0"
     inkscape:pageshadow="2"
     inkscape:zoom="0.98994949"
     inkscape:cx="250.60809"
     inkscape:cy="63.953638"
     inkscape:document-units="px"
     inkscape:current-layer="layer1"
     showgrid="false"
     fit-margin-top="2"
     fit-margin-left="2"
     fit-margin-right="2"
     fit-margin-bottom="2"
     inkscape:window-width="1855"
     inkscape:window-height="1176"
     inkscape:window-x="65"
     inkscape:window-y="24"
     inkscape:window-maximized="1" />
  <metadata
     id="metadata4532">
    <rdf:RDF>
      <cc:Work
         rdf:about="">
        <dc:format>image/svg+xml</dc:format>
        <dc:type
           rdf:resource="http://purl.org/dc/dcmitype/StillImage" />
        <dc:title></dc:title>
      </cc:Work>
    </rdf:RDF>
  </metadata>
  <g
     inkscape:label="Layer 1"
     inkscape:groupmode="layer"
     id="layer1"
     transform="translate(870.84888,-38.253842)">
    <path
       style="fill:#3b3b3b"
       d="m -800.99275,45.345777 c -0.17304,-0.02547 -0.26953,0.0397 -0.26953,0.21289 0,0.34598 2.24294,3.04433 4.98437,5.99609 7.49328,8.06817 6.02076,8.75506 -2.03515,0.94922 -3.87815,-3.75776 -6.64279,-6.10568 -6.14453,-5.21875 0.68199,1.21399 0.0299,1.43108 -2.63672,0.88086 -2.79064,-0.57581 -2.34945,-0.07932 2.08203,2.33594 3.09375,1.68616 7.25809,4.78343 9.2539,6.88476 1.99584,2.10131 4.06677,3.55124 4.60157,3.22071 0.53479,-0.33051 1.37948,0.05638 1.87695,0.86132 0.5649,0.91402 0.36224,1.12931 -0.53906,0.57227 -2.15626,-1.33264 -1.74161,0.59114 0.74414,3.45117 1.37817,1.5857 0.45324,1.21953 -2.5,-0.98828 -2.57812,-1.92738 -4.6875,-4.28082 -4.6875,-5.23047 0,-2.1997 -1.38861,-2.1896 -4.42578,0.03125 -2.06989,1.51359 -2.92631,1.50217 -6.17578,-0.07617 l -3.77344,-1.83203 3.125,2.54687 c 1.71875,1.4011 2.45242,2.56098 1.63086,2.57618 -2.0475,0.0381 -12.50309,11.13015 -14.38867,15.26367 -0.84306,1.84818 -2.8225,3.9469 -4.39648,4.66406 -1.57398,0.71715 -2.71715,1.77459 -2.54102,2.35156 0.17615,0.57699 -1.36718,2.60728 -3.42968,4.50977 -2.89054,2.66624 -3.17703,3.28865 -1.25,2.7207 1.55277,-0.45765 0.72395,0.73103 -2.1875,3.13672 -2.57812,2.130263 -4.6875,4.909973 -4.6875,6.177733 0,1.26773 -0.58532,2.66719 -1.30078,3.10938 -0.71546,0.44218 -0.9739,1.83446 -0.57422,3.09375 0.39968,1.25929 0.14124,2.65157 -0.57422,3.09375 -0.71547,0.44219 -1.30078,1.36719 -1.30078,2.05469 0,0.6875 0.51164,0.93319 1.13672,0.54687 2.51785,-1.55611 -3.74556,14.96185 -6.71875,17.71875 -1.74203,1.6153 -3.16797,3.58392 -3.16797,4.375 0,0.79107 0.87422,0.3463 1.94336,-0.98828 1.88703,-2.35535 1.90678,-2.34713 0.66015,0.24023 -0.70632,1.46599 -2.01224,2.9436 -2.90234,3.28516 -2.73182,1.0483 -5.34041,15.54303 -3.64258,20.23828 0.7932,2.19357 1.45957,6.48045 1.48047,9.52539 0.0331,4.82257 0.22513,5.21288 1.49609,3.03516 1.31304,-2.24984 1.6655,-1.81205 3.51563,4.375 1.41908,4.74554 1.66384,7.3806 0.79101,8.50781 -0.915,1.1816 -0.7818,1.52718 0.48047,1.25 3.01607,-0.66224 2.88577,5.21889 -0.1875,8.49024 -1.55148,1.65147 -2.38836,3.00195 -1.86133,3.00195 1.95382,0 7.59564,-5.28835 8.82813,-8.27539 l 1.27344,-3.08789 4.51953,4.11914 c 8.01387,7.30597 24.40168,20.66407 27.16796,22.14453 3.88748,2.08053 3.58524,8.13724 -0.59961,12.01562 -1.80792,1.67553 -5.41357,3.98456 -8.01172,5.13086 -4.96904,2.19234 -7.90258,6.57418 -6.62694,9.89844 0.47614,1.24082 -0.42697,2.92834 -2.4336,4.54297 -1.75613,1.41306 -2.89648,3.34434 -2.5332,4.29102 0.93412,2.43427 2.64903,2.1408 2.44141,-0.41797 -0.33174,-4.0884 4.01977,-3.26948 5.93553,1.11718 l 1.8125,4.14649 0.10157,-4.0625 c 0.0561,-2.23437 0.70904,-4.0625 1.45117,-4.0625 0.83911,0 1.04868,1.37281 0.55273,3.63086 -0.43863,1.99705 -0.2637,3.96205 0.38867,4.36523 1.34493,0.83122 3.22251,-7.40502 2.10157,-9.21875 -0.45708,-0.73952 -1.91235,-0.73138 -3.89258,0.0215 -1.73916,0.66123 -3.34349,1.20117 -3.56445,1.20117 -0.22095,0 -0.65487,-1.72791 -0.96484,-3.83984 -0.60285,-4.10749 2.82755,-9.91016 5.85937,-9.91016 0.907,0 4.46214,-2.52982 7.90039,-5.62109 5.57668,-5.01392 6.70579,-5.52988 10.44922,-4.78907 5.46456,1.08144 12.80604,6.77291 10.70507,8.29883 -0.99708,0.72418 -0.75076,0.85155 0.72461,0.375 1.41745,-0.45784 2.53004,0.0426 3.03907,1.36914 0.44142,1.1503 0.15749,2.30624 -0.62891,2.56836 -1.06609,0.35538 -1.06897,1.05356 -0.0156,2.74024 1.13367,1.8153 0.87804,2.94064 -1.29492,5.70312 -1.48927,1.8933 -2.70512,4.06927 -2.70312,4.83594 0.003,0.76666 1.13208,-0.45588 2.51172,-2.71875 1.48355,-2.43326 3.34345,-3.96543 4.55273,-3.75 1.12458,0.20036 2.318,-0.41798 2.65039,-1.37305 0.33814,-0.97158 0.0391,-1.38834 -0.67773,-0.94531 -1.33215,0.82332 -3.34769,-2.80465 -2.19727,-3.95508 0.35994,-0.35993 0.6543,6.8e-4 0.6543,0.80273 0,0.8021 1.09136,1.45899 2.42578,1.45899 2.89278,0 4.49961,2.03824 2.26953,2.87891 -2.79413,1.05332 9.5632,-0.54457 13.26173,-1.71485 4.38106,-1.38627 5.75829,-0.67633 4.91797,2.53711 -0.74262,2.83976 4.27029,11.66731 6.01367,10.58984 0.64581,-0.39913 1.09254,-0.26204 0.99414,0.30469 -0.0984,0.56672 -0.0731,1.87305 0.0566,2.9043 0.4931,3.91956 2.38656,-3.20235 2.49219,-9.375 0.12376,-7.22964 1.48588,-10.05762 4.31836,-8.9707 1.1441,0.43904 2.04321,0.11503 2.09961,-0.75586 0.0697,-1.07556 0.26967,-1.10329 0.68359,-0.0937 0.32244,0.78671 1.68531,1.14196 3.02735,0.79101 1.8025,-0.47136 2.43945,-0.001 2.43945,1.79492 0,2.75499 7.13577,14.10938 8.86719,14.10938 0.62271,0 1.14039,-1.54688 1.15039,-3.4375 0.0233,-4.6899 1.29181,-9.0625 2.6289,-9.0625 0.60731,0 1.10352,1.37258 1.10352,3.05078 0,1.67817 0.5625,3.39931 1.25,3.82422 0.74566,0.46083 1.25,-1.05856 1.25,-3.76563 0,-2.49594 0.70312,-5.23133 1.5625,-6.08007 2.3171,-2.28841 5.9375,-3.41399 5.9375,-1.84571 0,0.77579 1.38248,0.44973 3.23437,-0.76367 1.7784,-1.16525 3.55836,-1.79322 3.95703,-1.39453 0.39869,0.39867 0.0696,0.72461 -0.73242,0.72461 -0.80209,0 -1.45898,0.58323 -1.45898,1.29492 0,0.845 0.75899,0.88756 2.1875,0.12305 2.45959,-1.31638 2.94467,-1.41797 6.8125,-1.41797 2.04731,0 2.3895,-0.36246 1.33594,-1.41602 -1.33384,-1.33384 -10.64541,-1.67185 -18.0586,-0.65625 -2.57654,0.35299 -3.50028,-0.15173 -4.01172,-2.18945 -0.45022,-1.7938 -3.30638,-3.82494 -8.85742,-6.30078 -4.50612,-2.00981 -9.019,-4.56723 -10.0293,-5.68359 -1.66046,-1.83481 -0.88117,-2.50378 8.11915,-6.95508 7.10466,-3.51376 9.76589,-5.44903 9.28906,-6.75977 -0.36753,-1.01024 -0.24965,-1.41959 0.26172,-0.9082 0.51138,0.51137 3.49263,-1.52836 6.62695,-4.5332 3.13434,-3.00483 7.66797,-6.21742 10.07422,-7.13868 5.13599,-1.96636 10.03282,-5.38801 15.10156,-10.55078 2.00663,-2.04383 3.71869,-3.16883 3.80469,-2.5 0.0861,0.66884 0.59041,-1.0332 1.11914,-3.7832 0.52875,-2.75 1.64833,-8.54433 2.48828,-12.87695 1.32815,-6.85077 1.24794,-8.64287 -0.61133,-13.75 -3.99479,-10.97296 -5.56442,-13.57391 -11.60547,-19.22461 -3.73896,-3.49735 -7.32167,-8.51094 -9.41601,-13.17774 -3.969,-8.8441 -4.23098,-10.93955 -1.22266,-9.78515 1.66371,0.63843 1.52053,0.14904 -0.625,-2.13477 -1.5307,-1.62935 -2.7832,-3.79705 -2.7832,-4.818363 0,-1.02132 -0.675,-2.53242 -1.5,-3.35742 -1.16666,-1.16666 -1.11111,-1.5 0.25,-1.5 2.69311,0 0.32154,-1.68887 -9.87305,-7.0293 -5.31612,-2.78487 -10.63163,-6.66092 -12.5,-9.11523 -5.42405,-7.12514 -14.03803,-15.10547 -16.30469,-15.10547 -0.63751,0 -2.74235,-0.65342 -4.67773,-1.45117 -1.93538,-0.79775 -4.23979,-1.33098 -5.12109,-1.18555 -1.11229,0.18355 -1.3964,-0.80578 -0.92969,-3.23633 l 0.67187,-3.50195 -1.37695,3.48437 c -1.0768,2.72415 -1.93163,3.30684 -3.91992,2.67579 -1.3985,-0.44387 -4.01702,-1.00522 -5.81836,-1.24805 -1.80135,-0.24283 -5.02222,-0.79688 -7.15821,-1.23047 -2.63469,-0.53482 -5.51261,-2.2e-4 -8.94922,1.66016 l -5.06641,2.44726 -3.41601,-4.54297 c -2.80908,-3.73444 -7.82975,-8.39398 -9.04102,-8.57226 z m 65.35548,4.82031 c -3.17342,-0.09916 -12.11951,4.94218 -12.88281,7.25977 -0.3355,1.01869 1.19577,0.431 3.65234,-1.40235 2.32683,-1.73654 5.91797,-3.7478 7.98047,-4.46875 2.69,-0.9403 3.04334,-1.33267 1.25,-1.38867 z m -39.87696,5.45117 c 0.39435,-0.01695 0.73111,0.07487 0.96289,0.30664 0.43414,0.43415 0.78906,1.8216 0.78906,3.08203 0,2.64164 1.34566,2.94537 3.50001,0.79102 1.00554,-1.00554 1.5,-1.0497 1.5,-0.13281 0,1.69627 6.53545,1.50634 7.79297,-0.22657 1.31507,-1.81222 1.18301,2.35304 -0.18946,5.96289 -0.63089,1.65938 -1.44098,5.69489 -1.80078,8.9668 -0.35979,3.27192 -0.93085,6.22384 -1.26757,6.56055 -0.33673,0.33673 -2.3504,-0.41317 -4.47461,-1.66797 -3.17769,-1.8771 -4.29651,-2.01073 -6.31837,-0.74805 -1.35156,0.84406 -3.10748,1.53516 -3.90039,1.53516 -0.79291,0 -2.14369,0.96225 -3.00391,2.13867 -1.99258,2.72501 -16.81556,3.51682 -22.89258,1.22266 l -4.17969,-1.57813 6.05469,-1.53515 c 7.6031,-1.92779 16.2721,-1.62065 18.15039,0.64257 2.56411,3.08955 3.33653,-0.77173 1.51953,-7.5957 -0.9402,-3.53105 -1.71561,-6.59819 -1.72461,-6.81641 -0.008,-0.2182 1.10938,-0.03992 2.48438,0.39649 3.54351,1.12466 3.14133,-1.39973 -0.80664,-5.05859 -1.81915,-1.68592 -2.69653,-3.06641 -1.94922,-3.06641 0.74731,0 1.70596,0.5625 2.13086,1.25 1.15683,1.87178 3.125,1.50678 3.125,-0.58008 0,-1.65575 2.78919,-3.77613 4.49805,-3.84961 z m -23.05665,5.67969 c 2.09087,0 10.52033,8.60985 13.3379,13.62305 3.29266,5.8585 3.23566,5.99168 -1.0254,2.44726 -2.58238,-2.14806 -4.20004,-2.46983 -9.375,-1.86523 -4.21639,0.4926 -5.64299,0.3415 -4.3789,-0.4668 1.03125,-0.65942 1.25868,-1.20875 0.50586,-1.21875 -0.75283,-0.01053 -2.3865,1.10547 -3.63086,2.48047 -2.49683,2.75896 -5.80307,3.36824 -5.3125,0.97851 0.33235,-1.619 10.90742,-10.97851 12.4043,-10.97851 0.48766,0 1.23167,0.56035 1.65429,1.24414 0.42261,0.6838 2.00314,1.83691 3.51172,2.56445 1.96256,0.94649 1.67535,0.3978 -1.00781,-1.92968 -5.07839,-4.40514 -8.125,-6.06237 -8.125,-4.42188 0,0.71168 0.70313,1.31113 1.5625,1.33203 1.98958,0.0484 -2.36033,2.61688 -5.11719,3.02149 -1.13852,0.1671 -2.07031,0.90602 -2.07031,1.64257 0,0.73654 -0.51088,1.80793 -1.13672,2.38086 -0.67388,0.61687 -0.72176,0.32318 -0.11719,-0.71875 0.78183,-1.34744 0.39711,-1.59682 -1.63867,-1.06445 -2.5808,0.67489 -2.59544,0.60878 -0.50781,-2.26953 1.18262,-1.63054 2.80092,-2.73593 3.5957,-2.45703 0.79479,0.2789 2.42846,-0.57955 3.63086,-1.90821 1.2024,-1.32863 2.66128,-2.41601 3.24023,-2.41601 z m 44.30666,0.0957 c 0.10001,0.0095 0.19931,0.03043 0.29687,0.06446 0.79633,0.27773 0.36206,1.72278 -1.07812,3.58984 -1.59294,2.06514 -2.41393,2.48908 -2.41993,1.25 -0.0116,-2.51981 1.70097,-5.04681 3.20118,-4.9043 z m 4.46289,1.58985 c 2.47099,0.07845 9.06272,2.80669 10.93164,5.05859 1.93903,2.33641 1.90141,2.3383 -3.01758,0.08594 -2.0625,-0.94441 -5.4375,-1.78775 -7.5,-1.87305 -2.06246,-0.08529 -3.04336,-0.43891 -2.17969,-0.78711 0.86366,-0.34819 1.31224,-1.05096 0.99609,-1.5625 -0.41942,-0.67865 -0.0541,-0.94803 0.76954,-0.92187 z m 0.67773,4.11328 6.28711,3.28711 c 3.45733,1.8078 6.55339,3.01886 6.88086,2.6914 0.32746,-0.32747 2.20944,1.53012 4.18164,4.12696 1.9722,2.59683 5.26804,6.26757 7.32617,8.1582 4.64402,4.26602 2.80871,4.38294 -3.06445,0.19531 -3.99293,-2.84699 -5.13914,-3.05108 -13.125,-2.34961 -6.11458,0.53712 -10.25596,0.2331 -13.75,-1.00781 -2.75,-0.97667 -5.84375,-1.48739 -6.875,-1.13477 -1.57225,0.53762 -1.6116,0.3211 -0.24414,-1.33593 1.25187,-1.51697 3.23589,-1.83758 8.53906,-1.38282 3.79958,0.32583 8.30605,1.1242 10.01367,1.77344 3.86004,1.46765 8.8282,1.52846 9.69922,0.11914 0.36066,-0.58355 -0.96445,-1.10766 -2.94531,-1.16406 -1.98086,-0.05633 -5.2534,-0.95737 -7.27344,-2.00195 -2.02003,-1.0446 -6.28689,-2.06729 -9.48047,-2.27344 -6.6872,-0.43169 -6.84803,-1.87343 -0.59179,-5.28711 l 4.42187,-2.41406 z m -22.89648,1.70117 c -0.27018,0 -0.49219,0.84375 -0.49219,1.875 0,1.03125 0.54502,1.875 1.21094,1.875 0.66592,0 0.8879,-0.84375 0.49218,-1.875 -0.39574,-1.03125 -0.94073,-1.875 -1.21093,-1.875 z m 6.1582,1.35547 c -0.23467,-0.0013 -0.40039,0.37776 -0.40039,1.00976 0,0.84266 -0.5625,1.18467 -1.25,0.75977 -0.6875,-0.4249 -1.25,0.10396 -1.25,1.17578 0,1.07182 0.50325,1.94922 1.11719,1.94922 1.33351,0 2.97095,-3.82788 2.03711,-4.76172 -0.09,-0.08998 -0.17569,-0.13239 -0.25391,-0.13281 z m -48.72853,1.62109 c 0.33787,0.0085 0.37484,0.49969 0.0547,1.33399 -0.83099,2.16553 -1.72656,2.56171 -1.72656,0.76367 0,-0.64692 0.55671,-1.51944 1.23633,-1.93945 0.17714,-0.10949 0.32292,-0.16104 0.43554,-0.15821 z m 39.68164,0.76367 c -1.2571,0.09719 -3.85351,3.03777 -3.85351,4.67578 0,1.26737 0.76282,0.92043 2.39258,-1.08984 1.31582,-1.62304 2.1742,-3.17158 1.90625,-3.4414 -0.11351,-0.11431 -0.26573,-0.15842 -0.44532,-0.14454 z m -33.84375,0.03125 c 0.0475,0.10541 -0.37062,0.69726 -1.21875,1.85352 -1.00859,1.375 -1.99296,2.73501 -2.1875,3.02148 -0.19454,0.28645 -0.35351,-0.06725 -0.35351,-0.78515 0,-0.7179 0.98438,-2.07793 2.1875,-3.02149 1.01172,-0.79344 1.52473,-1.17377 1.57226,-1.06836 z m -4.43945,6.64453 c 1.00101,1e-5 1.52986,0.47004 1.17578,1.04297 -0.35408,0.57291 -1.17338,1.04102 -1.82031,1.04102 -0.64693,0 -1.17578,-0.46811 -1.17578,-1.04102 0,-0.57293 0.81931,-1.04296 1.82031,-1.04297 z m -4.66797,0.17579 c 0.1726,-0.01068 0.34334,0.03012 0.5,0.12695 0.62668,0.38731 0.81546,1.22719 0.41992,1.86719 -1.17546,1.90193 -3.05446,1.32203 -2.27734,-0.70313 0.29566,-0.77048 0.83964,-1.25898 1.35742,-1.29101 z m 46.66603,4.70703 c 1.8153,-0.02818 3.4389,1.1752 4.80078,3.60156 1.62686,2.89847 1.59528,3.7473 -0.27539,7.68945 -1.15658,2.437293 -1.76657,5.468533 -1.35547,6.734383 0.56426,1.73749 0.44781,1.88067 -0.47461,0.58789 -1.00826,-1.41308 -1.42961,-1.33919 -2.41406,0.41992 -1.06369,1.9007 -1.62205,1.70413 -5.1465,-1.82031 -4.60302,-4.60302 -5.09922,-6.793523 -1.26367,-5.576173 2.17965,0.691803 2.53486,0.452 1.875,-1.26758 -0.44775,-1.16681 -0.81445,-2.39066 -0.81445,-2.71875 0,-0.3281 -0.5625,-0.24912 -1.25,0.17578 -2.54017,1.56991 -1.14917,-2.78307 1.76367,-5.51953 1.61446,-1.51671 3.1428,-2.28472 4.5547,-2.30664 z m -34.05861,1.00781 c 0.77962,0.07467 1.97193,0.72417 3.43946,1.91992 2.32164,1.89169 2.32473,1.9457 0.0625,1.22266 -2.03909,-0.65171 -2.13952,-0.48299 -0.72071,1.22656 1.45362,1.7515 1.22053,1.89711 -2.00976,1.25 -3.50463,-0.70208 -3.52926,-0.67733 -0.58008,0.60352 2.59613,1.12751 3.39434,0.91361 5.11328,-1.36524 1.64645,-2.18275 2.79314,-2.53514 5.97656,-1.83594 2.56496,0.56337 5.24992,0.21211 7.69922,-1.00976 4.43288,-2.21141 4.61435,-1.77836 1.23828,2.96289 -1.38699,1.94849 -2.00876,3.85999 -1.38085,4.24805 0.6279,0.38807 1.46321,-0.13481 1.85742,-1.16211 0.39421,-1.0273 1.25377,-1.86719 1.91015,-1.86719 0.65639,0 0.35118,1.6875 -0.67773,3.75 -1.72493,3.457703 -5.4375,5.244723 -5.4375,2.617193 0,-0.62323 -1.04,-0.86013 -2.3125,-0.52735 -1.27251,0.33276 -3.20248,-0.28255 -4.28711,-1.367183 -1.08463,-1.08464 -2.63645,-1.97266 -3.44922,-1.97266 -0.81277,0 -0.15038,1.10686 1.47266,2.45898 1.62304,1.352133 2.66992,2.431793 2.32617,2.400393 -1.70322,-0.15535 -12.84726,-6.036483 -14.81836,-7.820313 -2.79878,-2.53285 -5.18164,-2.6275 -5.18164,-0.20703 0,1.00707 -1.08817,2.41332 -2.41797,3.125 -3.37473,1.80608 -4.22428,1.61822 -3.32226,-0.73242 0.80126,-2.08806 -0.39712,-2.04183 -6.13476,0.23437 -1.48301,0.58832 -0.81137,-0.44617 1.65039,-2.54297 2.60762,-2.221 3.63495,-3.85409 2.76367,-4.39257 -0.76264,-0.47134 0.30099,-0.85742 2.36523,-0.85743 3.40424,1e-5 3.55568,0.163 1.61328,1.75196 -1.90728,1.56022 -1.73243,1.64919 1.60742,0.81054 2.0625,-0.51787 5.29688,-0.91727 7.1875,-0.88867 1.89063,0.02862 3.4375,-0.43069 3.4375,-1.01953 0,-0.61489 0.24939,-0.9481 0.70117,-1.00976 0.0941,-0.01285 0.19722,-0.01458 0.30859,-0.0039 z m 68.17384,0.52148 c 0.55743,-0.0071 1.08169,-0.0051 1.57617,0.0059 3.29656,0.07291 5.3005,0.55813 7.43946,1.57813 2.36544,1.128 4.30078,2.49267 4.30078,3.03125 0,0.53859 0.98438,0.66241 2.1875,0.27539 1.77625,-0.57139 1.84867,-0.46376 0.38086,0.57617 -1.14629,0.8121 -2.6027,0.85456 -3.98047,0.11719 -3.18298,-1.70347 -4.10879,-1.42092 -2.33789,0.71289 0.98127,1.18236 1.06479,1.875 0.22656,1.875 -0.7311,0 -1.63627,-0.49602 -2.01172,-1.10352 -0.92406,-1.49517 -7.44668,-1.07229 -9.60156,0.62305 -3.68655,2.90035 -9.12697,3.845233 -12.36328,2.14648 -1.71875,-0.90216 -3.82813,-1.38358 -4.6875,-1.06835 -0.85938,0.31521 -1.5625,0.02919 -1.5625,-0.63672 0,-0.66592 0.70312,-1.22047 1.5625,-1.23047 1.13147,-0.01386 1.08729,-0.31926 -0.16016,-1.10938 -2.51314,-1.5918 -0.62,-3.7388 2.66211,-3.01953 1.97143,0.43204 2.32164,0.26587 1.17188,-0.55273 -1.0927,-0.77797 1.95479,-1.4209 9.13672,-1.92774 2.41176,-0.17019 4.38825,-0.27155 6.06054,-0.29297 z m 18.94141,1.29688 2.8125,2.38086 c 1.54687,1.30967 2.8125,2.5753 2.8125,2.8125 0,1.00031 -1.00637,0.26219 -3.24414,-2.38086 l -2.38086,-2.8125 z m -12.72266,9.375003 c 1.98809,0 -0.54595,2.123 -3.52734,2.95508 -1.375,0.38375 -0.53125,0.44824 1.875,0.14258 2.40625,-0.30566 5.21875,0.0347 6.25,0.75585 1.42996,1.00001 1.13328,1.10674 -1.25,0.44922 l -3.125,-0.86328 2.83008,3.06641 2.82812,3.06641 -3.94336,-0.57813 c -2.85723,-0.41935 -3.68856,-0.16502 -3.01562,0.92383 0.51095,0.8268 1.73308,1.19388 2.71679,0.8164 1.89118,-0.7257 4.98193,5.21595 3.44727,6.62696 -0.4571,0.42028 -1.08977,0.0365 -1.40625,-0.85156 -0.82607,-2.31798 -4.08203,0.5875 -4.08203,3.64257 0,2.63655 -1.9945,3.18703 -2.8457,0.78516 -0.30453,-0.85938 -1.05389,1.47602 -1.66602,5.18945 -0.95574,5.79804 -1.5414,6.81699 -4.14258,7.21289 -2.98163,0.45379 -2.9916,0.41956 -0.70117,-2.11133 1.27976,-1.4141 2.40889,-3.69084 2.50977,-5.06054 0.16727,-2.2704 -0.11712,-2.2022 -3.21485,0.76562 -3.15177,3.01958 -5.78134,3.92024 -13.58594,4.65625 -1.66212,0.15675 -3.30032,1.12891 -3.64062,2.16016 -0.52682,1.5965 -0.31555,1.62478 1.42578,0.1875 1.8931,-1.56231 1.89443,-1.37618 0.0117,2.5 -2.56553,5.28196 -3.25263,6.06275 -2.70703,3.08008 0.9889,-5.40608 -8.05135,-2.68862 -10.79883,3.24609 -1.87044,4.04026 -1.8961,4.05116 -1.42969,0.58008 0.26104,-1.94275 10e-4,-3.05814 -0.57812,-2.47852 -0.57963,0.57963 -1.50238,3.21205 -2.05079,5.85157 l -0.99805,4.80078 -1.36914,-5.13477 c -1.09939,-4.11883 -1.04274,-5.13281 0.28711,-5.13281 0.91153,0 2.26992,-1.26562 3.01954,-2.8125 1.3331,-2.75091 1.31878,-2.75775 -0.65821,-0.3125 -1.81742,2.2479 -2.17041,2.3009 -3.50586,0.51758 -0.81686,-1.09083 -2.83715,-2.70421 -4.48828,-3.58399 -2.72802,-1.45358 -2.91935,-1.3856 -2.09961,0.73438 1.14229,2.95401 2.27894,10.48418 1.20117,7.95703 -0.4398,-1.03125 -1.56971,-3.77134 -2.51172,-6.08984 -1.43999,-3.54414 -2.01159,-3.96837 -3.58789,-2.66016 -1.03117,0.85581 -1.875,3.14233 -1.875,5.08008 0,1.93774 -0.5625,3.87002 -1.25,4.29492 -1.94332,1.20104 -1.47263,-4.15439 0.7832,-8.9082 1.62305,-3.42033 2.56924,-4.13812 4.6875,-3.56055 2.55534,0.69675 2.56816,0.65337 0.3086,-1.1582 -2.12784,-1.70596 -2.57476,-1.62427 -4.78321,0.87304 l -2.43554,2.75391 0.60351,-2.81055 c 0.33143,-1.5462 0.005,-3.18021 -0.72461,-3.63086 -0.72918,-0.45066 -0.97482,-0.25298 -0.54687,0.43946 0.42795,0.69244 -0.0302,2.32645 -1.01758,3.63086 -1.7052,2.25275 -1.79619,2.20321 -1.83399,-0.96485 -0.058,-4.8678 -1.25367,-7.22472 -3.26953,-6.45117 -1.20734,0.4633 -1.80043,-0.25773 -1.86523,-2.26562 -0.0801,-2.48047 -0.37044,-2.25561 -1.83008,1.42773 l -1.73437,4.375 0.26757,-3.75 c 0.17323,-2.439 -0.28062,-3.64075 -1.29687,-3.4375 -0.85937,0.17187 -1.5625,-0.25 -1.5625,-0.9375 0,-0.6875 0.70313,-1.26716 1.5625,-1.28906 1.0247,-0.0261 0.87544,-0.56387 -0.43555,-1.5625 -2.03624,-1.55109 -2.37695,-2.24985 -2.37695,-4.88672 0,-0.8189 -0.75727,-0.45235 -1.6836,0.81445 -1.39211,1.90385 -1.87637,1.99885 -2.7871,0.55078 -0.8248,-1.31142 -1.32116,-0.80916 -1.97657,1.99805 -0.80848,3.463 -0.87189,3.36734 -0.84179,-1.25 0.048,-7.35334 -0.11231,-7.73524 -2.125,-5.07422 -1.00939,1.33451 -1.83593,1.92484 -1.83593,1.31055 0,-0.6143 1.77018,-2.9434 3.93358,-5.17578 3.79192,-3.91226 4.06464,-3.991 7.53711,-2.19532 1.98145,1.02461 4.16332,1.5167 4.84766,1.09375 0.68435,-0.42295 1.0893,-0.0511 0.90039,0.82813 -0.18891,0.87923 0.35938,1.69538 1.21875,1.8125 0.85938,0.11719 1.84375,0.35351 2.1875,0.52539 1.21769,0.60883 11.15628,2.44505 17.5,3.23242 1.375,0.17066 2.78125,0.42018 3.125,0.55664 0.34375,0.1364 1.55801,0.15679 2.69922,0.0449 2.38935,-0.23428 6.05079,4.42062 6.05079,7.69336 0,4.06511 1.92057,2.29762 4.375,-4.02734 l 2.42578,-6.25 7.77539,0 c 4.54117,0 8.1477,-0.6023 8.66992,-1.44727 0.6127,-0.99136 0.046,-1.22514 -1.80078,-0.74218 -1.4825,0.38768 -2.69531,0.49221 -2.69531,0.23046 0,-1.13736 7.06385,-3.80597 8.93945,-3.37695 1.13566,0.25977 4.15716,-0.40202 6.71485,-1.4707 2.55768,-1.06866 5.25701,-1.94336 5.99804,-1.94336 z m -82.90235,3.75 c -0.0645,-0.0645 -0.57122,0.31242 -1.5625,1.08984 -1.20312,0.94356 -2.1875,1.92794 -2.1875,2.1875 0,1.0288 1.0272,0.36735 2.66016,-1.71484 0.77741,-0.99129 1.15436,-1.49798 1.08984,-1.5625 z m 68.98829,2.58789 c -1.72311,0.0716 -1.65129,0.28635 0.38672,1.16211 3.34489,1.43735 3.38832,1.43735 2.5,0 -0.4249,-0.6875 -1.72417,-1.21051 -2.88672,-1.16211 z m -63.45118,3.66211 c -0.34375,0 -0.023,1.125 0.71289,2.5 0.73588,1.375 1.61914,2.5 1.96289,2.5 0.34375,0 0.023,-1.125 -0.71289,-2.5 -0.73588,-1.375 -1.61914,-2.5 -1.96289,-2.5 z m 11.96289,2.5 c -0.0645,0.0645 0.31438,0.57121 1.0918,1.5625 1.63295,2.08219 2.6582,2.74364 2.6582,1.71484 0,-0.25956 -0.98437,-1.24394 -2.1875,-2.1875 -0.99129,-0.77742 -1.49798,-1.15436 -1.5625,-1.08984 z m 11.17578,0 c -0.72807,0 -0.97568,0.5625 -0.55078,1.25 0.4249,0.6875 1.02105,1.25 1.32422,1.25 0.30318,0 0.55078,-0.5625 0.55078,-1.25 0,-0.6875 -0.59614,-1.25 -1.32422,-1.25 z m 32.02149,1.6582 c -0.19958,-0.0118 -0.43945,0.0575 -0.69726,0.2168 -0.6875,0.4249 -1.25,1.33594 -1.25,2.02344 0,0.6875 0.5625,0.90146 1.25,0.47656 0.6875,-0.4249 1.25,-1.33398 1.25,-2.02149 0,-0.42968 -0.22009,-0.67567 -0.55274,-0.69531 z m -5.54882,0.8418 c -0.6875,0 -1.59854,0.5625 -2.02344,1.25 -0.4249,0.6875 -0.20899,1.25 0.47851,1.25 0.6875,0 1.59659,-0.5625 2.02149,-1.25 0.4249,-0.6875 0.21094,-1.25 -0.47656,-1.25 z m -21.47267,1.25 c -0.72807,0 -0.97568,0.5625 -0.55078,1.25 0.4249,0.6875 1.02105,1.25 1.32422,1.25 0.30318,0 0.55078,-0.5625 0.55078,-1.25 0,-0.6875 -0.59614,-1.25 -1.32422,-1.25 z m 3.4375,0.0195 c -0.89451,0.0115 -0.73989,0.50239 0.38672,1.23047 2.4014,1.55191 2.83413,1.55191 1.875,0 -0.4249,-0.6875 -1.44292,-1.24047 -2.26172,-1.23047 z m -7.00391,1.41211 c -0.52859,-0.0544 -1.00399,0.28344 -1.66211,0.99219 -0.93486,1.00674 -0.99225,1.36923 -0.14062,0.89258 0.78733,-0.44066 1.77758,0.10123 2.20117,1.20507 0.55026,1.43397 0.23065,1.7992 -1.11914,1.28125 -2.97816,-1.14284 -2.25048,0.0813 2.79492,4.70508 2.5758,2.36054 4.80012,4.17449 4.94336,4.03125 0.71757,-0.71757 -3.24502,-9.94228 -5.04297,-11.74023 -0.86548,-0.86548 -1.44601,-1.31281 -1.97461,-1.36719 z m -30.59375,0.29687 c 0.14942,-0.007 0.3125,0.0403 0.48438,0.14649 0.6875,0.4249 1.25,1.3023 1.25,1.94922 0,0.64693 -0.5625,1.17578 -1.25,1.17578 -0.6875,0 -1.25,-0.8774 -1.25,-1.94922 0,-0.80389 0.31738,-1.30241 0.76562,-1.32227 z m 17.0293,0.0176 c -0.0776,0.0135 -0.15805,0.0449 -0.24023,0.0957 -0.65747,0.40634 -0.87752,1.56499 -0.49024,2.57421 0.99153,2.5839 1.68555,2.27798 1.68555,-0.74023 0,-1.23863 -0.41166,-2.0245 -0.95508,-1.92969 z m 4.70508,0.75391 c -0.0645,0.0645 0.31438,0.57121 1.0918,1.5625 1.63296,2.08219 2.6582,2.74364 2.6582,1.71484 0,-0.25956 -0.98438,-1.24394 -2.1875,-2.1875 -0.99129,-0.77742 -1.49798,-1.15436 -1.5625,-1.08984 z m 45.51759,0.40039 c -0.12255,0.0219 -0.32633,0.14443 -0.61133,0.36719 -0.97945,0.76554 -3.03652,1.28068 -4.57227,1.14648 -1.5561,-0.13598 -4.00531,1.04759 -5.53125,2.67188 -1.56319,1.66393 -2.07738,2.91406 -1.19726,2.91406 0.84793,0 1.14094,0.64963 0.65039,1.44336 -0.55704,0.9013 -0.34177,1.10396 0.57226,0.53906 0.80499,-0.49747 1.1796,-1.36537 0.83204,-1.92773 -0.34757,-0.56237 0.064,-0.9976 0.91601,-0.9668 4.21409,0.15176 5.81786,-0.61739 7.87305,-3.77539 1.07407,-1.65042 1.43599,-2.47784 1.06836,-2.41211 z m -18.48633,0.0547 c -0.48654,-0.0729 -1.35561,0.84497 -2.07617,2.25 -1.4314,2.79107 -1.39796,2.8245 0.76172,0.76172 1.24252,-1.18676 1.91704,-2.49897 1.49804,-2.91797 -0.0524,-0.0524 -0.11409,-0.0833 -0.18359,-0.0937 z m 3.25586,0.79492 c -0.69813,0 -1.59254,0.84375 -1.98828,1.875 -0.39579,1.03125 -0.52509,1.875 -0.28711,1.875 0.23799,0 1.13242,-0.84375 1.98828,-1.875 0.89694,-1.08074 1.01874,-1.875 0.28711,-1.875 z m 7.91211,1.25 c 0.30318,0 0.55078,0.5625 0.55078,1.25 0,0.6875 -0.59614,1.25 -1.32422,1.25 -0.72807,0 -0.97568,-0.5625 -0.55078,-1.25 0.4249,-0.6875 1.02105,-1.25 1.32422,-1.25 z m -39.95314,2.90234 c -1.08534,-0.0253 -1.74765,0.23709 -1.34375,0.89063 0.46835,0.75774 1.54821,1.11021 2.40039,0.7832 0.85218,-0.32701 2.34165,-0.0919 3.31055,0.52149 2.38471,1.50964 3.17326,1.43888 1.5918,-0.14258 -1.16792,-1.16791 -4.15009,-2.01054 -5.95899,-2.05274 z m 8.99805,3.34766 c -1.78621,0 1.70287,4.46719 5.09961,6.5293 4.81797,2.92493 4.83616,2.67415 0.15625,-2.1543 -2.33223,-2.40625 -4.6974,-4.375 -5.25586,-4.375 z m 68.53712,0.45508 c 0.0695,0.0104 0.13122,0.0414 0.18359,0.0937 0.419,0.419 -0.25553,1.73121 -1.49804,2.91797 -2.15969,2.06278 -2.19312,2.02935 -0.76172,-0.76172 0.72056,-1.40503 1.58963,-2.32289 2.07617,-2.25 z m -102.74415,3.03906 c 0.097,-0.0523 0.21123,0.13572 0.33008,0.5918 0.31695,1.21621 0.29553,2.90371 -0.0469,3.75 -0.3424,0.84628 -0.60167,-0.14844 -0.57617,-2.21094 0.0159,-1.28906 0.13128,-2.04365 0.29297,-2.13086 z m 56.83204,1.74805 c -0.5459,0.0998 -1.15445,0.62389 -2.06445,1.61718 -1.96154,2.14098 -1.96708,2.21939 -0.0469,0.77735 1.173,-0.88091 2.8605,-1.18934 3.75,-0.68555 1.30243,0.73765 1.31234,0.58547 0.0469,-0.77734 -0.6564,-0.70689 -1.13965,-1.03146 -1.68555,-0.93164 z m -46.48048,0.20703 c 0.037,-0.005 0.0699,0.001 0.0996,0.0215 0.14239,0.0961 0.20574,0.48125 0.21875,1.13672 0.0244,1.22732 -0.81572,3.54082 -1.86523,5.14258 -1.48424,2.26524 -1.61515,3.68214 -0.58985,6.37891 0.72504,1.9069 1.0343,3.75084 0.6875,4.09765 -0.34681,0.3468 -1.00337,-0.34004 -1.45898,-1.52734 -0.65657,-1.71099 -1.04708,-1.81368 -1.88477,-0.49219 -1.5217,2.40054 -1.33664,3.54297 0.57617,3.54297 1.12187,0 1.74514,1.88796 1.89063,5.73437 0.11928,3.15355 0.79221,6.8098 1.49609,8.125 0.70387,1.3152 0.99805,2.39063 0.6543,2.39063 -0.34375,0 -1.26716,-1.20008 -2.05273,-2.66797 -1.01225,-1.89138 -1.70375,-2.2263 -2.3711,-1.14648 -0.68789,1.11302 -1.1566,0.9623 -1.74023,-0.5586 -1.22471,-3.19157 -0.9264,-5.25859 0.45117,-3.12695 0.95917,1.4842 1.21289,1.22367 1.21289,-1.25 0,-1.71875 -0.54644,-3.96875 -1.21289,-5 -1.00941,-1.56195 -1.23573,-1.45759 -1.35547,0.625 -0.11729,2.04 -0.30708,1.92499 -1.03125,-0.625 -0.61741,-2.17409 -0.29382,-3.57502 1.0625,-4.60352 1.56126,-1.1839 1.63801,-1.79386 0.38672,-3.0625 -0.85937,-0.87129 -1.49767,-3.01836 -1.41797,-4.77148 0.11732,-2.579 0.26152,-2.71025 0.74805,-0.6875 1.34756,5.60241 2.86318,4.63191 3.02734,-1.9375 0.0936,-3.74685 0.43047,-5.42334 0.74805,-3.72656 l 0.57812,3.08398 1.70703,-3.08398 c 0.73168,-1.32154 1.17678,-1.97585 1.43555,-2.01172 z m -20.39648,0.80078 c 0.2702,0 0.81522,0.84375 1.21094,1.875 0.39573,1.03125 0.17373,1.875 -0.49219,1.875 -0.66592,0 -1.21093,-0.84375 -1.21093,-1.875 0,-1.03125 0.22199,-1.875 0.49218,-1.875 z m 106.49415,0.14062 c 0.16664,0.0218 0.2896,0.10773 0.35351,0.26368 0.25567,0.62377 -0.30683,1.62324 -1.25,2.2207 -2.9224,1.85122 -3.69758,1.23465 -1.40234,-1.11523 0.90234,-0.92384 1.79888,-1.43466 2.29883,-1.36915 z m 9.91406,0.42969 c 0.77396,-0.0196 0.53656,0.92242 -1.19727,2.65625 -1.15264,1.15264 -1.82696,2.79714 -1.49804,3.6543 0.32893,0.85715 -0.2421,1.48874 -1.26758,1.40234 -1.11458,-0.0939 -2.55937,1.83458 -3.59375,4.79492 -1.93749,5.54508 -1.71506,6.61545 0.8457,4.05469 0.95555,-0.95555 2.67123,-1.60109 3.8125,-1.43359 1.14126,0.1675 2.37835,-0.48383 2.74805,-1.44727 0.8341,-2.17361 4.0893,-2.30023 4.87305,-0.18945 0.65899,1.77479 3.51502,-4.41693 4.09961,-8.88672 0.68899,-5.26816 1.44557,-4.16228 1.59179,2.32813 0.0998,4.43043 -0.39313,6.54698 -1.63476,7.02343 -0.97745,0.37509 -2.09276,2.32307 -2.47852,4.32813 -0.38577,2.00507 -1.03614,5.37271 -1.44531,7.48437 -0.8371,4.32011 -2.00047,3.98677 -2.50196,-0.71679 -0.57604,-5.4028 -6.7539,-8.73111 -6.7539,-3.63868 0,0.97645 -1.125,3.874 -2.5,6.43946 -1.375,2.56545 -2.50953,5.79841 -2.51953,7.18359 -0.0105,1.38518 -0.54355,3.34803 -1.18555,4.36328 -0.80513,1.27319 -1.29962,-0.85985 -1.5918,-6.875 -0.38128,-7.84917 -0.53218,-8.28931 -1.51953,-4.40429 -0.89155,3.5081 -1.25294,3.8726 -1.92969,1.94336 -0.64462,-1.8377 -1.21958,-1.066 -2.54296,3.41601 -2.13632,7.23528 -3.99312,6.44441 -3.13477,-1.33398 0.52551,-4.76211 0.35698,-5.49515 -0.9043,-3.9668 -2.25132,2.72799 -5.63413,2.91397 -6.30273,0.3457 -0.40872,-1.57006 -0.6337,-1.30596 -0.76758,0.9043 -0.10411,1.71875 -1.03456,4.53125 -2.0664,6.25 -1.81948,3.03066 -1.85293,2.96377 -1.09571,-2.19141 0.66484,-4.52616 0.48742,-5.20144 -1.20312,-4.55273 -1.09198,0.41902 -1.98633,1.20485 -1.98633,1.74609 0,0.54123 -1.71607,2.82201 -3.81445,5.06836 l -3.81641,4.08399 1.58984,-3.63868 c 0.87426,-2.00176 2.87354,-6.11439 4.44141,-9.13867 3.05718,-5.89696 3.71453,-9.55909 1.4668,-8.16992 -2.74178,1.69452 0.27484,-4.4057 4.04101,-8.17187 3.13886,-3.13887 3.61323,-3.32032 2.91211,-1.11133 -0.52343,1.64919 -0.3623,2.34495 0.42969,1.85547 2.13785,-1.32126 0.13299,4.54133 -2.9961,8.75976 l -2.90429,3.91406 5.52734,-0.37304 c 3.0397,-0.20493 6.11006,-0.73439 6.82422,-1.17578 0.71417,-0.44137 1.29883,-0.12939 1.29883,0.6914 0,2.46593 4.77654,-4.39282 5.74414,-8.24804 l 0.89844,-3.57813 1.22265,3.05274 1.22266,3.05273 0.90625,-3.125 c 0.49864,-1.71875 0.69459,-4.8125 0.43359,-6.875 -0.3949,-3.12046 -0.27598,-3.33031 0.71094,-1.25 1.11489,2.35003 1.19084,2.31812 1.27344,-0.52149 0.0483,-1.66145 0.44505,-2.66432 0.88086,-2.22851 0.43581,0.43582 2.20976,-0.32148 3.9414,-1.68359 1.60088,-1.25925 2.81405,-1.85589 3.41602,-1.8711 z m -93.1504,0.67969 c 1.40723,0 1.44181,2.85579 0.0918,7.5 -0.49961,1.71875 -0.45288,4.77601 0.10351,6.79297 1.52698,5.53544 0.38388,5.22751 -1.91406,-0.51563 -2.30011,-5.74854 -2.63331,-10.02734 -0.78125,-10.02734 0.6875,0 1.25,-0.84375 1.25,-1.875 0,-1.03125 0.5625,-1.875 1.25,-1.875 z m 70.42188,0.47656 c 0.33786,0.009 0.37484,0.49969 0.0547,1.33399 -0.83099,2.16553 -1.72656,2.56171 -1.72656,0.76367 0,-0.64692 0.5567,-1.51944 1.23633,-1.93945 0.17714,-0.10949 0.32293,-0.16104 0.43554,-0.15821 z m -89.24609,0.77344 c 0.72807,0 1.32422,0.5625 1.32422,1.25 0,0.6875 -0.2476,1.25 -0.55078,1.25 -0.30317,0 -0.89932,-0.5625 -1.32422,-1.25 -0.4249,-0.6875 -0.1773,-1.25 0.55078,-1.25 z m 42.94921,1.37109 c 0.0235,-0.006 0.0524,-0.003 0.0879,0.01 0.1703,0.0603 0.48041,0.32567 0.94336,0.78515 0.85428,0.84793 1.23837,1.85732 0.85351,2.24219 -0.38486,0.38486 -1.08526,-0.30823 -1.55468,-1.54101 -0.37098,-0.97426 -0.4949,-1.4576 -0.33008,-1.4961 z m 17.12501,1.12891 c 0.0645,0.0645 -0.31242,0.57121 -1.08984,1.5625 -1.63298,2.08219 -2.66016,2.74364 -2.66016,1.71484 0,-0.25956 0.98437,-1.24394 2.1875,-2.1875 0.99129,-0.77742 1.49798,-1.15436 1.5625,-1.08984 z m -63.42578,0.19336 c 0.20106,0.0445 0.5334,0.52616 1.07812,1.46289 0.72962,1.25469 1.08907,2.52031 0.79688,2.8125 -0.88591,0.88591 -2.20056,-1.01014 -2.16016,-3.11524 0.0156,-0.81268 0.0841,-1.20466 0.28516,-1.16015 z m 25.25975,0.38476 c 0.0754,0.0281 0.15745,0.14453 0.24414,0.35938 0.34677,0.85937 0.34677,2.26562 0,3.125 -0.34676,0.85937 -0.63086,0.15625 -0.63086,-1.5625 0,-1.28906 0.16064,-2.0061 0.38672,-1.92188 z m 13.75,0 c 0.0754,0.0281 0.15745,0.14453 0.24414,0.35938 0.34676,0.85937 0.34676,2.26562 0,3.125 -0.34676,0.85937 -0.63086,0.15625 -0.63086,-1.5625 0,-1.28906 0.16063,-2.0061 0.38672,-1.92188 z m 26.95119,0.59571 c 0.22433,0.004 0.4732,0.16656 0.76367,0.45703 0.43899,0.43899 -0.15212,2.64276 -1.3125,4.89648 l -2.10938,4.09766 0.83203,-4.375 c 0.6991,-3.67328 1.15316,-5.08851 1.82618,-5.07617 z m 18.54687,0.50976 c 0.0884,0.0174 0.13438,0.10387 0.12891,0.26563 -0.0219,0.64702 -0.86563,2.26704 -1.875,3.60156 -1.00939,1.3345 -1.81683,1.89703 -1.79493,1.25 0.0219,-0.64702 0.86562,-2.26704 1.875,-3.60156 0.75705,-1.00088 1.40069,-1.56783 1.66602,-1.51563 z m -76.74805,0.14453 c 0.0754,0.0281 0.15744,0.14453 0.24413,0.35938 0.34677,0.85937 0.34677,2.26562 0,3.125 -0.34675,0.85937 -0.63085,0.15625 -0.63085,-1.5625 0,-1.28906 0.16064,-2.0061 0.38672,-1.92188 z m 71.87696,0.67188 c 0.66592,0 0.8879,0.84375 0.49218,1.875 -0.39574,1.03125 -0.94073,1.875 -1.21093,1.875 -0.27018,0 -0.49219,-0.84375 -0.49219,-1.875 0,-1.03125 0.54502,-1.875 1.21094,-1.875 z m 53.23437,0.26172 c 0.34972,0.2161 1.05059,1.95983 1.67969,4.23828 0.71894,2.60394 1.08164,4.95936 0.80664,5.23437 -0.275,0.275 -1.08767,-1.63043 -1.80664,-4.23437 -0.71894,-2.60394 -1.08164,-4.95937 -0.80664,-5.23438 0.0344,-0.0344 0.077,-0.0348 0.12695,-0.004 z m -112.74024,0.16992 c -0.18947,-0.0287 -0.31797,0.42973 -0.35547,1.33984 -0.0543,1.3177 0.24089,2.05599 0.65625,1.64063 0.41538,-0.41536 0.45874,-1.49415 0.0977,-2.39649 -0.14963,-0.37393 -0.28475,-0.56677 -0.39843,-0.58398 z m 49.61915,0.81836 c 0.72808,0 0.97568,0.5625 0.55078,1.25 -0.4249,0.6875 -1.02104,1.25 -1.32422,1.25 -0.30317,0 -0.55078,-0.5625 -0.55078,-1.25 0,-0.6875 0.59615,-1.25 1.32422,-1.25 z m -8.10352,1.70898 c 0.27808,0.0714 0.21681,1.09128 -0.29101,3.03321 -0.39668,1.51685 -1.20625,2.75781 -1.79883,2.75781 -0.59257,0 -0.43483,-1.4092 0.34961,-3.13086 0.8453,-1.85523 1.46216,-2.73158 1.74023,-2.66016 z m 31.06641,0.53516 c 0.097,-0.0523 0.21123,0.13572 0.33008,0.5918 0.31684,1.21621 0.29552,2.90371 -0.0469,3.75 -0.34241,0.84629 -0.60167,-0.14844 -0.57617,-2.21094 0.0159,-1.28906 0.13128,-2.04365 0.29297,-2.13086 z m 44.07031,0.77344 c 0.14137,0.0331 0.34263,0.18247 0.60352,0.44336 0.72634,0.72638 1.07403,2.05913 0.77343,2.96093 -0.31206,0.93618 -0.87829,0.36799 -1.32031,-1.32226 -0.33982,-1.29949 -0.40407,-1.97691 -0.17773,-2.07617 0.034,-0.0149 0.074,-0.0169 0.12109,-0.006 z m -110.59376,0.40625 c 0.0281,-0.0133 0.0597,-0.0125 0.0937,0.004 0.22701,0.10942 0.58043,0.86731 0.95898,2.13477 0.60569,2.02795 0.90796,3.88111 0.67188,4.11719 -0.66637,0.66638 -2.0008,-3.39089 -1.88086,-5.71875 0.0166,-0.32257 0.072,-0.49718 0.15625,-0.53711 z m -39.25976,0.57422 c 0.131,-0.003 0.20899,0.11914 0.20899,0.37695 0,0.6875 -0.54644,2.09375 -1.21289,3.125 -0.66644,1.03125 -1.21094,1.3125 -1.21094,0.625 0,-0.6875 0.5445,-2.09375 1.21094,-3.125 0.41653,-0.64453 0.78558,-0.99677 1.0039,-1.00195 z m 13.22266,2.94922 c 0.25929,-0.0149 0.9197,2.20947 1.85156,6.49023 0.63605,2.92187 0.96838,5.3125 0.73828,5.3125 -0.98862,0 -1.7689,-2.47266 -2.40429,-7.61914 -0.34639,-2.80561 -0.38722,-4.17205 -0.18555,-4.18359 z m 89.27734,0.80078 c 0.13101,-0.003 0.20899,0.11914 0.20899,0.37695 0,0.6875 -0.54644,2.09375 -1.21289,3.125 -0.66645,1.03125 -1.21094,1.3125 -1.21094,0.625 0,-0.6875 0.54449,-2.09375 1.21094,-3.125 0.41653,-0.64453 0.7856,-0.99677 1.0039,-1.00195 z m -91.79882,0.18359 c 0.11368,0.0172 0.2488,0.21005 0.39843,0.58398 0.36107,0.90234 0.31771,1.98113 -0.0977,2.39649 -0.41537,0.41536 -0.71055,-0.32293 -0.65625,-1.64063 0.0375,-0.91012 0.166,-1.36853 0.35547,-1.33984 z m 39.91405,1.17578 c 0.31088,-0.10658 0.91568,1.51526 1.88281,4.99024 1.40224,5.03836 2.52068,7.02887 3.69531,6.57812 0.92618,-0.35542 1.41304,-0.20939 1.08204,0.32617 -0.99101,1.60349 3.14506,8.99805 5.0332,8.99805 0.9624,0 2.26451,-1.35194 2.89258,-3.00391 0.62808,-1.65196 1.68619,-3.33877 2.35156,-3.75 0.66533,-0.41121 0.93962,-2.01434 0.60938,-3.56054 -0.5677,-2.65799 -0.49913,-2.68692 1.25586,-0.53711 1.77787,2.17788 1.89022,2.16118 2.70508,-0.40625 0.46791,-1.47425 1.09822,-2.43499 1.39844,-2.13477 0.30021,0.30021 -0.0722,2.17027 -0.82617,4.15625 l -1.3711,3.61133 3.67383,-3.51367 3.67188,-3.51563 -0.41407,3.51563 c -0.22811,1.93315 -0.55406,5.36995 -0.72265,7.63867 -0.16858,2.26874 -1.03347,4.72752 -1.92188,5.46484 -1.93029,1.60199 -2.00867,0.98444 -0.41211,-3.21484 0.74031,-1.94731 0.75296,-3.43723 0.0352,-3.88086 -0.64108,-0.3962 -1.50679,0.63915 -1.92383,2.30078 -0.91488,3.64514 -4.55043,3.77222 -5.84962,0.20508 -0.50995,-1.40015 -0.63838,-0.3003 -0.29297,2.5 0.58457,4.7392 0.52648,4.84541 -1.09961,2.01953 -1.22517,-2.12915 -1.99063,-2.53829 -2.67578,-1.42969 -0.75085,1.21491 -1.19218,1.18278 -2.0332,-0.14453 -0.79071,-1.24791 -1.07965,-1.28252 -1.09375,-0.13281 -0.0105,0.85937 -0.61568,1.5625 -1.34375,1.5625 -0.72808,0 -0.99345,-0.53177 -0.5918,-1.18164 0.40165,-0.64988 -0.13454,-3.0405 -1.18945,-5.3125 l -1.91797,-4.13086 0.60938,4.375 c 0.60777,4.36957 0.60682,4.37112 -1.24805,1.25 l -1.85742,-3.125 0.80664,3.75 c 0.44355,2.0625 1.80308,5.85937 3.02148,8.4375 2.44099,5.16512 2.27736,6.03506 -0.41211,2.19531 -0.96002,-1.37063 -2.20729,-2.07375 -2.77148,-1.5625 -0.56418,0.51125 -0.62834,0.23774 -0.14258,-0.60742 0.48576,-0.84518 0.17591,-2.81393 -0.68945,-4.375 -0.86535,-1.56109 -1.44636,-3.28269 -1.29102,-3.82617 0.42934,-1.50206 -2.18192,-5.88672 -3.50586,-5.88672 -0.64173,0 -0.80815,0.93606 -0.36914,2.08008 0.53669,1.39861 0.31926,1.7835 -0.66406,1.17578 -0.80433,-0.49712 -1.46289,-2.32315 -1.46289,-4.05859 0,-1.98981 -0.57719,-2.94901 -1.5625,-2.59571 -2.2534,0.80799 -5.9375,-1.37529 -5.9375,-3.51953 0,-2.47139 1.66722,-2.30745 7.67187,0.75586 5.75915,2.9381 7.55884,2.36932 4.21094,-1.33008 -1.28466,-1.41952 -1.64343,-2.50781 -0.82617,-2.50781 0.79406,0 1.49805,-1.54688 1.56445,-3.4375 0.0264,-0.75172 0.10674,-1.15663 0.24805,-1.20508 z m -56.86523,2.39063 c 0.131,-0.003 0.20899,0.11914 0.20899,0.37695 0,0.6875 -0.54644,2.09375 -1.21289,3.125 -0.66644,1.03125 -1.21094,1.3125 -1.21094,0.625 0,-0.6875 0.5445,-2.09375 1.21094,-3.125 0.41653,-0.64453 0.78558,-0.99677 1.0039,-1.00195 z m 150.03907,0.5039 c 0.0228,0.0179 0.04,0.0781 0.0508,0.18555 0.0858,0.85937 1,1.5625 2.03125,1.5625 1.15458,0 1.875,1.17191 1.875,3.05078 0,1.67817 0.49615,3.35825 1.10156,3.73242 0.60541,0.37416 1.34655,1.9642 1.64649,3.53321 0.29994,1.56902 -0.16075,4.52954 -1.02344,6.58007 -1.54786,3.67916 -1.56893,3.64893 -1.48633,-2.34765 0.0461,-3.34209 -0.49426,-6.43584 -1.20117,-6.875 -0.70691,-0.43917 -1.5806,-2.20508 -1.94141,-3.92383 -0.36084,-1.71875 -0.5575,-0.49978 -0.4375,2.70898 0.12005,3.20878 -0.0498,5.56739 -0.37695,5.24024 -0.32715,-0.32716 -1.31385,1.26637 -2.19336,3.54101 l -1.59961,4.13477 0.77734,-5 c 0.42672,-2.75 1.20275,-7.8125 1.72461,-11.25 0.45663,-3.00781 0.89297,-4.99802 1.05274,-4.87305 z m 10.08008,0.42774 c 0.26068,-0.027 0.56515,0.0905 0.88281,0.4082 0.41537,0.41536 0.51801,1.46746 0.22851,2.33594 -0.4234,1.27027 -0.71832,1.26842 -1.50586,-0.006 -0.7819,-1.26515 -0.38752,-2.65723 0.39454,-2.73828 z m -28.50196,0.0957 c 0.0936,-0.007 0.44204,0.52193 1.12305,1.58398 0.78806,1.22903 1.1565,2.91652 0.81836,3.75 -0.44373,1.09369 -0.64169,1.10864 -0.71289,0.0547 -0.0543,-0.80315 -0.4227,-2.49065 -0.81836,-3.75 -0.34191,-1.08824 -0.50375,-1.63144 -0.41016,-1.63867 z m -90.59376,0.46094 c 0.15185,-0.005 0.31947,0.0444 0.49414,0.15234 0.69871,0.43183 0.94632,1.30727 0.55078,1.94727 -1.07155,1.73379 -1.82226,1.4105 -1.82226,-0.78516 0,-0.80387 0.32179,-1.29912 0.77734,-1.31445 z m 77.17775,2.44531 c -0.18946,-0.0287 -0.31797,0.42973 -0.35547,1.33984 -0.0543,1.3177 0.24088,2.05599 0.65625,1.64063 0.41529,-0.41536 0.45873,-1.49415 0.0977,-2.39649 -0.14963,-0.37393 -0.28476,-0.56677 -0.39843,-0.58398 z m 26.39062,0.79883 c 0.8938,-0.0391 0.71706,0.34397 -1.08789,8.9707 -0.95794,4.57847 -3.50439,11.60801 -5.66015,15.62305 -5.12526,9.5455 -7.92581,13.06767 -9.50782,11.95508 -3.24494,-2.28209 -0.31627,-9.10951 7.08203,-16.50782 2.26607,-2.26608 4.15925,-5.02584 4.20703,-6.13281 0.16671,-3.86818 3.42736,-13.88867 4.51954,-13.88867 0.16971,0 0.31958,-0.0139 0.44726,-0.0195 z m -14.3457,2.51953 c 0.6875,0 1.24097,0.42187 1.23047,0.9375 -0.0105,0.51562 -0.56402,1.78125 -1.23047,2.8125 -0.97984,1.5162 -1.21497,1.3368 -1.23047,-0.9375 -0.0105,-1.54688 0.54297,-2.8125 1.23047,-2.8125 z m -113.77344,3.75 c 0.67441,0 1.58115,1.41738 2.01562,3.14844 0.47047,1.87448 1.55286,3.01195 2.67579,2.8125 1.23624,-0.21958 2.01894,0.84768 2.27343,3.10156 0.21348,1.89062 -0.096,3.4375 -0.6875,3.4375 -1.91683,0 -5.0039,-3.86557 -5.0039,-6.26563 0,-1.28533 -0.5625,-2.68447 -1.25,-3.10937 -1.60587,-0.99249 -1.62176,-3.125 -0.0234,-3.125 z m 143.91992,2.5 c 1.52542,0 1.39756,0.80762 -0.80273,5.0625 -2.04828,3.96092 -3.95153,5.12075 -2.46094,1.5 0.49531,-1.20313 1.18338,-3.17188 1.5293,-4.375 0.34594,-1.20313 1.12705,-2.1875 1.73437,-2.1875 z m -136.15625,0.16406 c 0.21479,0.0629 0.60953,0.54194 1.16211,1.49219 0.72971,1.25469 1.06403,2.54535 0.74219,2.86719 -0.32183,0.32184 -0.93655,-0.33015 -1.36524,-1.44727 -0.75388,-1.96461 -0.89705,-3.01687 -0.53906,-2.91211 z m 13.75585,2.90039 c 1.09192,0.0613 2.21729,2.03706 3.66797,6.0918 1.14899,3.21154 1.6312,5.55563 1.07031,5.20898 -0.56089,-0.34665 -1.2105,-0.0599 -1.44336,0.63868 -0.53921,1.61763 -3.54101,-3.10575 -3.54101,-5.57227 0,-1.10305 -0.73192,-1.57136 -1.8086,-1.1582 -1.51733,0.58225 -1.56765,0.17451 -0.3125,-2.5293 0.76122,-1.63977 1.45171,-2.54239 2.14844,-2.66602 0.0726,-0.0129 0.14596,-0.0178 0.21875,-0.0137 z m 51.56642,0.92969 c 0.0598,-0.004 0.11311,0.0154 0.16016,0.0625 0.35912,0.35912 -0.17188,2.54698 -1.18165,4.86133 -1.00978,2.31435 -1.88335,3.54117 -1.93945,2.72656 -0.14279,-2.07419 2.06435,-7.58929 2.96094,-7.65039 z m 37.60742,0.25391 c 0.12698,-0.0302 0.24363,-0.002 0.33984,0.0937 0.38486,0.38487 7.7e-4,1.39425 -0.85351,2.24218 -1.23452,1.22532 -1.37952,1.08033 -0.70117,-0.70117 0.35205,-0.92458 0.83389,-1.54422 1.21484,-1.63476 z m -7.16602,2.25 c 0.13101,-0.003 0.20899,0.11914 0.20899,0.37695 0,0.6875 -0.54644,2.09375 -1.21289,3.125 -0.66645,1.03125 -1.21094,1.3125 -1.21094,0.625 0,-0.6875 0.54449,-2.09375 1.21094,-3.125 0.41653,-0.64453 0.7856,-0.99677 1.0039,-1.00195 z m -67.16602,0.28711 c 1.73766,0 1.9573,0.48016 1.01953,2.23242 -0.65704,1.22768 -1.39148,2.23242 -1.63086,2.23242 -0.23938,0 -0.69654,-1.00474 -1.01758,-2.23242 -0.39809,-1.52228 0.1193,-2.23242 1.62891,-2.23242 z m 23.26954,1.23242 c 0.14137,0.0331 0.34263,0.18247 0.60352,0.44336 0.72634,0.72638 1.07403,2.05913 0.77343,2.96093 -0.31206,0.93618 -0.8783,0.36799 -1.32031,-1.32226 -0.33982,-1.2995 -0.40407,-1.97691 -0.17773,-2.07617 0.034,-0.0149 0.074,-0.0169 0.12109,-0.006 z m -9.23243,2.10351 c 0.0235,-0.006 0.0524,-0.003 0.0879,0.01 0.1703,0.0603 0.48041,0.32567 0.94336,0.78515 0.85428,0.84794 1.23837,1.85732 0.85351,2.24219 -0.38487,0.38486 -1.08527,-0.30823 -1.55468,-1.54101 -0.37098,-0.97426 -0.4949,-1.4576 -0.33008,-1.4961 z m 87.79493,0.51758 c 0.11933,0.0341 0.22669,0.17811 0.31445,0.44141 0.3006,0.9018 -0.047,2.2326 -0.77343,2.95898 -0.92759,0.92759 -1.09059,0.44052 -0.54688,-1.63867 0.27626,-1.05641 0.60178,-1.67377 0.88281,-1.75977 0.0422,-0.0129 0.0833,-0.0133 0.12305,-0.002 z m -105.95704,0.61133 c 0.69812,0 1.59451,0.84375 1.99023,1.875 0.39573,1.03125 0.52316,1.875 0.28516,1.875 -0.23799,0 -1.13242,-0.84375 -1.98828,-1.875 -0.89694,-1.08074 -1.01874,-1.875 -0.28711,-1.875 z m 34.32228,0.31641 c 0.31704,-0.0386 0.64034,0.39824 1.10937,1.23632 0.67047,1.19803 1.12641,2.88553 1.01367,3.75 -0.1128,0.86448 -0.13814,2.94478 -0.0566,4.62305 0.14345,2.95559 0.20675,2.97521 1.98438,0.625 1.7894,-2.36571 1.8363,-2.35542 1.875,0.38672 0.0219,1.54687 -0.44495,2.8125 -1.03711,2.8125 -1.34027,0 -0.27724,6.03741 1.22656,6.9668 0.60541,0.37417 1.04311,2.75737 0.97461,5.29492 -0.0685,2.53755 -0.49993,5.95369 -0.95899,7.59179 -1.63043,5.8181 -3.67029,0.0584 -3.24414,-9.16015 0.25806,-5.58235 -0.005,-8.03639 -0.74023,-6.875 -0.62847,0.99333 -1.15211,3.07226 -1.16211,4.61914 -0.0195,2.86926 -2.50601,4.09432 -2.53711,1.25 -0.009,-0.85938 -0.30192,-2.96875 -0.65039,-4.6875 -0.56987,-2.81066 -0.50244,-2.87353 0.66797,-0.625 1.20506,2.31507 1.25907,2.28142 0.73242,-0.44727 -0.31279,-1.62066 -0.0571,-4.29254 0.56836,-5.9375 1.09393,-2.87724 0.33256,-3.67853 -2.95508,-3.10742 -0.56673,0.0984 -0.72576,-0.31638 -0.35156,-0.92187 0.37421,-0.60547 1.30016,-2.72908 2.05664,-4.71875 0.68041,-1.78957 1.07674,-2.62614 1.48438,-2.67578 z m 37.59179,0.46289 c 0.44971,0.0101 0.83721,0.47814 1.36914,1.27929 0.8463,1.27461 1.6193,3.7157 1.7168,5.42578 0.13641,2.39391 -0.093,2.6815 -0.99805,1.25 -0.64655,-1.02258 -1.18531,-2.87739 -1.19531,-4.12109 -0.0286,-3.3835 -2.20746,-1.37494 -3.14648,2.90039 -0.45126,2.05461 -1.33978,3.73633 -1.97266,3.73633 -0.63286,0 -1.15039,1.125 -1.15039,2.5 0,1.375 -0.62175,2.5 -1.38281,2.5 -0.76105,0 -1.05007,0.87249 -0.64063,1.93945 0.40943,1.06695 0.27051,1.64696 -0.30859,1.28906 -0.57908,-0.35788 -1.71749,0.81163 -2.53125,2.59766 -0.81378,1.78604 -1.80954,2.91703 -2.21289,2.51367 -0.40337,-0.40335 -1.81998,0.50775 -3.14844,2.02539 l -2.41602,2.75977 1.58594,-3.125 c 0.87237,-1.71875 1.44752,-3.60537 1.27735,-4.19336 -0.17018,-0.58798 0.28364,-1.78525 1.00976,-2.66016 0.9825,-1.18384 0.67412,-1.76052 -1.20508,-2.25195 -1.3888,-0.36317 -2.8444,-0.14004 -3.23633,0.49414 -0.39194,0.63417 -1.24527,0.8224 -1.89648,0.41992 -1.72795,-1.06792 -0.10979,-3.05859 2.48633,-3.05859 1.22787,0 3.16298,-1.02789 4.30078,-2.28516 3.32728,-3.6766 2.37737,-4.67771 -1.29883,-1.36914 l -3.36719,3.0293 3.05469,-3.99609 c 1.68003,-2.1977 3.78655,-3.75038 4.68164,-3.45118 0.89512,0.2992 1.28528,-0.0118 0.86524,-0.6914 -0.42003,-0.67963 -0.2076,-1.23633 0.47265,-1.23633 0.68026,0 1.41703,1.23216 1.63672,2.73828 0.34789,2.38495 0.85524,2.0466 3.93945,-2.62891 2.04037,-3.09308 2.96142,-4.34686 3.71094,-4.33007 z m -103.57422,0.89257 c 0.19959,-0.0198 0.43945,0.0438 0.69727,0.20313 0.6875,0.4249 1.25,1.02105 1.25,1.32422 0,0.30318 -0.5625,0.55078 -1.25,0.55078 -0.6875,0 -1.25,-0.59615 -1.25,-1.32422 0,-0.45505 0.22009,-0.72098 0.55273,-0.75391 z m 120.1836,0.0195 c -0.51421,0.0472 -1.64743,1.34068 -2.71875,3.15429 -1.22438,2.07271 -2.77188,3.43017 -3.43946,3.01758 -0.66758,-0.41259 -0.83619,-0.13879 -0.375,0.60742 0.46119,0.74622 0.26707,1.71076 -0.43164,2.14258 -0.69871,0.43183 -1.26767,1.73589 -1.26367,2.89844 0.005,1.54246 0.59601,1.22621 2.1875,-1.16797 1.19951,-1.80449 3.24086,-4.77522 4.53711,-6.60156 1.29625,-1.82635 2.05349,-3.6223 1.68359,-3.99219 -0.0462,-0.0462 -0.10623,-0.0653 -0.17968,-0.0586 z m -53.48243,1.05664 c -0.21831,0.005 -0.58737,0.35742 -1.0039,1.00195 -0.66645,1.03125 -1.21094,2.4375 -1.21094,3.125 0,0.6875 0.54449,0.40625 1.21094,-0.625 0.66645,-1.03125 1.21289,-2.4375 1.21289,-3.125 0,-0.25781 -0.078,-0.38007 -0.20899,-0.37695 z m -34.74805,1.13476 c 0.15325,0.0505 0.007,0.53141 -0.35352,1.4707 -0.45304,1.1806 -0.2792,2.14649 0.38672,2.14649 0.66592,0 1.21094,0.5625 1.21094,1.25 0,1.69394 -1.57728,1.49617 -3.23828,-0.40625 -1.00105,-1.14657 -0.85448,-2.03689 0.55078,-3.34961 0.83739,-0.78223 1.29011,-1.16179 1.44336,-1.11133 z m -19.38086,0.49219 2.8125,2.38086 c 1.54688,1.30967 2.8125,2.5753 2.8125,2.8125 0,1.00031 -1.00637,0.26219 -3.24414,-2.38086 l -2.38086,-2.8125 z m 21.95312,0.625 c 0.64428,0 1.17188,0.48575 1.17188,1.08008 0,0.59434 1.67894,2.98496 3.73047,5.3125 2.05151,2.32754 3.7388,4.65429 3.75,5.16992 0.011,0.51562 0.72265,0.94136 1.58203,0.94336 0.90806,0.003 1.65714,1.83569 1.78711,4.375 0.24578,4.80204 -1.401,5.92457 -2.50391,1.70703 -0.45355,-1.73436 -1.35346,-2.41089 -2.58203,-1.93945 -1.28278,0.49225 -1.66427,0.14709 -1.19336,-1.08008 0.38077,-0.99229 1.18929,-1.4966 1.79688,-1.12109 0.60759,0.37549 0.78338,-0.15419 0.39062,-1.17774 -0.39278,-1.02355 -1.49643,-1.56048 -2.45312,-1.19336 -0.95668,0.36711 -2.50353,-0.0953 -3.43555,-1.02734 -2.04129,-2.04129 -3.70521,-11.04883 -2.04102,-11.04883 z m 74.25587,0.57812 c 0.0754,0.0281 0.15745,0.14453 0.24414,0.35938 0.34676,0.85937 0.34676,2.26562 0,3.125 -0.34676,0.85937 -0.63086,0.15625 -0.63086,-1.5625 0,-1.28906 0.16063,-2.0061 0.38672,-1.92188 z m -45.08984,4.91016 c 0.2174,0.13976 0.0101,1.27983 -0.58203,2.97852 -0.77344,2.21867 -1.67132,4.0332 -1.99414,4.0332 -0.86349,0 0.9253,-5.42232 2.25781,-6.8457 0.0786,-0.084 0.14377,-0.13871 0.19922,-0.16407 0.0485,-0.0222 0.0881,-0.0219 0.11914,-0.002 z m -34.03321,0.91016 c 0.58506,-0.13713 5.22391,6.13617 7.35742,10.16406 3.79435,7.16345 1.06713,5.5432 -3.18555,-1.89258 -2.05861,-3.59947 -3.92774,-7.10742 -4.1543,-7.79492 -0.10099,-0.30647 -0.10115,-0.45697 -0.0176,-0.47656 z m 6.59375,0.36914 c -0.5845,-0.006 -0.73723,0.67594 0.0195,1.90039 0.45317,0.73324 1.42124,1.33203 2.15234,1.33203 0.82887,0 0.73398,-0.71631 -0.25195,-1.9043 -0.75006,-0.90376 -1.46532,-1.32372 -1.91992,-1.32812 z m 12.11718,1.60156 c 0.31025,-0.15043 1.32443,1.40133 2.94141,4.70313 1.66915,3.40832 2.90001,6.33046 2.73633,6.49414 -0.89991,0.8999 -3.1247,-1.98056 -4.39453,-5.68946 -1.19972,-3.50412 -1.59345,-5.35738 -1.28321,-5.50781 z m -18.36132,7.45508 c 0.10133,0.005 0.20738,0.0289 0.32031,0.0723 0.89026,0.34162 1.61914,1.15603 1.61914,1.81055 0,0.65452 0.48212,0.89281 1.07031,0.5293 0.58819,-0.36353 0.8031,0.72785 0.47852,2.42578 -0.64415,3.36966 -2.08435,3.97122 -3.6543,1.52539 -1.55655,-2.42495 -1.35405,-6.44194 0.16602,-6.36328 z m -0.15625,3.18164 c -0.25768,-0.0327 -0.4043,0.14354 -0.4043,0.53515 0,0.71043 0.37565,1.6667 0.83398,2.125 0.45834,0.45835 1.12331,0.54274 1.47852,0.1875 0.35521,-0.35518 -0.0185,-1.31145 -0.83203,-2.125 -0.44848,-0.44847 -0.8185,-0.68999 -1.07617,-0.72265 z m 11.2246,2.79687 c 0.50602,-0.0586 1.64809,0.73264 2.74024,1.93946 2.65798,2.93702 2.22776,3.16267 -1.15234,0.60547 -1.32481,-1.00229 -2.11874,-2.11173 -1.76368,-2.4668 0.0444,-0.0444 0.1035,-0.0697 0.17578,-0.0781 z m 5.17383,6.11719 c 0.19959,-0.0198 0.43946,0.0457 0.69727,0.20508 0.6875,0.4249 1.25,1.02105 1.25,1.32422 0,0.30318 -0.5625,0.55078 -1.25,0.55078 -0.6875,0 -1.25,-0.59615 -1.25,-1.32422 0,-0.45505 0.22009,-0.72293 0.55273,-0.75586 z m 43.92384,9.87891 c 1.1217,0.041 2.18142,0.82208 4.04492,2.60742 1.9199,1.83939 4.06567,3.34375 4.76758,3.34375 0.70192,0 2.49929,1.30139 3.99414,2.89258 3.35095,3.56693 3.98693,14.60742 0.8418,14.60742 -3.03915,0 -3.67058,-0.48731 -4.05469,-3.125 -0.20022,-1.375 -1.49562,-4.04688 -2.87891,-5.9375 -2.5855,-3.53379 -1.80416,-4.65249 1.31055,-1.875 1.48525,1.32444 1.50769,1.23701 0.13867,-0.57617 -0.88831,-1.1765 -2.8316,-2.50925 -4.3164,-2.96094 -1.48478,-0.4517 -3.6834,-1.68554 -4.88672,-2.74219 -1.99803,-1.75452 -2.4503,-1.61508 -5.21094,1.59766 -3.27296,3.809 -5.01265,10.11595 -4.5664,16.55664 0.30985,4.47219 0.0535,4.77617 -2.16016,2.5625 -3.55519,-3.55519 0.99463,-23.78136 5.51172,-24.50195 1.29958,-0.20731 3.63619,-1.00855 5.1914,-1.78125 0.90572,-0.45 1.60042,-0.69256 2.27344,-0.66797 z m -28.91211,0.46484 c 2.13054,-0.17219 2.26952,0.99055 1.14844,5.17383 -1.01409,3.78406 -2.13908,3.54065 -3.78516,-0.82031 -1.25591,-3.32728 -1.12236,-3.68082 1.59961,-4.20118 0.38784,-0.0741 0.73275,-0.12774 1.03711,-0.15234 z m -39.7793,0.91016 c -0.21274,-0.0754 -1.0737,0.64275 -2.81055,2.2207 -1.97973,1.79861 -4.72461,3.89178 -6.09961,4.65039 -1.375,0.75863 -1.77614,1.39707 -0.89258,1.41797 2.45855,0.0582 7.7075,-3.75456 9.23047,-6.70312 0.51087,-0.9891 0.7377,-1.52733 0.57227,-1.58594 z m 21.76367,0.22461 c 0.94996,-0.0703 4.04538,2.31095 7.17383,5.55664 7.02471,7.288 5.53318,8.38814 -2.41602,1.78125 -6.01801,-5.00181 -6.78577,-6.13786 -4.91992,-7.29102 0.0436,-0.027 0.0988,-0.0422 0.16211,-0.0469 z m 54.28907,0.80078 c 0.0442,-0.007 0.10075,-0.007 0.16992,0 0.66402,0.0664 2.47941,0.77918 5.42383,2.06445 6.29549,2.74805 8.25098,4.25156 8.95312,6.87695 1.06246,3.9727 0.48018,4.34118 -1.37695,0.8711 -0.73222,-1.36815 -1.73732,-2.35419 -2.23242,-2.19336 -0.4951,0.16084 -2.47362,-0.83037 -4.39649,-2.20117 -5.0509,-3.60077 -7.20354,-5.30962 -6.54101,-5.41797 z m -22.10742,2.00195 c 2.14185,0.71395 1.88788,4.75082 -0.44531,7.08399 -1.77005,1.77006 -6.78516,2.80271 -6.78516,1.39648 0,-1.89416 5.9727,-8.89974 7.23047,-8.48047 z m -39.68556,2.79883 c -0.66331,0 -1.82826,1.16068 -2.58789,2.58008 -1.18014,2.2051 -1.68583,2.34155 -3.48047,0.9375 -1.88305,-1.47322 -1.92345,-1.41776 -0.39062,0.53711 1.49222,1.9031 1.33322,2.49462 -1.25,4.64648 -1.62784,1.35601 -3.59395,2.48491 -4.36914,2.50781 -0.7752,0.0229 -2.18145,0.99302 -3.125,2.15625 -0.98388,1.21295 -1.08649,1.73727 -0.23829,1.22852 0.81343,-0.48791 4.03118,-1.36491 7.14844,-1.94727 6.36957,-1.18996 8.49942,0.18891 9.99219,6.4668 0.45624,1.91873 1.37562,3.15072 2.04297,2.73828 0.66734,-0.41244 1.21289,0.12739 1.21289,1.19922 0,1.07182 -0.59614,1.94922 -1.32422,1.94922 -0.72807,0 -0.90959,0.66874 -0.4043,1.48633 0.62542,1.01194 1.30877,0.6123 2.14063,-1.25196 0.93993,-2.10645 0.69497,-3.32147 -1.06445,-5.26562 -1.75356,-1.93765 -1.94565,-2.87076 -0.81836,-3.99805 1.9796,-1.9796 1.8646,-3.54345 -0.20313,-2.75 -0.9211,0.35346 -2.43512,-0.27226 -3.36328,-1.39062 -1.32858,-1.60085 -1.37013,-2.53913 -0.19922,-4.41407 1.78924,-2.865 1.96181,-7.41601 0.28125,-7.41601 z m -49.28319,4.24609 c -0.25684,-0.0157 -0.44224,0.0184 -0.53125,0.10742 -0.35605,0.35605 0.0104,0.64649 0.8125,0.64649 0.80208,0 1.45703,0.5625 1.45703,1.25 0,0.7353 -4.375,1.25 -10.625,1.25 -5.84375,0 -10.625,0.46254 -10.625,1.02734 0,0.75745 27.92704,0.98402 36.5625,0.29688 0.51563,-0.041 0.9375,-0.83989 0.9375,-1.77539 0,-1.17249 -1.34088,-1.59367 -4.31836,-1.35742 -2.37563,0.1885 -4.80682,0.64365 -5.40235,1.01171 -0.59554,0.36806 -2.67356,-0.15569 -4.61718,-1.16406 -1.45772,-0.75627 -2.8799,-1.2458 -3.65039,-1.29297 z m 152.88476,0.90821 c -0.43424,-0.0179 -0.92969,0.0616 -1.38086,0.24218 -0.99716,0.39903 -0.70033,0.69586 0.75586,0.75586 1.3177,0.0543 2.056,-0.24284 1.64063,-0.6582 -0.20769,-0.20764 -0.58138,-0.32197 -1.01563,-0.33984 z m -78.57226,3.5957 c 0.72808,0 0.97568,0.5625 0.55078,1.25 -0.4249,0.6875 -1.02104,1.25 -1.32422,1.25 -0.30317,0 -0.55078,-0.5625 -0.55078,-1.25 0,-0.6875 0.59615,-1.25 1.32422,-1.25 z m 5.69922,0 c 1.03126,0 1.52646,0.5625 1.10156,1.25 -0.4249,0.6875 -1.61524,1.25 -2.64649,1.25 -1.03126,0 -1.52841,-0.5625 -1.10351,-1.25 0.4249,-0.6875 1.61719,-1.25 2.64844,-1.25 z m -63.02149,1.77344 c -0.0812,0.0157 -0.16602,0.0485 -0.25195,0.10156 -0.6875,0.4249 -1.25,1.58355 -1.25,2.57422 0,0.99068 0.5625,1.80078 1.25,1.80078 0.6875,0 1.25,-1.15865 1.25,-2.57422 0,-1.23863 -0.42981,-2.01249 -0.99805,-1.90234 z m 110.28516,1.7207 c -0.16168,0.0872 -0.27703,0.8418 -0.29297,2.13086 -0.0255,2.0625 0.23376,3.05723 0.57617,2.21094 0.34248,-0.84629 0.3638,-2.53379 0.0469,-3.75 -0.11885,-0.45608 -0.23307,-0.64412 -0.33008,-0.5918 z m -10.61133,6.50586 c 0.72808,0 1.32422,0.5625 1.32422,1.25 0,0.6875 -0.2476,1.25 -0.55078,1.25 -0.30317,0 -0.89932,-0.5625 -1.32422,-1.25 -0.4249,-0.6875 -0.17729,-1.25 0.55078,-1.25 z"
       id="path4470"
       inkscape:connector-curvature="0" />
  </g>
</svg>
