<?xml version="1.0" encoding="UTF-8" standalone="no"?>
<!-- Created with Inkscape (http://www.inkscape.org/) -->

<svg
   xmlns:dc="http://purl.org/dc/elements/1.1/"
   xmlns:cc="http://creativecommons.org/ns#"
   xmlns:rdf="http://www.w3.org/1999/02/22-rdf-syntax-ns#"
   xmlns:svg="http://www.w3.org/2000/svg"
   xmlns="http://www.w3.org/2000/svg"
   xmlns:sodipodi="http://sodipodi.sourceforge.net/DTD/sodipodi-0.dtd"
   xmlns:inkscape="http://www.inkscape.org/namespaces/inkscape"
   width="56.117241mm"
   height="62.795135mm"
   viewBox="0 0 198.84062 222.50245"
   id="svg4527"
   version="1.1"
   inkscape:version="0.91 r13725"
   sodipodi:docname="bird3.svg">
  <defs
     id="defs4529" />
  <sodipodi:namedview
     id="base"
     pagecolor="#ffffff"
     bordercolor="#666666"
     borderopacity="1.0"
     inkscape:pageopacity="0.0"
     inkscape:pageshadow="2"
     inkscape:zoom="2.8"
     inkscape:cx="189.78979"
     inkscape:cy="140.80982"
     inkscape:document-units="px"
     inkscape:current-layer="layer1"
     showgrid="false"
     fit-margin-top="2"
     fit-margin-left="2"
     fit-margin-right="2"
     fit-margin-bottom="2"
     inkscape:window-width="1855"
     inkscape:window-height="1176"
     inkscape:window-x="65"
     inkscape:window-y="24"
     inkscape:window-maximized="1" />
  <metadata
     id="metadata4532">
    <rdf:RDF>
      <cc:Work
         rdf:about="">
        <dc:format>image/svg+xml</dc:format>
        <dc:type
           rdf:resource="http://purl.org/dc/dcmitype/StillImage" />
        <dc:title></dc:title>
      </cc:Work>
    </rdf:RDF>
  </metadata>
  <g
     inkscape:label="Layer 1"
     inkscape:groupmode="layer"
     id="layer1"
     transform="translate(870.84888,-38.253842)">
    <path
       style="fill:#3b3b3b"
       d="m -753.51493,72.656009 c -0.23789,0.01854 -0.8945,0.806656 -2.19419,2.379586 -1.45102,1.755951 -3.05085,2.777374 -3.55705,2.271117 -0.50632,-0.506257 -2.83957,0.499431 -5.18394,2.232703 -2.34436,1.733284 -4.77679,3.139789 -5.40551,3.125326 -1.85923,-0.04061 -7.65003,-6.723286 -7.67433,-8.856229 -0.0171,-1.519292 -0.33715,-1.473486 -1.41238,0.20338 -0.76514,1.193185 -1.03658,3.308554 -0.60339,4.700423 0.70185,2.255508 -0.23777,2.491402 -8.64611,2.169425 -8.78473,-0.336371 -9.46553,-0.603609 -9.86181,-3.866552 -0.23406,-1.927295 -1.2909,-3.78733 -2.35015,-4.135456 -1.19463,-0.392614 -1.81711,0.387349 -1.64067,2.056429 0.55133,5.213852 -0.0848,6.30715 -3.66546,6.30715 -2.20749,0 -3.61571,0.82253 -3.61571,2.112928 0,1.242149 -2.38544,2.756754 -5.78514,3.672206 -3.93957,1.060809 -5.78514,2.360821 -5.78514,4.076719 0,1.472861 -1.80577,3.203069 -4.34787,4.162592 -2.39193,0.902839 -3.98226,1.044818 -3.53206,0.316366 0.4502,-0.728453 0.1695,-1.324252 -0.62595,-1.324252 -2.16052,0 -3.32656,2.560211 -1.64066,3.602151 3.95934,2.447039 -0.33045,13.753249 -5.21796,13.753249 -1.10208,0 -1.5466,0.91884 -1.05984,2.18751 0.46177,1.20332 0.20433,2.9931 -0.57169,3.97728 -1.3772,1.74664 -1.65489,3.444 -1.88699,11.52055 -0.0624,2.1696 -0.55769,3.79667 -1.10057,3.61571 -1.49406,-0.498 -1.98129,0.86562 -1.17275,3.28577 1.28152,3.83556 1.72315,14.24196 0.57399,13.53179 -1.96682,-1.21563 -1.17854,1.52596 1.88237,6.5467 2.56895,4.21367 2.64114,4.76126 0.53327,3.95242 -2.28952,-0.87862 -2.28651,-0.69824 0.0204,2.82252 2.20216,3.36086 2.2326,4.02151 0.28474,6.17381 -1.3712,1.51522 -1.73774,3.21249 -0.98521,4.57613 1.55887,2.82475 -2.67712,12.63572 -5.81001,13.45496 -2.20437,0.57648 -5.26355,10.16527 -6.30035,19.74856 -0.21139,1.95459 -2.77074,6.29396 -5.68575,9.64489 -2.9149,3.35095 -5.2993,6.76562 -5.2993,7.58848 0,2.25152 9.96408,0.54861 12.67986,-2.16717 1.82359,-1.82355 4.19584,-2.17086 10.74091,-1.57736 4.61931,0.41889 8.39747,0.17091 8.39747,-0.54913 0,-0.72001 0.97619,-1.30843 2.16942,-1.30843 1.19313,0 2.16943,-0.6468 2.16943,-1.43726 0,-1.58489 4.02507,-1.29571 6.89472,0.49492 1.00731,0.62854 1.52404,1.6369 1.1502,2.24174 -0.77128,1.24808 4.47388,1.12823 5.73319,-0.13108 0.45101,-0.45096 -0.86372,-1.24381 -2.92196,-1.7604 -2.05812,-0.51658 -3.39715,-1.49729 -2.9761,-2.17846 1.07002,-1.7314 -5.98403,-2.88357 -7.62238,-1.24516 -1.79467,1.79471 -8.93537,2.50592 -8.93537,0.89036 0,-0.70439 -1.56731,-0.25364 -3.4823,1.0011 -2.3107,1.51409 -3.79714,1.76905 -4.42251,0.75705 -0.54022,-0.87401 0.28567,-1.52538 1.93663,-1.52538 1.61023,0 3.2855,-1.27555 3.79875,-2.89257 0.50493,-1.59092 1.50449,-2.89257 2.22138,-2.89257 0.7169,0 0.89044,1.08058 0.38425,2.39993 -0.798,2.07936 -0.26265,2.23388 4.0224,1.16381 2.71867,-0.67893 10.38084,-1.24763 17.02773,-1.26324 11.3486,-0.0267 11.59064,-0.64734 1.15251,-2.96036 -3.60807,-0.79954 -4.00677,-1.39755 -3.21121,-4.82698 0.6764,-2.91565 0.53316,-3.36051 -0.56034,-1.74458 -0.80749,1.19319 -1.52716,1.84402 -1.60005,1.44629 -0.0731,-0.39773 -0.35475,-1.88805 -0.62595,-3.3129 -0.3669,-1.9265 0.17343,-2.37906 2.10845,-1.76491 1.55967,0.49503 2.92727,-0.0224 3.41461,-1.29262 0.44731,-1.16549 0.071,-2.36796 -0.83838,-2.6711 -0.92909,-0.30973 -0.54449,-0.97689 0.87899,-1.52312 1.39319,-0.5346 2.20682,-0.44435 1.80787,0.20113 -0.39894,0.64549 1.35534,1.17615 3.90045,1.17961 9.54976,0.0123 14.12359,1.067 13.35105,3.08014 -0.52679,1.37292 0.0633,1.69576 1.98858,1.08471 1.56766,-0.49755 5.43051,0.54429 9.03025,2.43609 l 6.29133,3.30611 -6.86985,0.44067 c -3.7785,0.24245 -6.86984,1.05353 -6.86984,1.80107 0,1.42489 7.30593,0.69032 15.90911,-1.59994 2.78405,-0.74115 6.68902,-1.30825 8.67771,-1.25873 l 3.61571,0.0904 -3.25414,1.56832 c -4.35701,2.10131 -4.1027,4.55178 0.72314,6.96928 6.87644,3.44474 7.99529,4.58212 5.85294,5.94106 -1.40996,0.89443 -1.26834,1.1946 0.56949,1.21126 1.34504,0.0122 2.82268,-0.58457 3.28121,-1.32651 0.45853,-0.74194 4.36812,-2.08369 8.68905,-2.98071 4.32091,-0.89703 10.16737,-3.19735 12.99166,-5.11396 2.82431,-1.91657 5.13431,-2.81145 5.13431,-1.98638 0,0.90163 1.2983,1.08322 3.25414,0.45422 1.78969,-0.57561 4.68261,-1.20944 6.42694,-1.40786 1.74421,-0.19841 3.78498,-0.73841 4.53543,-1.20224 0.75056,-0.46381 1.68741,0.38944 2.08137,1.896 0.58303,2.22933 2.33731,2.83022 9.43012,3.23605 4.79322,0.27427 8.49825,0.15044 8.23259,-0.27569 -0.26554,-0.42615 0.7707,-0.77511 2.30272,-0.77511 2.01553,0 2.55923,0.71386 1.96601,2.58296 -1.16697,3.67679 0.0635,3.22471 5.38516,-1.97733 l 4.66652,-4.56032 -3.92753,0.75027 c -2.15959,0.41284 -4.27475,0.18709 -4.70042,-0.50169 -0.42579,-0.68878 0.40276,-1.27069 1.84175,-1.29488 2.42815,-0.0408 2.44006,-0.14778 0.14695,-1.48469 -1.35905,-0.7923 -2.11945,-2.3608 -1.6881,-3.48465 0.43584,-1.13591 -0.55295,-2.87908 -2.22821,-3.9253 -2.35247,-1.46913 -3.01463,-3.35738 -3.01463,-8.6099 0,-4.57426 -0.67767,-6.99077 -2.11747,-7.54327 -1.42454,-0.54669 -2.09156,-2.84509 -2.03602,-7.02353 0.045,-3.41651 -0.585,-9.09418 -1.40116,-12.61655 -1.12776,-4.86774 -1.00592,-7.7939 0.51071,-12.19624 1.09756,-3.18559 1.69434,-6.27932 1.32653,-6.87437 -0.36782,-0.59506 -0.0955,-1.43552 0.6057,-1.86887 0.70128,-0.43335 1.08228,-2.55526 0.84509,-4.71624 -0.23719,-2.16099 0.49707,-6.15193 1.63164,-8.86754 2.18829,-5.23725 1.72432,-7.52293 -1.5231,-7.52293 -1.96869,0 -2.45973,-1.066 -4.3163,-9.3353 -1.56742,-6.9814 -13.85192,-22.570478 -18.52145,-23.504372 -2.21791,-0.443592 -4.98655,-2.167632 -6.15122,-3.830395 -1.16466,-1.662764 -2.11747,-2.226629 -2.11747,-1.254194 0,2.859129 -5.52655,2.025769 -8.89233,-1.340068 -2.47164,-2.471665 -3.6274,-2.781956 -5.65405,-1.516343 -1.41423,0.883228 -4.90614,1.208122 -7.85297,0.729922 -4.50558,-0.731183 -5.19401,-1.321046 -4.54665,-3.907233 0.37568,-1.500847 0.55641,-2.251249 0.31853,-2.23269 z m -23.13372,19.836685 c 0.36736,0.03586 0.58303,0.186247 0.58303,0.456482 0,0.72061 -0.78099,1.310694 -1.73554,1.310694 -1.34145,0 -1.34261,0.388402 0,1.731028 1.34262,1.342653 2.18921,1.100183 3.78521,-1.082457 1.13112,-1.546924 2.52892,-2.34105 3.105,-1.764919 0.57609,0.57612 0.22435,2.03947 -0.78191,3.251872 l -0.005,0 c -2.19824,2.648717 -7.37084,2.796377 -9.57486,0.273437 -1.2025,-1.37657 -0.76143,-2.213354 1.80785,-3.425875 1.16825,-0.551311 2.20344,-0.809964 2.81574,-0.750262 z m -29.83185,11.651626 c 3.30343,-0.0407 5.25082,0.76273 6.26646,2.54681 0.63613,1.11746 2.00016,2.03158 3.03049,2.03158 1.03044,0 3.05038,1.30165 4.49019,2.89256 1.43969,1.59091 3.35422,2.89257 4.25531,2.89257 0.90109,0 3.7652,1.78976 6.36364,3.97727 3.73466,3.14405 5.09416,5.79521 6.4856,12.65499 1.86502,9.19524 1.65721,13.73969 -0.62815,13.73969 -0.80112,0 -0.67455,-1.38002 0.30048,-3.25413 0.93118,-1.78978 1.12104,-2.71568 0.42035,-2.05643 -0.7007,0.65924 -2.57936,3.91208 -4.17385,7.22689 -1.59463,3.3148 -4.52653,6.82068 -6.51511,7.79186 -1.9887,0.97117 -3.61571,2.46204 -3.61571,3.31288 0,0.85085 -0.9763,2.16543 -2.16943,2.91969 -2.91234,1.841 -14.53549,1.70517 -17.82538,-0.2079 -1.45172,-0.84418 -3.03223,-1.14165 -3.51402,-0.65987 -1.16015,1.16008 -9.03256,-6.43422 -9.03256,-8.71385 0,-0.97806 -0.67871,-2.00549 -1.50958,-2.28242 -0.83074,-0.27694 -1.49313,-1.79479 -1.47115,-3.37392 0.13814,-9.96992 0.42185,-12.30943 1.58419,-13.02784 0.71586,-0.44239 0.9291,-2.66277 0.47451,-4.93546 -0.61207,-3.06066 -0.007,-4.95096 2.3299,-7.28792 1.83262,-1.83263 2.79098,-4.10116 2.28698,-5.4145 -0.96982,-2.52734 6.89392,-10.42007 10.66629,-10.70476 0.52854,-0.04 1.0286,-0.062 1.50055,-0.0678 z m 58.35072,0.0474 c 0.47993,0.0378 0.89311,0.15418 1.22032,0.36157 1.06932,0.67772 3.67332,1.24262 5.78744,1.2542 4.90522,0.0282 17.33215,6.4448 21.7123,11.21095 l 3.36938,3.66768 -3.61571,-1.83949 -3.61571,-1.83948 3.48462,3.7897 c 2.93816,3.19481 3.50579,5.34654 3.61571,13.71033 0.16372,12.42248 -1.93003,16.48772 -10.91493,21.18578 -8.79525,4.59894 -19.08643,4.32427 -31.9108,-0.85193 -4.34649,-1.75434 -8.98327,-7.82567 -7.63822,-10.00196 0.47773,-0.77299 0.31934,-1.40562 -0.35256,-1.40562 -1.27908,0 -1.81536,-3.35872 -1.78066,-11.14316 0.0269,-6.00722 3.4049,-15.49245 7.26752,-20.40841 3.37782,-4.29891 10.01199,-7.95446 13.3713,-7.69016 z m -56.77786,9.02571 -5.14113,0.15366 6.17609,1.38302 c 5.88719,1.31767 7.25861,4.09252 2.0226,4.09252 -1.36275,0 -4.90336,2.00078 -7.8687,4.44506 -5.10713,4.20972 -5.39199,4.89133 -5.39199,12.93069 0,4.66787 0.67721,8.90503 1.50505,9.41666 0.82786,0.51161 1.10959,2.1776 0.62596,3.70158 -0.51129,1.61083 -0.19681,2.77054 0.75033,2.77054 0.90284,0 1.1575,-0.8059 0.5717,-1.80786 -0.58142,-0.99431 0.19323,-0.72744 1.722,0.59207 1.52878,1.31953 4.40654,2.69563 6.39524,3.05755 1.98858,0.36192 4.26654,0.73175 5.06199,0.82257 3.12941,0.35744 13.41214,-5.40833 16.38373,-9.18617 4.45317,-5.66123 4.27834,-14.97112 -0.37742,-19.99488 -6.1798,-6.668 -16.8359,-12.54571 -22.43545,-12.37701 z m 44.11617,1.76265 c -0.23095,-0.0137 -0.50852,0.0666 -0.8068,0.25084 -0.79546,0.49162 -1.44628,1.54572 -1.44628,2.34118 0,0.79545 0.65082,1.04301 1.44628,0.5514 0.79545,-0.49163 1.44628,-1.54346 1.44628,-2.33891 0,-0.49717 -0.25466,-0.78178 -0.63948,-0.80451 z m 16.81749,1.26551 c -4.45512,0.032 -9.70872,0.59317 -12.24816,1.65418 -5.36849,2.2431 -9.71498,8.98648 -9.71498,15.07299 0,5.96047 5.84056,14.71524 10.7703,16.14414 11.04636,3.20185 25.51152,-3.60702 27.56975,-12.97814 1.02004,-4.64423 -3.55785,-14.95302 -7.27434,-16.37918 -1.27747,-0.49021 -2.01346,-1.39149 -1.63604,-2.00217 0.64724,-1.04739 -3.01128,-1.54393 -7.46653,-1.51182 z m 4.50385,5.4936 c 2.41864,0 5.35125,2.93261 5.35125,5.35125 0,1.9466 -4.56806,2.61363 -6.26646,0.91523 -1.69839,-1.69836 -1.03137,-6.26648 0.91521,-6.26648 z m -64.68498,1.48922 c 1.23247,-0.1054 2.13322,0.69748 1.79201,2.48806 -0.26543,1.39204 -1.99136,2.74552 -3.83497,3.00783 -2.98663,0.42494 -3.17661,0.14908 -1.74225,-2.531 0.98787,-1.84589 2.55263,-2.85948 3.78521,-2.96489 z m -14.51942,6.31847 c -0.44071,0.10471 -0.99828,0.82169 -1.40556,1.89146 -0.78481,2.06124 -0.61704,2.22901 0.81131,0.81129 0.98845,-0.98109 1.43055,-2.14898 0.98521,-2.59428 -0.11131,-0.1113 -0.24402,-0.14339 -0.39096,-0.10841 z m 8.71161,0.87002 c 0.35081,0 0.63729,0.65083 0.63729,1.44629 0,0.79545 -0.6897,1.44628 -1.53213,1.44628 -0.84243,0 -1.12892,-0.65083 -0.63729,-1.44628 0.49162,-0.79546 1.18144,-1.44629 1.53213,-1.44629 z m 36.98877,17.47744 c 0.55409,-0.007 1.2733,0.4779 2.19198,1.39656 1.04873,1.04922 1.06296,3.50712 0.0453,7.95456 -2.01647,8.81201 -3.8779,8.08294 -3.8779,-1.51859 0,-5.41525 0.42163,-7.8161 1.64067,-7.83253 z m 11.29003,1.32425 c -0.84243,0 -1.12891,0.65083 -0.63729,1.44628 0.49162,0.79546 1.18144,1.44629 1.53214,1.44629 0.35081,0 0.63728,-0.65083 0.63728,-1.44629 0,-0.79545 -0.6897,-1.44628 -1.53213,-1.44628 z m -38.0825,19.65138 c 1.60757,-0.17153 4.925,0.9055 5.7355,2.21688 0.82091,1.32818 0.12438,1.37594 -4.08581,0.2757 -1.39213,-0.36378 -2.53099,-1.20396 -2.53099,-1.86661 0,-0.37214 0.34548,-0.56879 0.8813,-0.62597 z m 9.96582,0.59659 c 1.28708,0 1.9379,0.65082 1.44628,1.44629 -0.49162,0.79545 -1.14245,1.44627 -1.44628,1.44627 -0.30383,0 -0.95466,-0.65082 -1.44628,-1.44627 -0.49163,-0.79547 0.1592,-1.44629 1.44628,-1.44629 z m -16.75201,3.07109 c 0.50249,0.0207 0.93488,0.15292 1.17507,0.39321 0.48064,0.48058 -0.3736,0.82428 -1.89821,0.76157 -1.68487,-0.0694 -2.02838,-0.41287 -0.8746,-0.87455 0.52205,-0.20896 1.09535,-0.30091 1.59774,-0.28023 z m 9.76924,3.80554 c 2.01809,-0.16619 4.94259,2.50347 4.28678,5.05748 -0.36423,1.4185 -0.0261,2.14739 0.76838,1.65644 1.46838,-0.90751 8.43589,4.80019 8.43589,6.91052 0,1.90519 -5.3921,1.38059 -7.50263,-0.72992 -1.05821,-1.05823 -2.63478,-1.68812 -3.50267,-1.39883 -2.12071,0.70691 -5.39116,-3.39601 -4.21909,-5.29249 0.51314,-0.8303 2.03335,-1.52059 3.3784,-1.53216 2.04747,-0.0185 2.10417,-0.23677 0.34584,-1.34911 -1.1553,-0.73071 -2.61304,-1.01252 -3.2384,-0.62596 -0.6255,0.38656 -0.76214,-0.27861 -0.3028,-1.47567 0.30499,-0.79459 0.87761,-1.1649 1.5503,-1.2203 z m 12.21659,1.80107 c 0.79545,0 1.04294,0.65083 0.55131,1.44628 -0.49162,0.79546 -1.54347,1.44629 -2.33892,1.44629 -0.79546,0 -1.04526,-0.65083 -0.55364,-1.44629 0.49162,-0.79545 1.54578,-1.44628 2.34125,-1.44628 z m 35.53784,1.46888 c 0.94737,-0.0122 2.15288,0.67345 2.67794,1.52312 0.52517,0.84965 1.8657,1.19533 2.97841,0.76834 1.11272,-0.427 2.02249,-0.22123 2.02249,0.45648 0,0.6777 -1.46445,1.62425 -3.25413,2.10389 -5.38539,1.44322 -7.95908,1.03599 -8.89685,-1.40786 -0.5755,-1.49959 -1.77927,-1.98037 -3.40779,-1.36042 -1.96278,0.74725 -2.13738,0.57271 -0.78644,-0.78867 1.35373,-1.36422 2.57058,-1.19974 5.55004,0.75251 2.09849,1.375 4.22765,2.08643 4.73212,1.58188 0.50458,-0.50453 -0.0389,-1.52207 -1.20898,-2.26208 -1.299,-0.8215 -1.45854,-1.35411 -0.40681,-1.36719 z m -18.52145,2.41349 c 5.16554,-0.0315 10.29118,1.55023 10.29118,3.40554 0,0.57128 -1.95169,1.84733 -4.33886,2.83608 -3.49283,1.44686 -4.78129,1.43483 -6.59181,-0.0678 -1.83898,-1.52596 -2.16781,-1.52521 -1.80566,0.005 0.24379,1.02954 -0.37071,2.16869 -1.36494,2.53326 -0.99436,0.3646 -1.80786,-0.0789 -1.80786,-0.98754 0,-0.90864 -0.48815,-1.35135 -1.08471,-0.98301 -0.59668,0.36834 -1.17369,-0.83388 -1.28361,-2.67111 -0.17332,-2.89459 0.59877,-3.4211 5.78514,-3.95243 0.72476,-0.0743 1.46318,-0.11304 2.20113,-0.11751 z m -49.20536,0.45197 4.02935,1.53215 c 2.21652,0.84271 4.70147,2.06148 5.52296,2.70726 0.82149,0.64579 3.93424,1.95887 6.91728,2.91969 2.98294,0.96081 5.42357,2.34863 5.42357,3.08239 0,0.73378 -0.16279,1.25828 -0.36157,1.16607 -0.64701,-0.3002 -4.58704,-1.06723 -10.0629,-1.95926 -3.69728,-0.6023 -6.31366,-2.20652 -8.41784,-5.16143 l -3.05085,-4.28687 z m 96.98015,1.62932 c 0.5025,0.0207 0.93488,0.15291 1.17508,0.39321 0.48063,0.48058 -0.37361,0.82439 -1.89822,0.76157 -1.68486,-0.0694 -2.02839,-0.41288 -0.87459,-0.87455 0.52204,-0.20895 1.09535,-0.30091 1.59773,-0.28023 z m -101.7913,1.84402 c 0.14695,-0.0349 0.27966,-0.002 0.39096,0.10841 0.44534,0.44529 0.004,1.61319 -0.98521,2.59428 -1.42835,1.41772 -1.59612,1.24995 -0.8113,-0.81129 0.40727,-1.06977 0.96484,-1.7867 1.40555,-1.89146 z m 97.87951,0.97624 c 0.18744,0.006 0.34295,0.0627 0.45425,0.174 0.44534,0.44529 -0.3566,1.25342 -1.78298,1.79655 -2.06125,0.78487 -2.22901,0.61936 -0.8113,-0.80901 0.73587,-0.74132 1.57806,-1.17809 2.14003,-1.16154 z m -102.06459,0.32766 c 0.37638,0.038 0.0535,0.55064 -0.90167,1.70165 -2.08276,2.50965 -2.91976,2.77283 -2.91976,0.91297 0,-0.71035 1.06944,-1.70228 2.37515,-2.20333 0.74431,-0.28563 1.22032,-0.43402 1.44628,-0.41129 z m 78.06542,0.3435 c 3.3076,0.0557 4.27105,0.6528 4.27105,2.33891 0,1.35137 -0.46721,2.16918 -1.03727,1.8169 -0.57007,-0.35231 -1.44385,0.0209 -1.94346,0.82935 -1.04942,1.69792 -8.80856,1.78694 -13.0007,0.14915 -2.72225,-1.0636 -2.68742,-1.21096 0.72314,-3.05754 1.97099,-1.06708 6.21092,-1.99784 9.42109,-2.06772 0.57226,-0.0125 1.09363,-0.017 1.56615,-0.01 z m 7.78275,0.66891 c 0.79545,0 1.44627,0.65082 1.44627,1.44627 0,0.79547 -0.65082,1.44629 -1.44627,1.44629 -0.79546,0 -1.44629,-0.65082 -1.44629,-1.44629 0,-0.79545 0.65083,-1.44627 1.44629,-1.44627 z m -37.50839,4.94448 c 5.80041,-0.0183 13.05613,0.71062 15.09099,1.89146 2.66267,1.54511 2.70721,1.86604 0.56047,4.04056 -1.28257,1.29922 -4.86206,2.64711 -7.95456,2.99425 -8.40962,0.94404 -19.8289,-5.11599 -15.12269,-8.0246 0.98937,-0.61149 3.94546,-0.8907 7.42579,-0.90167 z m 39.95353,0.9559 c 0.94738,-0.0629 2.09816,0.49112 2.55587,1.23159 0.45772,0.7405 0.0702,1.81757 -0.86106,2.39316 -1.00928,0.62376 -1.30848,0.42216 -0.73888,-0.49942 0.52552,-0.85043 0.13827,-1.87729 -0.86106,-2.28015 -1.30096,-0.52428 -1.3278,-0.76349 -0.0949,-0.84518 z m -90.18714,0.52654 c 0.4398,0.0225 0.54948,0.30792 0.2328,0.82031 -0.48595,0.78635 -1.49777,1.43046 -2.24625,1.43046 -2.08045,0 -1.62192,-1.0362 0.88362,-1.99767 0.48248,-0.18521 0.86603,-0.26661 1.12983,-0.2531 z m 2.95367,1.30843 c 0.47218,-0.0944 1.44026,0.57073 2.32076,1.63159 1.14071,1.37453 1.25064,2.20333 0.29158,2.20333 -1.74793,0 -3.78487,-2.74378 -2.78185,-3.74678 0.0455,-0.0455 0.10205,-0.0747 0.16951,-0.0882 z m 79.39415,0.64631 c 1.84546,0.009 3.22707,0.40765 3.52534,1.26777 0.375,1.0813 -0.48733,1.41182 -2.38636,0.91522 -3.18136,-0.83198 -4.19527,1.71865 -1.16837,2.94003 0.99423,0.4012 0.39593,0.78246 -1.32873,0.84517 -1.72466,0.0629 -4.00262,0.39234 -5.06199,0.73443 -1.05938,0.34211 -3.14203,0.14451 -4.63043,-0.44066 -2.51155,-0.98743 -2.45127,-1.23131 0.8429,-3.38974 2.7705,-1.81525 7.13191,-2.88578 10.20764,-2.87222 z m -63.70879,2.16492 c -1.37305,0.0436 -1.76493,0.58506 -1.76493,1.76716 0,1.38556 -0.67281,1.90434 -1.66995,1.28811 -1.10357,-0.68211 -1.27319,-0.39199 -0.50168,0.85647 0.93753,1.51684 1.48285,1.4574 2.76819,-0.30056 1.10462,-1.51047 3.16494,-1.96891 6.64839,-1.48018 6.62687,0.92968 5.16092,-0.44154 -1.82138,-1.7039 -1.65791,-0.29974 -2.83484,-0.45331 -3.65864,-0.4271 z m -19.30338,2.46997 c 0.78295,0 2.39354,0.96977 3.5796,2.15587 1.39827,1.39825 2.34275,1.59716 2.68685,0.56494 0.33774,-1.01329 1.18249,-0.80703 2.32308,0.56722 3.18552,3.83833 -1.58061,3.9677 -6.00428,0.16271 -2.20575,-1.89736 -3.36833,-3.45074 -2.58525,-3.45074 z m 90.86283,2.23045 c 0.48178,0.0104 0.84578,0.1069 1.0485,0.30958 0.46235,0.46234 -0.29887,2.16999 -1.69262,3.79424 -2.52995,2.94827 -2.52834,2.94902 1.80335,0.39322 l 4.33884,-2.56039 -3.40547,2.97166 c -1.87265,1.63386 -4.01616,2.59078 -4.76371,2.12876 -0.74756,-0.46204 -2.79434,0.0643 -4.54908,1.16832 -1.75487,1.10402 -5.14333,2.06431 -7.52971,2.13327 -2.38636,0.069 -3.2303,-0.16871 -1.87565,-0.5288 1.35476,-0.36009 2.84663,-1.86358 3.31523,-3.34001 0.74489,-2.34718 9.93724,-6.54363 13.31032,-6.46985 z m -68.81834,0.29376 c -0.85921,-0.0498 -0.77937,0.35439 -0.0813,1.19545 0.94286,1.13603 2.61048,2.06548 3.70619,2.06548 1.09582,0 1.9931,0.89736 1.9931,1.99315 0,2.93495 3.9288,5.74261 10.6709,7.62689 7.72119,2.15794 8.13077,2.19268 8.13077,0.66213 0,-0.70909 2.68489,-2.36388 5.96599,-3.67672 3.28109,-1.31284 5.58693,-2.76751 5.12296,-3.23155 -0.46408,-0.46401 -3.48739,0.21454 -6.71838,1.5073 -7.56823,3.02826 -13.63302,2.97991 -18.40171,-0.14463 l -3.80778,-2.49257 3.32414,-0.78642 c 2.72943,-0.64436 1.98083,-1.21386 -4.1874,-3.18635 -3.05894,-0.97823 -4.85812,-1.48223 -5.71744,-1.53216 z m 81.63369,0.36835 c 1.24021,0 1.85205,0.65083 1.36042,1.44629 -0.49162,0.79545 -1.50679,1.44629 -2.25527,1.44629 -0.74849,0 -1.36043,-0.65084 -1.36043,-1.44629 0,-0.79546 1.01518,-1.44629 2.25528,-1.44629 z m 26.37893,0.81128 c 0.40705,0.10182 0.36909,0.78356 -0.37291,1.98413 -0.52436,0.84838 -1.59068,1.54344 -2.37051,1.54344 -0.77984,0 -0.57828,-0.90958 0.44742,-2.02252 1.0382,-1.12653 1.88896,-1.6068 2.296,-1.50505 z m -10.5692,1.24968 c 0.45563,-0.037 1.14765,0.19202 2.01797,0.72992 1.24345,0.76849 1.39202,1.51464 0.42034,2.11519 -0.82542,0.51014 -1.93755,0.22183 -2.46991,-0.63953 -0.83027,-1.34332 -0.72776,-2.14396 0.0316,-2.20558 z m -13.69446,4.55354 c -0.37465,-0.0209 -0.87877,0.0405 -1.47567,0.1966 -1.59207,0.41633 -2.89488,1.008 -2.89488,1.31296 0,1.14122 4.20001,0.50254 4.97845,-0.75704 0.27861,-0.45079 0.0164,-0.71768 -0.6079,-0.75252 z m -117.81797,0.61692 c 0.35069,0 0.63729,0.65083 0.63729,1.44629 0,0.79545 -0.6897,1.44628 -1.53214,1.44628 -0.84243,0 -1.12891,-0.65083 -0.63729,-1.44628 0.49162,-0.79546 1.18133,-1.44629 1.53214,-1.44629 z m -13.01876,7.70371 c 0.38483,0.0226 0.63949,0.30735 0.63949,0.80451 0,0.79546 -0.65082,1.84728 -1.44627,2.33891 -0.79547,0.49162 -1.44629,0.24406 -1.44629,-0.55139 0,-0.79546 0.65082,-1.84956 1.44629,-2.34118 0.29827,-0.18436 0.57584,-0.26447 0.80678,-0.25085 z m 7.87091,2.56491 c -0.47866,0 -0.95756,0.23448 -1.42592,0.7028 -0.93661,0.93663 -0.44742,1.42595 1.42592,1.42595 1.87323,0 2.36253,-0.48932 1.42593,-1.42595 -0.46826,-0.46832 -0.94727,-0.7028 -1.42593,-0.7028 z"
       id="path4495"
       inkscape:connector-curvature="0" />
  </g>
</svg>
