<?xml version="1.0" encoding="UTF-8" standalone="no"?>
<!-- Created with Inkscape (http://www.inkscape.org/) -->

<svg
   xmlns:dc="http://purl.org/dc/elements/1.1/"
   xmlns:cc="http://creativecommons.org/ns#"
   xmlns:rdf="http://www.w3.org/1999/02/22-rdf-syntax-ns#"
   xmlns:svg="http://www.w3.org/2000/svg"
   xmlns="http://www.w3.org/2000/svg"
   xmlns:sodipodi="http://sodipodi.sourceforge.net/DTD/sodipodi-0.dtd"
   xmlns:inkscape="http://www.inkscape.org/namespaces/inkscape"
   width="56.117241mm"
   height="62.795135mm"
   viewBox="0 0 198.84062 222.50245"
   id="svg4527"
   version="1.1"
   inkscape:version="0.91 r13725"
   sodipodi:docname="bird2.svg">
  <defs
     id="defs4529" />
  <sodipodi:namedview
     id="base"
     pagecolor="#ffffff"
     bordercolor="#666666"
     borderopacity="1.0"
     inkscape:pageopacity="0.0"
     inkscape:pageshadow="2"
     inkscape:zoom="2.8"
     inkscape:cx="189.78979"
     inkscape:cy="140.80982"
     inkscape:document-units="px"
     inkscape:current-layer="layer1"
     showgrid="false"
     fit-margin-top="2"
     fit-margin-left="2"
     fit-margin-right="2"
     fit-margin-bottom="2"
     inkscape:window-width="1855"
     inkscape:window-height="1176"
     inkscape:window-x="65"
     inkscape:window-y="24"
     inkscape:window-maximized="1" />
  <metadata
     id="metadata4532">
    <rdf:RDF>
      <cc:Work
         rdf:about="">
        <dc:format>image/svg+xml</dc:format>
        <dc:type
           rdf:resource="http://purl.org/dc/dcmitype/StillImage" />
        <dc:title></dc:title>
      </cc:Work>
    </rdf:RDF>
  </metadata>
  <g
     inkscape:label="Layer 1"
     inkscape:groupmode="layer"
     id="layer1"
     transform="translate(870.84888,-38.253842)">
    <path
       style="fill:#3b3b3b"
       d="m -690.48327,68.412708 c -0.34985,-0.09341 -1.71985,0.581821 -4.34604,2.092421 -12.38035,7.121139 -16.29228,8.703753 -22.14208,8.96373 -3.25963,0.14487 -7.56063,1.10866 -9.55782,2.141484 -4.97579,2.573042 -12.1911,3.804167 -27.25044,4.650973 -7.03157,0.395382 -13.15837,0.949963 -13.61471,1.231968 -1.68692,1.042623 -42.08289,0.571549 -49.12441,-0.573046 -4.00963,-0.651753 -11.58017,-1.739094 -16.82343,-2.416615 -5.24334,-0.677523 -12.27205,-1.611497 -15.61952,-2.07489 -4.23878,-0.586765 -7.47318,-0.368904 -10.65483,0.7185 -6.44,2.201069 -7.47094,3.68966 -1.61925,2.337756 6.40088,-1.478819 20.53686,-0.605814 22.98502,1.419475 1.04584,0.865156 3.0781,4.095453 4.51604,7.179747 2.22087,4.76352 2.61057,7.380819 2.59712,17.384209 -0.009,6.47702 -0.46439,13.71806 -1.01467,16.08915 -1.10218,4.74977 -7.90591,13.49785 -13.21692,16.99692 -6.08524,4.00915 -7.63147,5.14571 -5.91799,4.34781 1.01362,-0.472 0.73498,0.29131 -0.70098,1.92067 -2.87954,3.26729 -4.92036,7.07564 -4.86653,9.0794 0.0218,0.81163 0.76049,0.21379 1.64204,-1.32835 1.84331,-3.22446 2.12029,-2.07224 0.69572,2.89503 -1.10012,3.83588 1.25873,33.2519 3.18593,39.72431 2.0286,6.81344 10.50231,28.49154 12.16547,31.12334 l 0,0.002 c 1.80347,2.85395 4.17317,3.44104 3.15264,0.78159 -0.43634,-1.13722 -0.21801,-1.46221 0.63087,-0.93755 0.85956,0.53118 1.0638,0.1909 0.60459,-1.00591 -0.48469,-1.26289 -0.20948,-1.62346 0.91128,-1.19341 1.3832,0.53077 1.37806,-0.136 -0.0438,-4.82271 -2.15448,-7.10122 -2.14526,-7.1275 1.1934,-3.19646 1.98104,2.33252 2.49566,2.61305 1.67709,0.91478 -1.51061,-3.13455 -1.49545,-4.04627 0.0525,-3.08955 0.86693,0.53576 0.8561,0.0559 -0.0386,-1.61575 -0.91628,-1.71121 -0.92651,-2.37806 -0.0368,-2.37806 0.72624,0 0.94209,-0.92583 0.52398,-2.24313 -0.39156,-1.23372 -0.22552,-2.24312 0.36801,-2.24312 0.6541,0 0.7295,-1.54586 0.19277,-3.92547 -1.01327,-4.49279 0.69503,-5.45123 1.80852,-1.01467 0.47079,1.87556 1.02684,2.4317 1.56142,1.56669 0.57908,-0.93704 1.38031,-0.55449 2.65494,1.26526 2.44447,3.49003 2.31301,1.86489 -0.26462,-3.2648 -1.14999,-2.28865 -2.6641,-8.0921 -3.36467,-12.89796 -1.59836,-10.96532 -1.60154,-10.88966 0.34171,-10.88966 0.88883,0 1.98112,-0.59088 2.42714,-1.31258 0.54015,-0.87396 0.20796,-1.08102 -0.99714,-0.61861 -1.3552,0.52004 -1.6316,0.21649 -1.09702,-1.21094 0.63121,-1.68535 0.48759,-1.72194 -1.24249,-0.31369 -1.83021,1.48972 -1.90657,1.20071 -1.19165,-4.48625 0.84431,-6.71567 0.8194,-6.30763 0.57831,-9.44213 -0.15622,-2.03031 -0.32447,-1.9771 -1.77523,0.56078 -1.9054,3.33322 -2.11837,4.8875 -0.53625,3.90969 0.70524,-0.4359 1.04195,0.64922 0.87622,2.82317 -0.14795,1.94203 -0.62848,3.7525 -1.06723,4.02361 -0.43858,0.27112 -0.61799,2.91218 -0.39782,5.86892 0.2201,2.95674 -0.0596,6.1032 -0.62211,6.99223 -0.84279,1.33202 -1.02484,1.27215 -1.0392,-0.34522 -0.01,-1.0795 -0.53916,-1.96273 -1.17763,-1.96273 -0.80035,0 -0.80035,-0.67411 0,-2.16953 0.63847,-1.19315 1.16011,-4.06668 1.16011,-6.38414 0,-3.97445 -0.0968,-4.08989 -1.69986,-2.03633 -1.60294,2.05328 -1.65929,1.98694 -0.98663,-1.1864 2.02528,-9.55357 8.81531,-19.20376 12.65438,-17.9853 1.49607,0.47483 2.26475,-0.003 2.70225,-1.67533 0.50247,-1.92118 0.32817,-2.10147 -0.98137,-1.01466 -0.87678,0.72765 -1.59471,0.84577 -1.59471,0.26461 0,-1.23615 5.20753,-5.973 5.8549,-5.32567 0.87993,0.87995 9.32304,-2.04944 12.02,-4.1708 1.52317,-1.19815 4.05452,-2.08195 5.62533,-1.96273 1.57081,0.11922 4.80338,-0.64028 7.18325,-1.6876 5.41015,-2.3808 6.35753,-1.61045 2.46042,2.00128 -1.93106,1.78957 -2.37531,2.6855 -1.24774,2.52001 0.96222,-0.14122 2.42626,-1.18157 3.25253,-2.31146 1.34821,-1.84379 1.57344,-1.86711 2.20106,-0.23133 0.73611,1.91809 -2.09051,4.10071 -5.31164,4.10071 -0.9658,0 -1.75595,0.56247 -1.75595,1.25124 0,0.74089 1.1807,1.02767 2.88978,0.70098 2.87111,-0.54885 2.86591,-0.52916 -0.84117,3.37344 -2.85899,3.00977 -3.14154,3.62285 -1.20744,2.62516 1.38797,-0.71594 3.3848,-2.67141 4.43718,-4.34605 1.05239,-1.67466 3.23756,-4.60537 4.85602,-6.51207 2.02482,-2.38534 2.99961,-4.91126 3.1246,-8.09977 l 0.18051,-4.63345 -5.10662,3.2385 c -5.05421,3.20528 -11.23451,5.04418 -20.30552,6.04242 -3.8772,0.42667 -5.11486,0.0528 -7.20429,-2.17128 -1.96444,-2.09107 -2.13845,-2.68473 -0.78333,-2.68473 0.95728,0 2.369,0.75705 3.13686,1.68234 0.76795,0.92529 1.96465,1.6416 2.6602,1.59297 0.79461,-0.0557 0.74424,-0.29822 -0.13669,-0.65366 -0.771,-0.31113 -1.40195,-1.01358 -1.40195,-1.55967 0,-0.54609 0.71145,-0.7191 1.5807,-0.38555 0.86917,0.33355 3.49048,0.0786 5.82512,-0.56603 4.89889,-1.35265 6.52518,-0.7115 2.57082,1.0129 -2.47658,1.07999 -2.42396,1.1187 0.66769,0.49595 1.84438,-0.37154 3.70926,-1.25143 4.14452,-1.95572 0.43534,-0.70431 1.13422,-0.93716 1.5544,-0.51698 0.8987,0.89865 6.33158,-1.75103 11.24017,-5.48162 1.90881,-1.45074 3.74526,-2.63743 4.07967,-2.63743 0.3344,0 0.94253,2.22853 1.35113,4.95415 0.4087,2.72543 1.47506,5.56517 2.37106,6.30878 1.3534,1.12325 2.00936,0.49186 3.87815,-3.7327 1.23704,-2.79669 2.58339,-6.74833 2.98966,-8.77972 0.62718,-3.1357 0.86714,-3.36167 1.59472,-1.50184 0.84072,2.14903 0.85915,2.14795 0.97085,-0.0525 0.0883,-1.74045 0.69753,-1.29265 2.72155,1.99952 1.4347,2.33366 4.28696,5.74041 6.33682,7.57055 2.65003,2.36596 3.18655,3.32789 1.85582,3.32789 -1.02931,0 -2.86578,-0.8515 -4.07967,-1.89089 -2.09867,-1.79693 -5.66915,-2.98214 -5.66915,-1.88211 0,0.28343 1.37117,1.69496 3.04751,3.13686 2.61431,2.24873 2.83635,2.87702 1.55615,4.41965 -1.91364,2.30579 -3.48209,1.32997 -3.48209,-2.16776 0,-1.76682 -0.6384,-2.73731 -1.80151,-2.73731 -1.18177,0 -1.56898,0.61036 -1.12332,1.77172 0.37407,0.9743 0.35362,3.07276 -0.0456,4.66324 -0.68577,2.73231 -0.8104,2.77773 -2.24312,0.81838 -0.834,-1.14054 -1.51586,-1.47252 -1.51586,-0.73778 0,0.73476 -0.48903,1.33537 -1.08652,1.33537 -0.59748,0 -0.76347,-0.88322 -0.36976,-1.96274 0.6811,-1.86827 0.60706,-1.8682 -1.52812,0.002 -1.23417,1.08085 -2.58237,1.62702 -2.99492,1.21444 -0.41265,-0.41259 -0.75005,0.28914 -0.75005,1.55968 0,2.61276 2.52924,4.05819 4.19184,2.39557 0.71986,-0.71989 1.05861,2.64699 0.97785,9.72955 -0.11646,10.27026 0.78773,15.61124 1.3634,8.05596 0.14769,-1.93788 0.81074,-3.85742 1.47381,-4.26718 0.76006,-0.46976 0.80031,-0.99483 0.11041,-1.42123 -0.60188,-0.37195 -1.12167,-3.33708 -1.15486,-6.58917 -0.0368,-3.56612 0.26257,-5.08393 0.75354,-3.82383 0.65894,1.69116 1.10373,1.21024 2.33601,-2.52352 1.38293,-4.19029 3.40674,-6.26553 3.40674,-3.49261 0,0.61686 0.88325,1.12966 1.96273,1.13908 1.64619,0.0145 1.69743,0.1851 0.31369,1.06023 -1.99091,1.25908 -1.54741,1.74416 2.49022,2.71278 2.28089,0.54719 3.08429,0.31818 3.08429,-0.87797 0,-1.03006 1.19101,-0.42653 3.27882,1.66131 3.80146,3.80145 6.21771,4.28276 5.37824,1.0725 -0.31718,-1.21264 -0.24866,-2.16189 0.15071,-2.10994 0.39937,0.0519 1.67166,0.0345 2.82669,-0.0386 1.75053,-0.11071 1.86328,-0.41634 0.68169,-1.84007 -1.1597,-1.39741 -1.13308,-1.59486 0.1437,-1.08651 0.85832,0.34175 3.80697,3.61686 6.55238,7.27789 2.7454,3.66103 5.2143,6.43242 5.48689,6.15982 0.27258,-0.2726 -0.1432,-1.26438 -0.92354,-2.20457 -0.78025,-0.9402 -1.06853,-1.71038 -0.63964,-1.71038 0.42888,0 -0.77691,-1.88856 -2.68124,-4.19884 -1.90431,-2.31029 -3.05419,-4.3374 -2.55505,-4.50378 1.26871,-0.4229 13.70409,6.42455 13.70409,7.54601 0,0.50453 0.81278,1.22908 1.80675,1.61049 1.34247,0.51516 1.62543,0.21688 1.09704,-1.16012 -0.59318,-1.54589 -0.43105,-1.62047 0.98311,-0.44686 0.9326,0.77401 1.44204,1.82114 1.13033,2.32548 -0.3117,0.50435 0.0243,1.28155 0.74654,1.72792 0.82008,0.50685 1.01157,0.32501 0.51171,-0.48369 -0.4401,-0.71217 -0.25024,-1.29504 0.42234,-1.29504 0.67266,0 1.51265,0.75533 1.86634,1.67708 0.35371,0.92181 1.17324,1.34826 1.82079,0.94806 0.73216,-0.45247 0.83889,-0.18065 0.28214,0.72026 -0.57522,0.93063 0.0646,2.18761 1.78924,3.51364 1.4767,1.13537 2.09148,2.07528 1.36516,2.08892 -0.72623,0.0137 -2.31283,-1.23723 -3.52591,-2.77938 -3.21996,-4.0935 -3.85515,-3.4272 -1.33711,1.40371 1.35889,2.60709 1.92789,5.22051 1.49658,6.86957 -0.69483,2.65727 -0.69765,2.65622 -2.01705,-0.56254 l -1.32135,-3.22449 -1.42648,2.66021 c -0.78492,1.46237 -0.92921,2.35107 -0.3207,1.975 3.14486,-1.94364 4.24819,8.47576 1.45101,13.70232 -0.66674,1.24581 -1.21268,3.59088 -1.21268,5.21177 0,4.09966 -5.47357,15.3593 -7.00626,14.41207 -0.82869,-0.51219 -0.93113,-0.0627 -0.31544,1.38968 1.78831,4.21872 1.86487,7.84669 0.26462,12.49139 -0.89347,2.59333 -1.34388,4.99293 -1.00239,5.33443 0.86208,0.86205 3.57323,-5.86396 3.57323,-8.86383 0,-1.35343 0.71658,-3.43914 1.59122,-4.63521 1.37243,-1.87699 1.37243,-1.33583 0,3.95525 -0.87464,3.37161 -1.54521,7.40881 -1.48959,8.97074 0.0876,2.45734 0.26338,2.31017 1.30732,-1.08651 0.82879,-2.69675 1.34935,-3.30667 1.66483,-1.95047 0.25257,1.08577 -0.62879,3.73547 -1.95923,5.8882 -1.922,3.10979 -2.07763,3.9132 -0.76057,3.9132 1.86655,0 8.61851,-7.22689 8.61851,-9.22485 0,-0.71329 -0.78434,-0.31768 -1.74368,0.87973 -1.66556,2.07897 -1.68841,2.0601 -0.48367,-0.41883 1.02528,-2.10953 1.5671,-2.34167 2.89152,-1.24248 1.30603,1.08391 1.50973,1.03627 1.01992,-0.24009 -0.33611,-0.87603 0.1971,-2.58854 1.18641,-3.80454 1.78651,-2.19599 1.79446,-2.19644 1.04445,0.0315 -0.74211,2.20453 -1.23402,4.52692 -1.89789,8.9725 -0.1842,1.23372 -1.09173,2.85857 -2.01706,3.61002 -0.92524,0.75145 -1.13843,1.38231 -0.47491,1.40196 2.08969,0.0617 5.62837,-4.72084 9.93283,-13.4237 2.28826,-4.62643 5.85148,-11.09994 7.91928,-14.38578 2.60014,-4.13179 4.17098,-8.45541 5.09433,-14.01952 0.73432,-4.4249 2.04578,-9.65773 2.91432,-11.62919 2.44357,-5.54682 4.05026,-20.77935 2.59537,-24.60602 -1.8661,-4.90811 -6.23106,-10.09194 -11.61868,-13.79871 -8.96191,-6.16592 -13.40354,-18.29455 -14.81338,-40.446319 -0.46801,-7.352445 -0.20713,-8.975578 2.07664,-12.896209 2.06663,-3.547966 3.83641,-4.924939 8.46603,-6.589175 3.21916,-1.157193 5.85316,-2.599638 5.85316,-3.205219 0,-0.605581 -0.75701,-0.81071 -1.68234,-0.455632 -2.51095,0.963529 -2.03103,-0.140715 0.69571,-1.599976 1.67175,-0.894665 2.15325,-0.905468 1.61751,-0.03855 -1.09707,1.775011 0.81667,1.517356 3.36118,-0.452133 2.14308,-1.659096 2.1419,-1.672851 -0.0665,-0.911266 -2.06439,0.71187 -2.10907,0.604137 -0.56078,-1.344124 0.4727,-0.59484 0.6305,-0.927074 0.42058,-0.983125 z m -26.32165,13.996743 c 0.3505,-0.0197 -0.17524,0.421653 -1.5772,1.598226 -3.25351,2.730474 -17.44643,9.090704 -27.34157,12.251314 -4.70149,1.50172 -10.56721,3.49601 -13.03465,4.433679 -7.10783,2.7011 -9.17058,2.19703 -10.97728,-2.682989 -0.41022,-1.10815 -0.65142,-0.82104 -0.70974,0.84117 -0.12462,3.550349 -2.55069,3.168819 -8.91291,-1.40195 -3.00516,-2.15901 -6.22486,-3.92547 -7.15521,-3.92547 -0.93027,0 -2.23449,-0.65438 -2.89854,-1.45452 -0.95252,-1.147712 -0.33154,-1.452095 2.94585,-1.444019 4.13694,0.0097 15.01131,-0.815986 29.95096,-2.272913 l 7.85093,-0.765811 -2.8039,2.493716 -2.80391,2.493727 2.61289,-0.56429 c 1.89858,-0.41005 2.44922,-0.14218 2.01881,0.97962 -0.38546,1.00424 -0.0237,1.32412 1.03394,0.91828 0.89393,-0.34301 1.62452,-1.00695 1.62452,-1.47555 0,-1.173167 10.96727,-5.633235 13.88808,-5.648129 2.07938,-0.01065 7.31481,-1.398345 14.71173,-3.899177 0.84117,-0.284391 1.36691,-0.463088 1.5772,-0.474914 z m -113.92965,4.86127 c 0.95754,-0.02984 7.10911,1.532009 14.29641,3.641577 10.33012,3.032003 16.26189,4.136093 22.9114,4.263683 9.59896,0.18423 11.91319,0.97593 16.17853,5.535959 2.48162,2.65311 2.53061,2.89634 0.56079,2.78989 -3.18532,-0.17207 -17.1036,-3.675269 -22.9079,-5.765529 -2.77591,-0.99966 -11.03013,-3.64909 -18.3428,-5.8882 -7.31257,-2.239094 -13.08042,-4.286348 -12.81734,-4.549341 0.0164,-0.01643 0.0571,-0.02605 0.12091,-0.02804 z m 112.68893,5.85141 c 0.96566,0.005 1.71914,2.57828 1.71914,8.103279 0,8.44037 -4.22712,17.54056 -10.7372,23.11293 -2.54083,2.17489 -3.93896,3.95351 -3.10533,3.95351 2.47247,0 10.61729,-9.27555 13.87583,-15.80351 2.96128,-5.93256 3.02301,-5.98102 2.77411,-2.14148 -0.13997,2.15901 -1.41285,5.80119 -2.82844,8.09277 -2.0704,3.35154 -2.21107,4.02683 -0.7185,3.45406 1.24557,-0.47796 1.58872,-0.27965 1.04446,0.6011 -0.44603,0.72169 -0.29336,1.31082 0.33821,1.31082 1.53735,0 3.60064,-3.9804 2.58836,-4.9927 -0.44091,-0.44095 -0.0439,-0.63322 0.88148,-0.4276 2.50592,0.55688 3.32831,2.17827 3.34716,6.59617 0.0136,3.14635 -0.86196,4.81907 -4.18834,7.9999 -2.3132,2.21203 -6.22466,4.66625 -8.69209,5.45534 -6.92489,2.21457 -21.82452,2.11461 -24.53592,-0.16472 -0.69312,-0.58269 -3.65737,-2.88116 -6.58743,-5.10837 -2.93006,-2.22721 -5.32742,-4.54932 -5.32742,-5.15919 0,-1.09676 0.84986,-0.56029 7.16748,4.52656 1.78274,1.4354 3.92668,2.34749 4.76489,2.02583 0.83822,-0.32165 2.65946,-0.0847 4.04814,0.52572 2.37879,1.04569 2.34824,1.08526 -0.52574,0.68697 -1.67768,-0.23252 -2.78306,0.008 -2.45691,0.53623 0.77791,1.25875 18.51342,1.21176 20.51231,-0.0543 2.72504,-1.72601 0.14225,-3.76628 -3.93072,-3.10532 -2.08064,0.33763 -3.78352,0.13996 -3.78352,-0.43811 0,-0.57807 -1.89266,-1.05827 -4.20586,-1.06724 -6.20843,-0.0254 -7.94587,-1.56591 -3.73445,-3.31036 1.8844,-0.78053 3.21639,-1.75974 2.95988,-2.17479 -0.25653,-0.41502 1.52528,-2.91262 3.9605,-5.54996 2.43523,-2.63733 4.13677,-5.26721 3.78001,-5.84439 -0.35674,-0.57718 -0.0852,-1.04972 0.6046,-1.04972 0.68962,0 0.94202,-0.50469 0.56078,-1.12156 -0.38124,-0.61685 -0.12528,-1.12156 0.56955,-1.12156 0.78671,0 0.9776,-0.95221 0.50645,-2.52352 -0.70308,-2.34439 -0.62158,-2.39406 1.14259,-0.70446 1.78266,1.70724 1.76319,2.0852 -0.33646,6.16859 -1.23022,2.39244 -3.79718,5.83236 -5.7042,7.64414 -4.21071,4.00028 -4.5437,5.87471 -0.58181,3.27879 5.06004,-3.31549 10.47817,-13.13127 11.21562,-20.31953 0.78607,-7.661239 2.37721,-11.897379 3.61879,-11.890309 z m -6.61897,2.58133 c 0.2339,-0.0243 0.50707,0.0831 0.7921,0.36803 0.37272,0.37268 0.46479,1.31491 0.20504,2.09415 -0.3799,1.13975 -0.64454,1.13809 -1.35113,-0.005 -0.70161,-1.13515 -0.34772,-2.3842 0.35399,-2.45692 z m -9.88726,1.18991 c 0.35943,-0.003 1.18307,2.89678 1.82954,6.443729 1.02744,5.63749 0.8948,7.04831 -1.05322,11.20686 -1.23049,2.62665 -4.28361,6.26831 -6.817,8.13133 -3.63807,2.67551 -5.73504,3.37343 -10.12384,3.37343 -4.88525,0 -5.97357,-0.46598 -9.28092,-3.97277 -3.66912,-3.89035 -6.72897,-11.71102 -5.66564,-14.48217 0.29484,-0.76822 3.15867,-1.70763 6.36311,-2.08715 3.20443,-0.37952 6.54042,-1.28079 7.41282,-2.0048 1.40348,-1.1648 15.64939,-6.595899 17.33515,-6.608459 z m -92.273,3.226249 c 0.25433,-0.003 0.5808,0.44275 1.06198,1.21969 0.99766,1.61086 1.04023,2.27818 0.14369,2.27818 -0.92353,0 -0.93409,0.40353 -0.0386,1.48257 0.67618,0.8148 1.11596,3.08545 0.97788,5.04528 -0.1381,1.95983 -0.29919,3.56356 -0.35751,3.56446 -0.0587,9e-4 -0.87147,-0.88148 -1.80676,-1.96099 -1.25409,-1.44742 -1.52027,-3.37007 -1.01467,-7.3252 0.38952,-3.0474 0.61007,-4.29915 1.03394,-4.30399 z m 6.64525,0.31894 c 0.31361,-0.0135 0.94526,0.13472 1.62627,0.39606 1.30226,0.49972 1.58927,2.57784 1.36165,9.83996 l -0.28741,9.20556 5.75677,5.32741 c 5.22325,4.83303 6.26287,5.32742 11.2016,5.32742 3.34369,0 5.17661,0.4327 4.75086,1.12156 -0.38124,0.61686 -3.94433,1.12157 -7.91753,1.12157 -4.06821,0 -7.22355,0.48994 -7.22355,1.12156 0,0.61685 -1.00941,1.12155 -2.24313,1.12155 -2.73068,0 -2.82268,0.86573 -0.38028,3.56447 3.09372,3.4186 1.20279,3.20179 -2.9844,-0.34172 -8.61584,-7.29142 -10.96159,-10.25836 -11.54507,-14.60834 -0.74966,-5.58939 0.10231,-8.81878 2.12221,-8.0437 0.86449,0.33174 1.57193,1.46079 1.57193,2.50775 0,2.58846 6.3514,12.4353 8.02091,12.4353 0.75522,0 0.33309,-1.10321 -0.96559,-2.52351 -6.6121,-7.23132 -7.91271,-18.91268 -3.06326,-27.50455 0.0238,-0.0421 0.0935,-0.0638 0.19802,-0.0684 z m 14.32445,0.30493 c 0.26979,-0.004 0.54749,0.0681 0.79736,0.22257 0.66621,0.41176 3.23709,0.93008 5.71296,1.15309 2.47596,0.22303 5.04945,0.8091 5.71996,1.30206 0.67061,0.49297 3.99552,1.56221 7.38829,2.37457 3.39268,0.81235 6.79945,1.9772 7.57054,2.59011 0.95072,0.75575 1.40196,0.71004 1.40196,-0.1437 0,-0.69239 0.50469,-1.26001 1.12156,-1.26001 0.61685,0 1.12156,1.94312 1.12156,4.31801 0,4.55419 -4.74801,12.52774 -8.65706,14.53824 -2.49687,1.28417 -10.05678,2.14294 -13.77417,1.56493 -4.36378,-0.67852 -9.89413,-5.49529 -11.02987,-9.60863 -0.97989,-3.54877 -0.0267,-13.95545 1.50535,-16.43438 0.24282,-0.39288 0.67192,-0.61018 1.12156,-0.61686 z m -8.48707,3.99556 c 1.70128,0 2.66011,2.34313 1.45278,3.55045 -1.49949,1.49949 -0.002,7.69531 3.05801,12.64561 1.35736,2.19633 2.26451,3.99205 2.01705,3.99205 -1.00061,0 -5.52012,-5.93247 -6.51732,-8.5554 -1.37459,-3.61637 -1.38196,-11.63271 -0.0105,-11.63271 z m 57.89537,5.06981 c -1.55741,-0.0923 -2.87225,1.06453 -2.87225,2.90205 0,1.38635 0.79054,2.1222 2.27817,2.1222 2.71194,0 4.27608,-3.20714 2.1923,-4.49501 -0.53323,-0.32955 -1.07908,-0.49846 -1.59822,-0.52924 z m -28.78909,2.78112 c -2.30287,0 -3.68853,1.73775 -2.68299,3.36469 1.02915,1.66525 4.71568,1.35855 5.4098,-0.45037 0.75081,-1.95658 -0.14443,-2.91432 -2.72681,-2.91432 z m 15.42849,6.817 c 1.22776,0.0168 1.51585,1.11158 1.51585,3.83785 0,3.82545 -0.90873,4.5146 -4.20584,3.18417 -2.01039,-0.8112 -1.73254,-5.62054 0.3715,-6.42794 1.00742,-0.38658 1.76041,-0.60169 2.31849,-0.59408 z m -3.03699,7.7633 c 0.65329,0 1.18817,0.5047 1.18817,1.12157 0,0.61685 -0.22224,1.12156 -0.49419,1.12156 -0.27205,0 -0.80692,-0.50471 -1.18816,-1.12156 -0.38125,-0.61687 -0.1591,-1.12157 0.49418,-1.12157 z m -52.52764,7.13945 c 1.65937,0.0312 3.32857,2.04623 2.66371,4.14102 -0.3475,1.0947 -0.10564,2.31426 0.53625,2.71102 0.64198,0.39674 1.16712,1.19652 1.16712,1.77697 0,0.58046 -0.74134,1.05497 -1.64729,1.05497 -1.1012,0 -1.40305,-0.65053 -0.91127,-1.96274 0.64225,-1.71379 0.49646,-1.76726 -1.14434,-0.43285 -1.61074,1.31009 -1.9808,1.25932 -2.60063,-0.35574 -0.39757,-1.03623 -0.15191,-2.45737 0.54678,-3.15615 1.71006,-1.71004 1.6181,-3.39209 -0.13144,-2.40435 -1.09941,0.62071 -1.10939,0.47424 -0.0473,-0.67293 0.46406,-0.5012 1.01531,-0.70963 1.56843,-0.69922 z m -4.22688,0.0175 c 0.30312,0.007 0.33635,0.44834 0.0491,1.19691 -0.74561,1.94302 -1.54915,2.2985 -1.54915,0.68521 0,-0.58045 0.49943,-1.36331 1.10929,-1.74017 0.15893,-0.0982 0.28975,-0.1445 0.3908,-0.14195 z m 48.16057,0.72901 c 0.0797,0.0169 0.15023,0.0538 0.20678,0.1104 0.27734,0.27736 -0.71717,1.99735 -2.20983,3.82383 -1.87517,2.29451 -2.72702,2.76941 -2.75484,1.53339 -0.0387,-1.72177 3.56201,-5.72024 4.75789,-5.46762 z m 75.22173,3.6959 c 0.12801,0.0323 0.89174,0.73046 2.37808,2.1152 2.5374,2.36383 3.33107,4.17596 3.56095,8.13132 0.16258,2.79931 0.0674,5.08908 -0.21204,5.08908 -0.27941,0 -0.50821,-0.52155 -0.50821,-1.16011 0,-0.63857 -0.83549,-2.43481 -1.85584,-3.99205 -1.38096,-2.10763 -2.08382,-2.4603 -2.75309,-1.37743 -0.60008,0.97077 -0.83764,0.61958 -0.71149,-1.05496 0.21041,-2.79338 1.85038,-3.23209 4.13927,-1.10756 2.13366,1.98045 0.47834,-1.05557 -2.59887,-4.76664 -1.05848,-1.27647 -1.56676,-1.90923 -1.43876,-1.87685 z m -46.95663,1.23372 c 0.30184,0.0154 0.66558,0.0943 1.10229,0.22957 1.25669,0.38915 2.68912,1.39864 3.18243,2.24313 0.4933,0.84449 1.62886,1.53512 2.52351,1.53512 2.13303,0 2.09769,2.13431 -0.049,2.95813 -0.92174,0.35371 -1.39794,1.09507 -1.05672,1.64729 0.90569,1.46548 0.0904,1.23164 -2.38157,-0.6817 -2.14433,-1.66008 -2.14315,-1.67579 0.0665,-1.03044 2.21279,0.64613 2.21389,0.63156 0.0665,-1.11805 -1.19737,-0.97565 -2.80761,-1.77523 -3.57672,-1.77523 -0.76903,0 -1.32142,-1.00773 -1.22847,-2.24136 0.0969,-1.28618 0.44563,-1.81262 1.35113,-1.76646 z m -29.441,0.64313 c 0.65643,0 0.54714,0.71266 -0.25761,1.68235 -0.76795,0.92529 -1.57052,1.68234 -1.78398,1.68234 -0.21354,0 -0.0992,-0.75705 0.25586,-1.68234 0.35513,-0.92529 1.15927,-1.68235 1.78573,-1.68235 z m 4.60717,0.42936 c -0.10096,-0.003 -0.23138,0.0417 -0.39079,0.14019 -0.60986,0.37687 -1.11085,1.2859 -1.11981,2.02057 -0.006,0.73466 -1.77243,3.55301 -3.92547,6.26147 -2.15295,2.70847 -3.91495,5.12266 -3.91495,5.36597 0,1.24181 4.73116,-2.33078 6.34208,-4.78942 1.24215,-1.89575 2.12231,-2.39879 2.6637,-1.52287 0.60753,0.98316 1.00597,0.98724 1.60524,0.0175 0.43867,-0.70974 0.19231,-2.01865 -0.54675,-2.90905 -0.73925,-0.89041 -1.03983,-2.41002 -0.66944,-3.37521 0.29051,-0.75695 0.25906,-1.20032 -0.0438,-1.20917 z m -51.34651,0.7185 c 0.85879,0.008 1.61927,0.33535 1.61927,0.97611 0,1.23793 -2.90992,2.44369 -3.78528,1.56844 -0.35154,-0.35197 -0.37185,-1.07443 -0.0438,-1.60525 0.39372,-0.63701 1.35106,-0.94747 2.20983,-0.9393 z m 101.81154,0.47141 c 0.34104,0.0175 0.42436,0.24053 0.17874,0.63789 -0.37683,0.60979 -1.15975,1.10753 -1.74017,1.10753 -1.61325,0 -1.25779,-0.80355 0.6852,-1.54915 0.37422,-0.14363 0.67159,-0.20674 0.87623,-0.19627 z m 18.71781,0.14545 c 0.48409,0.027 0.68747,0.23397 0.4714,0.58356 -0.34562,0.55934 -1.35597,1.01641 -2.24487,1.01641 -2.32137,0 -1.98969,-0.76093 0.62912,-1.44576 0.46298,-0.12106 0.85389,-0.17042 1.14435,-0.15421 z m -124.5179,1.59997 c 0.0579,0.0579 -0.28028,0.51252 -0.97785,1.40195 -0.84656,1.0795 -1.72981,1.96274 -1.96273,1.96274 -0.92309,0 -0.32962,-0.91989 1.53863,-2.38507 0.88944,-0.69754 1.34407,-1.03751 1.40195,-0.97962 z m 113.62473,1.13908 c 0.88406,0.0114 0.81541,0.34591 -0.20153,0.99015 -1.24063,0.78592 -1.13269,1.20843 0.56078,2.1923 1.15351,0.67016 1.59297,1.22649 0.9761,1.23546 -0.61685,0.01 -1.81707,-0.42363 -2.66721,-0.96208 -1.70459,-1.07967 -0.77829,-3.48292 1.33186,-3.45583 z m 5.33092,0.0999 c 0.15648,-0.0245 0.72964,0.27026 1.74544,0.80262 1.30684,0.6849 2.64437,0.97618 2.97213,0.64842 0.32777,-0.32779 0.97677,0.0214 1.44226,0.77457 0.51673,0.83606 0.37982,1.07979 -0.35224,0.62737 -2.27211,-1.40399 -2.22252,2.08231 0.0649,4.59666 1.26045,1.38551 1.99414,2.81629 1.62976,3.18068 -0.36437,0.36437 -1.53801,-0.672 -2.60763,-2.30446 -1.18419,-1.80726 -2.23977,-2.49399 -2.697,-1.7542 -0.4768,0.77139 -1.53909,0.2924 -2.91081,-1.31433 -1.60706,-1.88238 -1.67049,-2.15171 -0.24709,-1.05147 2.941,2.27334 4.81573,0.40834 2.3658,-2.35352 -1.11899,-1.26143 -1.60665,-1.82082 -1.40546,-1.85234 z m -83.80169,0.3137 c -0.0998,-0.008 -0.23287,0.0365 -0.3978,0.13844 -0.60986,0.37686 -1.1093,1.70156 -1.1093,2.9441 0,2.48759 3.38613,2.59345 4.20585,0.13143 0.31135,-0.93502 -0.18993,-1.15074 -1.50359,-0.64664 -1.53707,0.58983 -1.80597,0.33002 -1.22671,-1.1794 0.33143,-0.86371 0.33085,-1.36359 0.0316,-1.38793 z m -23.53703,0.15071 c 0.52248,-0.045 1.12472,0.0972 1.71039,0.45914 1.05229,0.65036 0.80927,1.0578 -0.8955,1.50359 -1.28585,0.33626 -2.33776,0.18272 -2.33776,-0.33998 0,-0.95484 0.65208,-1.54781 1.52287,-1.62275 z m 20.19864,0.35224 c -0.32365,0.0557 -1.13416,0.64997 -2.43239,1.86635 -1.97287,1.84857 -3.58725,3.48887 -3.58725,3.64507 l -0.004,0 c 0,0.98671 2.16317,-0.0273 3.582,-1.67884 2.16702,-2.52125 2.98053,-3.9254 2.44115,-3.83258 z m -36.54891,0.76932 c 0.0547,0.002 0.10155,0.0209 0.13845,0.0578 0.29502,0.29506 -0.37437,1.40788 -1.48608,2.47269 -1.93124,1.84979 -1.95499,1.82613 -0.53624,-0.53623 0.7146,-1.1899 1.50092,-2.0066 1.88387,-1.99429 z m 140.80332,0.76932 c 0.2312,0.0293 0.56323,0.24777 0.9656,0.65015 0.72983,0.72997 1.06699,1.58796 0.74829,1.90666 -0.3187,0.31872 -0.91538,0.24301 -1.32659,-0.16823 -0.41122,-0.41123 -0.7483,-1.26922 -0.7483,-1.90666 0,-0.35138 0.12981,-0.51122 0.361,-0.48192 z m -35.11189,0.88499 c -0.0946,0.0426 0.24841,0.50119 0.96033,1.40895 0.84665,1.0795 2.0669,1.96274 2.71103,1.96274 0.64459,0 0.96155,-0.14265 0.70449,-0.31719 -0.25697,-0.17455 -1.47731,-1.05779 -2.71103,-1.96273 -1.03744,-0.761 -1.57022,-1.13442 -1.66482,-1.09177 z m -20.91187,0.12441 c -0.25468,-0.0901 -0.16308,0.33458 0.21731,1.33361 0.42126,1.10612 1.04783,1.728 1.39318,1.38268 0.34526,-0.34532 7e-4,-1.24925 -0.76581,-2.01005 -0.41537,-0.41228 -0.69187,-0.65212 -0.84468,-0.70624 z m -3.42252,0.12092 c -0.77115,-0.0653 -0.16287,1.48349 1.49834,3.31913 1.02089,1.12808 2.04889,2.05035 2.28342,2.05035 0.73719,0 -1.85302,-4.32746 -3.02295,-5.05053 -0.32899,-0.20331 -0.58084,-0.30387 -0.75881,-0.31895 z m -6.74514,0.27163 c -0.21742,0.004 -0.34173,0.13523 -0.34173,0.40307 0,0.69275 1.38796,2.01153 3.0843,2.93183 3.62946,1.96902 5.17166,2.20414 4.20586,0.64139 -0.38124,-0.61686 -1.25382,-1.12156 -1.93995,-1.12156 -0.68604,0 -2.17173,-0.83493 -3.29985,-1.85584 -0.72688,-0.65782 -1.34626,-1.00508 -1.70863,-0.99889 z m -50.31432,1.75771 c -0.0405,-0.0117 -0.10994,0.0601 -0.20503,0.22781 -0.25365,0.44722 -0.39701,1.11127 -0.31894,1.47555 0.0781,0.36429 -1.11314,1.65053 -2.64618,2.85648 -2.35888,1.85545 -2.68755,2.83575 -2.14149,6.37538 0.35487,2.30056 0.24087,3.80795 -0.25235,3.35066 -1.23811,-1.14801 -3.91511,1.26691 -3.87114,3.49261 0.0319,1.62816 0.19659,1.61419 1.51411,-0.12091 0.81246,-1.06991 1.78138,-1.63929 2.15375,-1.26701 0.37226,0.37227 1.49324,-0.14037 2.49197,-1.13909 0.99872,-0.99873 2.60499,-1.81729 3.56971,-1.81729 1.95368,0 7.05884,-5.03106 7.05884,-6.95718 0,-0.67947 -0.92225,-0.17212 -2.05036,1.12858 -2.09248,2.41269 -9.98389,4.69617 -8.62376,2.49546 0.39183,-0.63393 0.0522,-1.1639 -0.75529,-1.17763 -0.80754,-0.0137 -0.20685,-1.01304 1.33535,-2.22209 1.5421,-1.20907 3.43476,-1.97099 4.20586,-1.69286 1.96713,0.70953 1.76097,-1.60059 -0.21029,-2.35703 -0.88631,-0.34013 -1.47389,-1.20592 -1.30557,-1.92594 0.10526,-0.45001 0.11835,-0.70602 0.0508,-0.7255 z m 19.97081,0.17699 c -1.25983,0.0559 -3.64506,3.04893 -3.64506,4.91735 0,1.45683 0.56605,1.19409 2.37105,-1.10053 1.30406,-1.65783 2.0843,-3.29921 1.7349,-3.64859 -0.12376,-0.12376 -0.2809,-0.17621 -0.46089,-0.16823 z m 28.8294,0.92003 c -0.58886,0 -1.07074,0.75705 -1.07074,1.68234 0,0.92528 0.50471,1.68234 1.12156,1.68234 0.61687,0 1.12156,0.81997 1.12156,1.82079 0,1.49033 -0.30452,1.56585 -1.68234,0.42234 -1.68413,-1.3977 -2.42616,0.005 -0.84117,1.58946 0.46262,0.46265 0.9042,1.30441 0.98136,1.86985 0.0771,0.56546 0.21787,1.40546 0.3137,1.86811 0.0959,0.46263 0.71317,-0.0824 1.3704,-1.21269 1.34184,-2.30794 0.33957,-9.72254 -1.31433,-9.72254 z m -38.35566,0.17349 c -0.0978,-0.0289 -0.28815,0.0417 -0.56954,0.21555 -0.65445,0.40435 -0.92532,1.74428 -0.60284,2.9774 0.73816,2.82272 2.15422,2.8649 3.6293,0.10865 0.98616,-1.84273 0.81606,-2.04732 -1.2565,-1.50535 -1.78427,0.46661 -2.166,0.24979 -1.48957,-0.84467 0.35856,-0.58017 0.45223,-0.90358 0.28915,-0.95158 z m -25.03711,0.12618 c 0.47686,-0.11989 0.50975,0.63246 0.07,2.08365 -1.16471,3.84473 -2.61956,5.039 -1.96447,1.61225 0.30542,-1.59804 1.05373,-3.2142 1.66306,-3.59076 0.0862,-0.0533 0.1632,-0.088 0.23132,-0.10514 z m 124.43903,0.0665 c 0.30517,-0.0809 0.75814,0.43585 1.07775,1.26876 0.75844,1.97632 0.11223,2.32389 -0.99364,0.53449 -0.40663,-0.6579 -0.49906,-1.43741 -0.20503,-1.73142 0.0368,-0.0368 0.0773,-0.0603 0.12092,-0.0719 z m 7.82815,1.14434 c 0.10202,0.0154 0.22322,0.18671 0.3575,0.52222 0.32373,0.80963 0.28509,1.77757 -0.0876,2.15024 -0.37272,0.37269 -0.63727,-0.28973 -0.58882,-1.47204 0.0335,-0.8166 0.14894,-1.22617 0.31895,-1.20042 z m -79.16474,0.049 c -0.22611,-0.12747 -0.66232,0.45294 -1.43524,1.80501 -0.88155,1.54215 -1.62307,2.2992 -1.6473,1.68235 -0.0242,-0.61686 -1.05029,0.53185 -2.28168,2.55155 -1.23138,2.0197 -2.22688,4.03851 -2.20983,4.48625 0.0167,0.44774 1.7832,-1.07104 3.92547,-3.37521 2.14236,-2.30417 3.87691,-5.08003 3.85538,-6.16859 -0.0115,-0.57263 -0.0712,-0.90488 -0.2068,-0.98136 z m 47.75576,0.0929 c -0.39249,0.0377 -0.70724,0.17739 -0.84995,0.40832 -0.28541,0.46188 0.45454,0.91267 1.64555,1.0024 2.57574,0.19401 2.80204,-0.33474 0.51872,-1.21094 -0.45275,-0.17374 -0.92183,-0.23747 -1.31432,-0.19978 z m -17.9187,0.49068 c -0.27289,-0.0261 -0.42935,0.0201 -0.42935,0.15598 0,0.46521 1.64026,1.89677 3.64507,3.18068 3.71613,2.37986 6.49021,3.04251 6.39816,1.52987 -0.0596,-0.97923 -7.70375,-4.68389 -9.61388,-4.86653 z m 9.31245,0.0999 c -0.6592,0 -0.21784,0.74159 0.97962,1.6473 2.81342,2.12799 3.36225,2.13946 1.61575,0.0351 -0.76795,-0.92529 -1.93615,-1.68234 -2.59537,-1.68234 z m -48.47774,2.38683 c -0.33601,0.0537 -1.2217,1.2897 -2.76185,3.78176 -1.33439,2.15901 -2.95219,3.92547 -3.59426,3.92547 -0.6672,0 -0.50638,-0.84102 0.37328,-1.96273 1.39297,-1.77614 1.35315,-1.81653 -0.41183,-0.43286 -1.07266,0.84097 -1.75129,1.85038 -1.50885,2.24313 0.24243,0.39274 -1.555,0.78149 -3.99381,0.86395 -4.41151,0.14907 -4.42369,0.13755 -2.42363,-2.24312 1.77755,-2.11574 1.67173,-2.09489 -0.91127,0.1805 -2.01172,1.77216 -3.8438,2.4058 -5.88119,2.03633 -1.62734,-0.29508 -2.95812,-0.0643 -2.95812,0.51172 0,1.46261 -4.22244,5.53244 -5.73924,5.53244 -0.72569,0 -0.98932,-1.00438 -0.62737,-2.38857 0.56051,-2.14337 0.28638,-2.0637 -2.67247,0.77108 -4.25646,4.07798 -4.16673,5.07604 0.33997,3.78352 2.00069,-0.57379 4.0195,-1.04446 4.48625,-1.04446 1.65794,0 0.76274,3.968 -1.51762,6.72937 -1.27356,1.54215 -1.98959,2.17302 -1.59122,1.40195 0.81399,-1.57559 0.43869,-1.70227 -2.12045,-0.72025 -0.97575,0.37442 -1.78047,1.51 -1.78047,2.52352 -0.004,1.0135 -0.73089,3.22974 -1.61575,4.92611 -1.24027,2.37763 -1.28423,3.08429 -0.19452,3.08429 1.65094,0 5.0594,-3.71602 8.04545,-8.77096 1.15836,-1.96104 2.56184,-3.56622 3.1176,-3.56622 0.55575,0 0.76321,-1.28589 0.46264,-2.85822 -0.69026,-3.6109 2.84697,-8.70503 3.98504,-5.73925 0.3887,1.01288 0.34583,1.78823 -0.0946,1.72265 -2.19198,-0.32671 -2.86274,0.29696 -1.36164,1.26701 1.12156,0.72481 1.21496,1.09441 0.28039,1.1058 -0.7711,0.01 -1.40196,0.80301 -1.40196,1.7647 0,0.9617 0.44667,1.47186 0.99364,1.13382 1.5831,-0.97837 3.00418,1.67771 4.60541,8.61325 0.81891,3.54694 1.79844,6.44898 2.17653,6.44898 0.37811,0 1.34847,-2.84593 2.15726,-6.32456 1.2216,-5.2535 1.21788,-6.48116 -0.0245,-7.2551 -1.03614,-0.6454 -1.70539,-0.16678 -2.17654,1.55793 -0.65086,2.38258 -0.71592,2.35687 -1.52111,-0.58708 -0.4628,-1.6921 -1.29248,-2.79749 -1.84357,-2.45691 -1.67005,1.03214 -1.12361,-2.88784 0.87447,-6.27023 1.70639,-2.88881 5.97406,-5.36138 5.97406,-3.46108 0,0.43356 1.22849,0.76475 2.73031,0.73603 3.03737,-0.058 9.0978,-5.27612 9.96086,-8.57645 0.35444,-1.35536 0.42606,-2.02906 0.16474,-1.98726 z m 80.41773,0.31018 c 0.18921,-0.0605 0.58891,0.56371 1.03218,1.67183 0.59057,1.47748 0.87453,2.88789 0.62913,3.13336 -0.5624,0.56236 -1.86849,-2.75869 -1.77347,-4.50903 0.01,-0.18015 0.049,-0.27596 0.11216,-0.29616 z m 5.90573,0.43987 c 0.087,-0.0469 0.18778,0.12177 0.29439,0.53098 0.28463,1.09124 0.26692,2.60535 -0.0403,3.36469 -0.30722,0.75933 -0.5394,-0.13494 -0.51697,-1.98552 0.0143,-1.15661 0.11779,-1.83191 0.26287,-1.91015 z m 6.66277,0.34522 c 0.15281,0.0541 0.4293,0.29396 0.84468,0.70624 0.76652,0.7608 1.11107,1.66473 0.76581,2.01005 -0.34535,0.34531 -0.97193,-0.27656 -1.39319,-1.38268 -0.38038,-0.99904 -0.47198,-1.42379 -0.2173,-1.33361 z m -90.66075,0.32946 c -0.34181,0.0812 -0.77407,0.63896 -1.09001,1.46855 -0.60861,1.59845 -0.48029,1.72679 0.62737,0.62737 0.76652,-0.7608 1.11107,-1.66473 0.76581,-2.01005 -0.0864,-0.0864 -0.18923,-0.11295 -0.30317,-0.0859 z m 87.60099,0.35224 c 0.0999,0.0287 0.21357,0.15318 0.34348,0.37152 0.56608,0.9514 0.88033,3.61604 0.69747,5.92149 -0.51269,6.46166 -1.26031,5.83839 -1.50535,-1.25474 -0.12087,-3.49913 0.0316,-5.16227 0.4644,-5.03827 z m -131.61352,0.81315 c -0.12348,-0.0222 -0.26889,0.0327 -0.43987,0.13843 -1.2182,0.75291 -0.30423,8.94794 1.44227,12.93302 1.0592,2.41679 1.58164,2.83275 1.86284,1.48256 0.21489,-1.03209 -0.11437,-2.19025 -0.73077,-2.57258 -0.61651,-0.38236 -1.18712,-2.58836 -1.26878,-4.90157 -0.19106,-5.41382 -0.33066,-6.98334 -0.86569,-7.07986 z m 80.79976,0.0754 c -0.32243,0.0386 -0.18162,0.49781 0.18926,1.40372 0.44082,1.07657 0.87155,2.92334 0.95859,4.10596 0.0867,1.18263 0.78822,2.36131 1.55966,2.61815 0.94768,0.3155 1.15385,-0.20018 0.63264,-1.58947 -0.6506,-1.73407 -0.50346,-1.83813 0.94281,-0.66417 0.94328,0.76572 2.06119,1.04586 2.48496,0.62211 1.51232,-1.51234 4.27563,-1.25053 6.28601,0.59584 8.55357,7.85551 8.3708,7.72518 6.84853,4.86477 -0.76688,-1.44077 -1.13827,-2.87651 -0.8254,-3.18944 0.99873,-0.99869 3.68434,5.70046 3.45231,8.61148 -0.12283,1.54215 0.0991,3.30862 0.49244,3.92547 0.39335,0.61686 0.8695,-1.29399 1.05847,-4.24791 0.28299,-4.42197 -0.16285,-5.97253 -2.52352,-8.77797 -1.91751,-2.2789 -2.86698,-2.82301 -2.86698,-1.64029 0,2.41029 -0.71486,2.23549 -4.24265,-1.03569 -1.66316,-1.54215 -4.29077,-2.80557 -5.83915,-2.80917 -1.54847,-0.004 -4.25667,-0.75852 -6.01788,-1.67708 -1.48202,-0.77294 -2.26767,-1.15489 -2.5901,-1.11631 z m 20.2512,0.55553 c -0.82771,0 2.05916,6.2758 3.74321,8.13658 3.05281,3.37331 2.86136,1.26409 -0.32245,-3.54694 -1.67032,-2.52404 -3.20954,-4.58964 -3.42076,-4.58964 z m -29.88086,1.16888 c -0.46262,-0.0256 -0.80025,0.83591 -0.7518,1.91542 0.0487,1.0795 0.31584,1.41355 0.59408,0.74128 0.28156,-0.68043 2.29021,0.46198 4.53181,2.57608 2.21477,2.0888 4.30346,3.52119 4.64046,3.18419 0.64971,-0.64968 -7.58406,-8.33756 -9.01455,-8.41697 z m -6.7837,0.5783 c -0.46295,0.045 -0.93854,0.39519 -1.21795,1.12332 -0.64099,1.67021 1.28614,5.62772 4.74737,9.75409 0.90865,1.08328 1.91224,1.71001 2.23086,1.39144 0.31861,-0.31861 -0.39379,-1.3158 -1.58246,-2.21509 -1.18859,-0.89929 -1.76545,-1.65043 -1.28103,-1.67008 0.48433,-0.0196 0.25274,-1.17239 -0.51522,-2.56031 -0.76796,-1.38795 -1.27613,-3.11505 -1.13032,-3.8396 0.25869,-1.28571 -0.47965,-2.05872 -1.25125,-1.98377 z m -11.27344,1.61751 c -0.25913,0 -1.33891,1.32425 -2.3991,2.94235 -1.06019,1.61809 -1.37323,2.60051 -0.69572,2.18178 1.29474,-0.80019 3.90611,-5.12413 3.09482,-5.12413 z m 13.13103,1.45802 c -0.29196,0.0294 -0.0416,0.42876 0.69922,1.32135 1.61523,1.94618 2.26416,2.14851 2.26416,0.70623 0,-0.55087 -0.82927,-1.32008 -1.84181,-1.70863 -0.57725,-0.22151 -0.94638,-0.33658 -1.12157,-0.31895 z m 57.39943,0.11041 c 0.11394,-0.0271 0.21683,-4.6e-4 0.30317,0.0859 0.34526,0.34534 7e-4,1.24925 -0.76581,2.01007 -1.10766,1.09941 -1.23598,0.97107 -0.62737,-0.62739 0.31593,-0.82958 0.7482,-1.3873 1.09001,-1.46854 z m 4.62469,0.16648 c 0.1881,-0.0167 0.23517,1.10732 0.28565,3.5925 0.053,2.62165 -0.1028,4.76664 -0.34523,4.76664 -1.16867,0 -1.55741,-3.50899 -0.70448,-6.35259 0.38665,-1.28919 0.61777,-1.99361 0.76406,-2.00655 z m -82.68013,0.50821 c -0.58043,0 -1.05497,0.42176 -1.05497,0.9358 0,0.51406 0.73512,0.93406 1.63327,0.93406 0.89814,0 1.37268,-0.42 1.05496,-0.93406 -0.31771,-0.51404 -1.05284,-0.9358 -1.63326,-0.9358 z m -2.40962,0.67293 c -0.45019,-0.028 -1.5025,0.53071 -2.72153,1.48959 -1.62537,1.27849 -3.83534,2.32372 -4.91033,2.32372 -1.075,0 -2.58187,0.75631 -3.34893,1.6806 -1.23407,1.48686 -0.84181,1.4862 3.41026,-0.014 5.22046,-1.84188 7.80361,-3.57884 7.80361,-5.24856 0,-0.14653 -0.0829,-0.22198 -0.23308,-0.23133 z m -21.01,1.5702 c 0.6532,0 0.87543,0.50469 0.49419,1.12155 -0.38124,0.61686 -0.91611,1.12156 -1.18816,1.12156 -0.27204,0 -0.49418,-0.5047 -0.49418,-1.12156 0,-0.61686 0.53486,-1.12155 1.18815,-1.12155 z m 37.3445,2.53402 c -0.14571,0.0617 -0.0394,0.46406 0.25586,1.23372 0.38852,1.01254 1.15606,1.84006 1.70687,1.84006 1.44233,0 1.23991,-0.64895 -0.70623,-2.26415 -0.71407,-0.59262 -1.11078,-0.87124 -1.2565,-0.80963 z m 56.22705,0.46615 c 0.34597,-0.0409 0.26695,1.38219 -0.1472,4.85075 -0.40511,3.39273 -1.41186,8.1874 -2.23786,10.65484 -1.47087,4.39368 -1.48817,4.40525 -0.85345,0.56078 0.35648,-2.15901 0.76286,-5.95088 0.90427,-8.42747 0.1415,-2.4766 0.85797,-5.50482 1.59121,-6.72938 0.34072,-0.56906 0.58579,-0.89092 0.74303,-0.90952 z m 14.87297,0.45564 c 0.13498,0.0277 0.16339,0.62219 0.20152,1.80677 0.0433,1.35153 -0.42584,2.76788 -1.04269,3.14912 -1.32659,0.81987 -1.32659,-0.2776 0,-3.36468 0.46463,-1.08132 0.70618,-1.61895 0.84117,-1.59121 z m -23.02707,0.46964 -0.12267,6.44899 c -0.0676,3.54694 -0.56782,6.44898 -1.1128,6.44898 -0.54498,0 -1.23405,1.2669 -1.52988,2.81442 -0.41372,2.16405 -0.21193,2.54428 0.87096,1.64554 2.81046,-2.33284 3.93185,-7.09913 2.89679,-12.3109 l -1.0024,-5.04703 z m -107.91527,0.56079 c -0.61687,0 -1.12156,0.78725 -1.12156,1.74894 0,0.96172 0.50469,1.4362 1.12156,1.05496 0.61685,-0.38124 1.12156,-1.16672 1.12156,-1.74717 0,-0.58046 -0.50471,-1.05673 -1.12156,-1.05673 z m 89.98605,0.1104 c -1.10178,-0.10071 -2.5417,2.52538 -1.96623,4.09545 0.61695,1.68343 -0.54937,1.76915 -4.36359,0.31895 l -2.85122,-1.08301 0.75881,5.28887 c 0.41732,2.90924 0.78438,6.55062 0.81489,8.09277 0.0307,1.54215 0.53719,3.15099 1.12507,3.57323 0.58788,0.42223 2.61411,-2.35364 4.50202,-6.16859 2.82893,-5.71661 3.18462,-7.24501 2.02932,-8.69036 -1.07016,-1.33876 -1.0908,-2.06531 -0.0894,-3.06677 0.72157,-0.72152 0.94052,-1.68292 0.48543,-2.13797 -0.13673,-0.13671 -0.28772,-0.20817 -0.44512,-0.22257 z m 30.65719,0.30843 c 0.30103,0.0363 0.48543,0.33224 0.48543,0.9288 0,0.8133 -1.03921,2.12787 -2.30972,2.92132 -2.12154,1.32495 -2.21337,1.25952 -1.11631,-0.79035 1.05323,-1.96791 2.27835,-3.13972 2.9406,-3.05977 z m -24.62529,0.0491 c -0.40219,0.0893 -0.6852,0.70274 -0.6852,1.61749 0,1.21967 -0.34712,3.1425 -0.77107,4.27245 -0.6785,1.80854 -0.54418,1.87023 1.12156,0.51523 2.08969,-1.69981 2.52106,-5.23074 0.77107,-6.3123 -0.15421,-0.0953 -0.30229,-0.12263 -0.43636,-0.0928 z m -42.98912,3.03697 c -0.0562,0.0646 0.20542,0.63238 0.7448,1.74894 0.65095,1.34738 1.1829,3.99707 1.1829,5.88819 0,5.11427 1.79547,4.16112 3.28231,-1.74367 1.43919,-5.71561 1.14208,-6.97879 -1.02693,-4.36532 -1.27651,1.53818 -1.60028,1.51209 -3.02645,-0.25236 -0.72772,-0.90024 -1.10041,-1.34035 -1.15663,-1.27578 z m 31.0217,2.10293 c 0.65329,0 1.18816,0.5047 1.18816,1.12156 0,0.61686 -0.22223,1.12156 -0.49418,1.12156 -0.27205,0 -0.80692,-0.5047 -1.18817,-1.12156 -0.38124,-0.61686 -0.15909,-1.12156 0.49419,-1.12156 z m 15.20769,0.0999 c -0.38595,-0.0327 -0.2231,0.67851 0.56078,2.14323 0.66028,1.23372 1.69175,2.24312 2.29219,2.24312 0.60465,0 0.46575,1.00057 -0.31018,2.24313 -1.64071,2.62715 -3.10358,2.92317 -3.10358,0.62737 0,-0.88888 -0.46603,-1.90331 -1.0357,-2.25538 -0.58985,-0.36455 -1.19334,3.22825 -1.40195,8.34687 -0.20143,4.94355 0.0185,8.98741 0.48894,8.98651 0.95486,-0.003 5.65787,-10.18182 6.78194,-14.67845 0.51915,-2.07699 0.0832,-3.58837 -1.53688,-5.32741 -1.41447,-1.51826 -2.34962,-2.29622 -2.73556,-2.32899 z m -35.76906,1.34237 c -0.78104,-0.26489 -0.12116,8.54516 1.13208,14.65215 0.84933,4.13878 1.90838,2.75937 3.74847,-4.87879 0.8173,-3.39273 1.7217,-6.79948 2.00829,-7.57055 0.28658,-0.77108 -0.29151,-1.40195 -1.28279,-1.40195 -1.26817,0 -1.82726,1.08025 -1.88737,3.64508 l -0.0841,3.64507 -1.31783,-3.56445 c -0.72417,-1.96054 -1.73128,-3.9728 -2.23787,-4.47223 -0.0283,-0.0278 -0.0536,-0.0457 -0.0789,-0.0543 z m -24.72343,0.0805 c -0.11,0.0246 -0.26154,0.1795 -0.45914,0.48893 -0.60448,0.94665 -2.20613,1.2245 -4.61068,0.80087 -3.17114,-0.55866 -3.58001,-0.3762 -2.93533,1.30381 0.41192,1.07352 1.04576,4.12014 1.40897,6.76969 0.36312,2.64954 1.08927,4.8157 1.61399,4.8157 0.5247,0 1.7739,-1.89264 2.77586,-4.20586 1.71229,-3.9533 2.97637,-10.14526 2.20633,-9.97314 z m -48.17459,0.0298 c 0.13407,-0.006 0.28215,0.0344 0.43636,0.12968 0.61685,0.38124 1.12156,1.1685 1.12156,1.74895 0,0.58044 -0.50471,1.05496 -1.12156,1.05496 -0.61686,0 -1.12156,-0.78549 -1.12156,-1.74718 0,-0.72129 0.28301,-1.16859 0.6852,-1.18641 z m 126.83287,1.25124 -0.0386,5.88821 c -0.0213,3.2385 -0.19726,5.8882 -0.39079,5.8882 -0.19363,0 -0.35225,-0.53314 -0.35225,-1.1864 0,-0.65328 -0.50469,-0.87719 -1.12156,-0.49595 -1.46494,0.90537 -1.29433,-1.29644 0.47667,-6.16859 l 1.42648,-3.92547 z m -75.06754,0.50471 c -1.13922,-0.0172 -1.22745,4.07029 0.15598,9.65245 0.98418,3.97116 2.04154,7.21753 2.35002,7.21304 0.30838,-0.005 1.38176,-2.39991 2.38507,-5.32392 1.00321,-2.92401 2.23367,-6.32631 2.73381,-7.56003 0.8094,-1.9964 0.70111,-2.07269 -0.98312,-0.70272 -1.33447,1.08549 -1.89264,1.14821 -1.89264,0.2138 0,-0.72882 -0.47423,-1.0325 -1.05322,-0.67469 -0.5789,0.35781 -1.57858,-0.24288 -2.22209,-1.33536 -0.59766,-1.01466 -1.09406,-1.47681 -1.47381,-1.48257 z m -41.16657,2.33075 c -0.26135,0.0307 -0.63367,0.18647 -1.11455,0.48367 -0.65786,0.40662 -1.19691,1.56404 -1.19691,2.57084 0,1.53088 0.26095,1.47403 1.59121,-0.34524 1.28833,-1.76189 1.50431,-2.80125 0.72025,-2.70927 z m 92.54111,2.60938 c -0.37619,0.0238 -0.64139,0.45914 -0.64139,1.15311 0,0.92529 -0.49952,1.99067 -1.10929,2.36755 -0.61417,0.37955 -0.8351,-0.0273 -0.49594,-0.91127 0.33683,-0.87771 -0.1613,-1.89232 -1.10755,-2.2554 -1.43515,-0.55071 -1.70436,0.46519 -1.62451,6.12654 0.0525,3.73248 0.48642,6.36154 0.96384,5.84263 1.97872,-2.15042 5.40287,-11.59848 4.42316,-12.204 -0.14425,-0.0891 -0.28291,-0.12709 -0.40832,-0.11916 z m -92.20113,1.1128 c -0.16999,-0.0257 -0.28531,0.38382 -0.31895,1.20042 l -0.002,0 c -0.0488,1.18231 0.2161,1.84474 0.58882,1.47205 0.37299,-0.37268 0.41337,-1.34062 0.0894,-2.15024 -0.1343,-0.33551 -0.25552,-0.50678 -0.35751,-0.52223 z m 12.63684,1.01816 c -0.22959,-0.0469 -0.6291,0.43975 -1.30907,1.33888 -0.90856,1.20135 -1.37189,3.22016 -1.02869,4.48624 0.57729,2.12921 0.50698,2.15632 -0.9393,0.36626 -1.29087,-1.59765 -1.89859,-1.69019 -3.48385,-0.53098 -1.78184,1.30292 -1.69396,1.80582 1.20918,6.98171 l 3.12811,5.57802 1.31083,-5.60782 c 0.72111,-3.08428 1.34318,-7.37426 1.38266,-9.53326 0.0382,-2.07752 0.0254,-3.01866 -0.26987,-3.07905 z m -18.27795,2.22912 c 0.15355,-0.0689 0.4197,0.10575 0.80963,0.48893 0.78814,0.77449 1.04373,2.51231 0.61862,4.20585 -0.86486,3.44564 -2.43653,3.75487 -3.25079,0.64139 -0.64028,-2.44846 0.85429,-3.10301 1.92068,-0.84117 0.36373,0.77107 0.36978,-0.11216 0.014,-1.96273 -0.31297,-1.62804 -0.36806,-2.41751 -0.11216,-2.53227 z m 108.20968,1.19691 c -0.24419,0.025 -0.81439,0.73953 -1.47555,1.89614 -0.88155,1.54215 -1.60348,3.3086 -1.60348,3.92547 0,0.61685 0.72193,-0.1402 1.60348,-1.68235 0.88154,-1.54214 1.60348,-3.30861 1.60348,-3.92546 0,-0.15422 -0.0466,-0.22213 -0.12793,-0.2138 z m 12.26884,2.4131 c 0.14526,0.0397 0.21778,0.316 0.22957,0.82015 0.0248,1.04309 -0.45914,2.20711 -1.076,2.58836 -0.61686,0.38124 -1.12156,1.95572 -1.12156,3.49787 0,1.58366 0.4881,2.50144 1.12156,2.10993 0.61686,-0.38124 1.12156,0.37582 1.12156,1.68234 0,1.30653 -0.46814,2.08714 -1.04095,1.73317 -0.57272,-0.35399 -1.26133,0.49906 -1.52987,1.89615 -0.40897,2.12778 -0.54088,1.99306 -0.8149,-0.82541 -0.49653,-5.10675 0.0123,-8.54097 1.73493,-11.70805 0.69183,-1.27206 1.13357,-1.86072 1.37566,-1.79451 z m -11.15603,0.6046 c -0.151,0 -0.4228,0.37386 -0.90601,1.12156 -0.59802,0.92529 -1.08653,2.4394 -1.08653,3.36469 0,1.4954 0.1201,1.4954 1.08653,0 0.59792,-0.92529 1.08651,-2.4394 1.08651,-3.36469 0,-0.7477 -0.0295,-1.12156 -0.1805,-1.12156 z m -76.4695,2.39734 c -0.0839,0.0138 -0.15826,0.0496 -0.21905,0.11041 -0.7431,0.74309 4.02838,9.28949 5.04353,9.03382 0.51628,-0.13004 0.91031,0.37466 0.87622,1.12157 -0.0343,0.74687 0.34009,2.99666 0.83241,5.00146 0.49231,2.00479 1.58947,3.64507 2.43764,3.64507 0.95996,0 1.60216,-1.37606 1.69986,-3.64507 0.0863,-2.0048 0.26551,-5.56551 0.39956,-7.91402 0.2418,-4.23496 -1.10299,-4.45014 -1.85058,-0.29617 -0.35989,1.9999 -0.52727,2.02425 -2.21858,0.33298 -1.00609,-1.00604 -2.22152,-1.47423 -2.70226,-1.04096 -0.48075,0.43327 -0.52276,0.17553 -0.0929,-0.57305 0.68799,-1.19829 -2.94734,-5.98385 -4.20586,-5.77604 z m -41.93939,0.1437 c 0.10008,-0.0705 0.61061,0.42154 1.33885,1.31959 0.97101,1.19741 1.76472,2.58533 1.76472,3.0843 0,1.61584 -1.17317,0.95982 -1.89088,-1.05674 -0.3842,-1.0795 -0.90976,-2.46743 -1.16888,-3.08428 -0.0648,-0.15422 -0.0772,-0.23937 -0.0438,-0.26287 z m 115.03895,2.16952 c -0.19591,0.005 -0.52706,0.31894 -0.90076,0.89724 -0.59802,0.9253 -1.08652,2.18705 -1.08652,2.80391 0,0.61686 0.4885,0.36451 1.08652,-0.56078 0.59792,-0.92528 1.08651,-2.18704 1.08651,-2.80391 0,-0.23131 -0.0682,-0.33926 -0.18575,-0.33646 z m -16.20657,1.04972 c -0.6207,0.0615 -0.9997,3.42904 -1.07777,9.9451 -0.0664,5.55041 0.18803,10.09054 0.56605,10.09054 0.80079,0 5.72347,-12.33662 5.72347,-14.34372 0,-1.78505 -1.92027,-1.75207 -2.54279,0.0438 -0.26729,0.77107 -0.85376,-0.23834 -1.30382,-2.24313 -0.53354,-2.37706 -0.99272,-3.5295 -1.36514,-3.4926 z m 22.72038,0.27863 c 0.13406,-0.006 0.28215,0.0344 0.43635,0.12967 0.61687,0.38125 1.12157,1.1685 1.12157,1.74895 0,0.58046 -0.5047,1.05496 -1.12157,1.05496 -0.61685,0 -1.12156,-0.78548 -1.12156,-1.74717 0,-0.7213 0.28303,-1.1686 0.68521,-1.18641 z m -39.50001,0.69046 c -1.21971,0 -1.57084,0.60421 -1.0865,1.86635 0.39362,1.02576 1.30816,5.31409 2.03108,9.52977 0.72291,4.21568 1.6479,7.28828 2.05561,6.82751 1.46439,-1.65485 3.35898,-11.75083 2.63391,-14.0353 -0.72354,-2.27955 -0.7754,-2.27005 -2.24662,0.38554 l -1.50535,2.71628 -0.0386,-3.64508 c -0.0282,-2.58372 -0.56598,-3.64507 -1.84358,-3.64507 z m -15.3689,0.12793 c -0.6976,-0.10315 -0.67593,2.97759 0.30493,7.97009 0.76113,3.87422 1.69194,7.54346 2.06788,8.15411 0.37595,0.61064 1.034,-0.14642 1.46153,-1.68234 1.20483,-4.32883 1.12788,-13.23721 -0.12092,-14.00901 -0.61837,-0.38217 -1.15393,0.47008 -1.1934,1.8979 l -0.0701,2.58835 -1.07425,-2.68474 c -0.59269,-1.48166 -1.05858,-2.18747 -1.37566,-2.23436 z m -36.72062,1.36866 c -0.92359,-0.0361 -0.66766,0.49388 0.89374,2.23085 3.65736,4.06859 4.2169,5.98871 0.87446,3.00193 -2.4913,-2.22625 -2.03198,-1.12869 2.22736,5.32742 2.95051,4.47222 5.79463,8.13133 6.32104,8.13133 1.23579,0 1.30964,0.37049 -1.28628,-6.4595 -1.23345,-3.24513 -2.24313,-7.21149 -2.24313,-8.81302 0,-2.03731 -0.47163,-2.73021 -1.57193,-2.30797 -0.86495,0.33196 -1.8898,0.28671 -2.27643,-0.0999 -0.38662,-0.38659 -1.49823,-0.81935 -2.47094,-0.96209 -0.17972,-0.0264 -0.33596,-0.0439 -0.46789,-0.049 z m 85.3859,5.23278 c -0.66586,0 -1.21094,0.69396 -1.21094,1.54215 0,0.84817 -0.28666,3.24551 -0.63614,5.32742 -0.44199,2.63272 -0.30961,3.27302 0.43285,2.10293 1.79136,-2.82303 2.76064,-8.9725 1.41423,-8.9725 z m 13.77768,0.38905 c 0.10201,0.0155 0.22321,0.18671 0.3575,0.52222 0.32373,0.80963 0.28509,1.77756 -0.0877,2.15024 -0.37272,0.37269 -0.63727,-0.28973 -0.58882,-1.47204 0.0335,-0.8166 0.14894,-1.22617 0.31895,-1.20042 z m -16.74282,0.93404 c -0.364,0.0273 -1.02338,1.05804 -1.57719,2.51476 -0.63301,1.66481 -1.65665,2.71445 -2.27467,2.3325 -0.61803,-0.38196 -1.20111,0.21945 -1.29506,1.33535 -0.0939,1.11593 -0.22621,2.62312 -0.2944,3.35067 -0.0681,0.72752 -0.49501,1.69547 -0.94983,2.15025 -0.45472,0.45477 -0.82715,1.24714 -0.82715,1.7612 0,0.51405 0.43816,0.93405 0.97436,0.93405 1.16839,0 7.18897,-13.51782 6.38063,-14.32619 -0.0387,-0.0388 -0.0847,-0.0564 -0.13669,-0.0525 z m -93.14746,0.16474 c -0.0436,0.0115 -0.0842,0.0351 -0.12092,0.0719 -0.29402,0.29399 -0.20159,1.07351 0.20504,1.73141 1.10595,1.7894 1.75208,1.44183 0.99364,-0.53449 -0.31961,-0.83291 -0.77259,-1.34968 -1.07776,-1.26877 z m -5.63058,1.14434 c -0.17,-0.0257 -0.28531,0.38382 -0.31895,1.20042 l -0.002,0 c -0.0488,1.18231 0.21611,1.84473 0.58883,1.47205 0.37298,-0.37268 0.41337,-1.34062 0.0894,-2.15024 -0.1343,-0.33552 -0.25552,-0.50678 -0.3575,-0.52223 z m 109.28042,1.92768 c 0.15718,0.0305 0.19961,0.4463 0.20679,1.26351 0.01,1.04309 -0.48718,2.20712 -1.10405,2.58836 -1.41944,0.87725 -1.41944,-0.60748 0,-2.80391 0.46846,-0.72491 0.74009,-1.07843 0.89726,-1.04796 z m -101.34187,1.42649 c -0.29847,0.0295 -0.49595,0.2699 -0.49595,0.67819 0,0.65327 0.50471,1.1864 1.12157,1.1864 0.61686,0 1.12156,-0.22215 1.12156,-0.49419 0,-0.27201 -0.5047,-0.80691 -1.12156,-1.18815 -0.23133,-0.14296 -0.44654,-0.19998 -0.62562,-0.18225 z m -10.18168,2.25364 c -0.16999,-0.0257 -0.2853,0.38382 -0.31894,1.20042 l -0.002,0 c -0.0488,1.18231 0.21609,1.84472 0.58882,1.47205 0.37298,-0.37268 0.41337,-1.34062 0.0894,-2.15024 -0.13429,-0.33552 -0.25551,-0.50679 -0.35749,-0.52223 z m 101.61875,4.0972 c -0.59756,0 -1.08651,0.75705 -1.08651,1.68235 0,0.92528 0.19753,1.68234 0.43986,1.68234 0.24245,0 0.73148,-0.75706 1.08651,-1.68234 0.35505,-0.9253 0.15763,-1.68235 -0.43986,-1.68235 z m 2.05738,6.95368 c -0.19591,0.005 -0.52706,0.31895 -0.90076,0.89725 -0.59802,0.92529 -1.08652,2.18705 -1.08652,2.8039 0,0.61687 0.4885,0.36452 1.08652,-0.56078 0.59792,-0.92528 1.08651,-2.18704 1.08651,-2.8039 0,-0.23132 -0.0682,-0.33926 -0.18575,-0.33647 z"
       id="path4503"
       inkscape:connector-curvature="0" />
  </g>
</svg>
