<?xml version="1.0" encoding="UTF-8" standalone="no"?>
<svg
   xmlns:dc="http://purl.org/dc/elements/1.1/"
   xmlns:cc="http://creativecommons.org/ns#"
   xmlns:rdf="http://www.w3.org/1999/02/22-rdf-syntax-ns#"
   xmlns:svg="http://www.w3.org/2000/svg"
   xmlns="http://www.w3.org/2000/svg"
   xmlns:sodipodi="http://sodipodi.sourceforge.net/DTD/sodipodi-0.dtd"
   xmlns:inkscape="http://www.inkscape.org/namespaces/inkscape"
   version="1.1"
   id="svg2"
   viewBox="0 0 2404.6025 1831.8519"
   height="1831.8519"
   width="2404.6025"
   inkscape:version="0.91 r13725"
   sodipodi:docname="poster.svg">
  <sodipodi:namedview
     pagecolor="#ffffff"
     bordercolor="#666666"
     borderopacity="1"
     objecttolerance="10"
     gridtolerance="10"
     guidetolerance="10"
     inkscape:pageopacity="0"
     inkscape:pageshadow="2"
     inkscape:window-width="1847"
     inkscape:window-height="1053"
     id="namedview4272"
     showgrid="false"
     inkscape:zoom="0.35087992"
     inkscape:cx="1010.8536"
     inkscape:cy="915.92596"
     inkscape:window-x="73"
     inkscape:window-y="27"
     inkscape:window-maximized="1"
     inkscape:current-layer="svg2" />
  <defs
     id="defs4" />
  <metadata
     id="metadata7">
    <rdf:RDF>
      <cc:Work
         rdf:about="">
        <dc:format>image/svg+xml</dc:format>
        <dc:type
           rdf:resource="http://purl.org/dc/dcmitype/StillImage" />
        <dc:title />
      </cc:Work>
    </rdf:RDF>
  </metadata>
  <path
     id="rect4136"
     d="m 366.97831,112.03856 1004.99999,0 0,1400.00004 -1004.99999,0 z"
     style="opacity:1;fill:#f0f0f0;fill-opacity:1;stroke:none;stroke-width:3;stroke-miterlimit:4;stroke-dasharray:none;stroke-opacity:1"
     inkscape:connector-curvature="0" />
  <path
     id="rect4138"
     d="m 448.97831,217.53856 840.99999,0 0,1189.00004 -840.99999,0 z"
     style="opacity:1;fill:#323232;fill-opacity:1;stroke:none;stroke-width:3;stroke-miterlimit:4;stroke-dasharray:none;stroke-opacity:1"
     inkscape:connector-curvature="0" />
  <path
     style="fill:none;fill-rule:evenodd;stroke:#323232;stroke-width:15;stroke-linecap:butt;stroke-linejoin:miter;stroke-miterlimit:4;stroke-dasharray:none;stroke-opacity:1"
     d="m 1289.3408,165.61844 209.735,0"
     id="path4148"
     inkscape:connector-curvature="0" />
  <path
     id="path4150"
     d="m 1329.5369,165.61845 a 21.348034,21.348034 0 0 1 -21.3481,21.34804 21.348034,21.348034 0 0 1 -21.348,-21.34804 21.348034,21.348034 0 0 1 21.348,-21.34803 21.348034,21.348034 0 0 1 21.3481,21.34803 z"
     style="opacity:1;fill:#323232;fill-opacity:1;stroke:#1e1e1e;stroke-width:7;stroke-miterlimit:4;stroke-dasharray:none;stroke-opacity:1"
     inkscape:connector-curvature="0" />
  <g
     id="g4168"
     transform="translate(-91.922022,785.13658)">
    <path
       id="path4156"
       d="m 292.83198,-671.95947 0,1398.48343"
       style="fill:none;fill-rule:evenodd;stroke:#464646;stroke-width:8;stroke-linecap:butt;stroke-linejoin:miter;stroke-miterlimit:4;stroke-dasharray:none;stroke-opacity:1"
       inkscape:connector-curvature="0" />
    <g
       id="text4158"
       style="font-style:normal;font-weight:normal;font-size:43.60723877px;line-height:125%;font-family:sans-serif;letter-spacing:0px;word-spacing:0px;fill:#000000;fill-opacity:1;stroke:none;stroke-width:1px;stroke-linecap:butt;stroke-linejoin:miter;stroke-opacity:1"
       transform="matrix(0,-1,1,0,0,0)">
      <path
         id="path4289"
         style="font-style:normal;font-variant:normal;font-weight:normal;font-stretch:normal;font-size:81.76357269px;font-family:'Helvetica Neue';-inkscape-font-specification:'Helvetica Neue';letter-spacing:0px;fill:#464646;fill-opacity:1"
         d="m -171.24426,249.8924 0,-57.97038 -5.31464,0 q -0.57234,3.27054 -2.12585,5.3964 -1.55351,2.12585 -3.84289,3.3523 -2.20761,1.22646 -4.98758,1.71704 -2.77996,0.40882 -5.72345,0.40882 l 0,5.55992 15.0445,0 0,41.5359 6.94991,0 z"
         inkscape:connector-curvature="0" />
      <path
         id="path4291"
         style="font-style:normal;font-variant:normal;font-weight:normal;font-stretch:normal;font-size:81.76357269px;font-family:'Helvetica Neue';-inkscape-font-specification:'Helvetica Neue';letter-spacing:0px;fill:#464646;fill-opacity:1"
         d="m -127.12132,230.18737 -19.45973,0 19.29621,-28.37196 0.16352,0 0,28.37196 z m 6.54109,0 0,-38.26535 -5.55992,0 -26.40964,37.69301 0,6.70461 25.42847,0 0,13.57276 6.54109,0 0,-13.57276 7.8493,0 0,-6.13227 -7.8493,0 z"
         inkscape:connector-curvature="0" />
      <path
         id="path4293"
         style="font-style:normal;font-variant:normal;font-weight:normal;font-stretch:normal;font-size:81.76357269px;font-family:'Helvetica Neue';-inkscape-font-specification:'Helvetica Neue';letter-spacing:0px;fill:#464646;fill-opacity:1"
         d="m -98.533449,221.35691 q 0,-2.12585 0,-4.66053 0.08176,-2.61643 0.408818,-5.1511 0.408818,-2.61643 1.062926,-5.06934 0.735873,-2.45291 2.04409,-4.25171 1.38998,-1.88056 3.43407,-3.02525 2.044089,-1.14469 4.987578,-1.14469 2.943488,0 4.987578,1.14469 2.044089,1.14469 3.352306,3.02525 1.389981,1.7988 2.044089,4.25171 0.735873,2.45291 1.062927,5.06934 0.408818,2.53467 0.408818,5.1511 0.08176,2.53468 0.08176,4.66053 0,3.27054 -0.24529,7.35872 -0.163528,4.00641 -1.308218,7.60401 -1.062926,3.51584 -3.515833,5.96874 -2.452907,2.45291 -6.86814,2.45291 -4.415233,0 -6.86814,-2.45291 -2.452908,-2.4529 -3.597598,-5.96874 -1.062926,-3.5976 -1.308217,-7.60401 -0.163527,-4.08818 -0.163527,-7.35872 z m -7.358721,0.0818 q 0,3.18878 0.16353,6.62285 0.16352,3.43407 0.81763,6.70461 0.65411,3.27055 1.88056,6.21404 1.22646,2.86172 3.352311,5.06934 2.125853,2.20761 5.314632,3.51583 3.270543,1.22645 7.76754,1.22645 4.57876,0 7.767539,-1.22645 3.188779,-1.30822 5.314632,-3.51583 2.125853,-2.20762 3.352307,-5.06934 1.226453,-2.94349 1.880562,-6.21404 0.654109,-3.27054 0.817636,-6.70461 0.163527,-3.43407 0.163527,-6.62285 0,-3.18878 -0.163527,-6.62285 -0.163527,-3.43407 -0.817636,-6.70461 -0.654109,-3.27054 -1.880562,-6.21403 -1.226454,-2.94349 -3.352307,-5.15111 -2.125853,-2.20761 -5.396395,-3.51583 -3.18878,-1.30822 -7.685776,-1.30822 -4.496997,0 -7.76754,1.30822 -3.188779,1.30822 -5.314632,3.51583 -2.125851,2.20762 -3.352311,5.15111 -1.22645,2.94349 -1.88056,6.21403 -0.65411,3.27054 -0.81763,6.70461 -0.16353,3.43407 -0.16353,6.62285 z"
         inkscape:connector-curvature="0" />
      <path
         id="path4295"
         style="font-style:normal;font-variant:normal;font-weight:normal;font-stretch:normal;font-size:81.76357269px;font-family:'Helvetica Neue';-inkscape-font-specification:'Helvetica Neue';letter-spacing:0px;fill:#464646;fill-opacity:1"
         d="m -53.020517,221.35691 q 0,-2.12585 0,-4.66053 0.08176,-2.61643 0.408818,-5.1511 0.408818,-2.61643 1.062926,-5.06934 0.735872,-2.45291 2.04409,-4.25171 1.38998,-1.88056 3.43407,-3.02525 2.044089,-1.14469 4.987577,-1.14469 2.943489,0 4.987578,1.14469 2.04409,1.14469 3.352307,3.02525 1.389981,1.7988 2.044089,4.25171 0.735872,2.45291 1.062927,5.06934 0.408818,2.53467 0.408818,5.1511 0.08176,2.53468 0.08176,4.66053 0,3.27054 -0.245291,7.35872 -0.163527,4.00641 -1.308217,7.60401 -1.062926,3.51584 -3.515833,5.96874 -2.452908,2.45291 -6.868141,2.45291 -4.415232,0 -6.86814,-2.45291 -2.452907,-2.4529 -3.597597,-5.96874 -1.062926,-3.5976 -1.308217,-7.60401 -0.163527,-4.08818 -0.163527,-7.35872 z m -7.358722,0.0818 q 0,3.18878 0.163527,6.62285 0.163528,3.43407 0.817636,6.70461 0.654109,3.27055 1.880562,6.21404 1.226454,2.86172 3.352307,5.06934 2.125853,2.20761 5.314632,3.51583 3.270543,1.22645 7.767539,1.22645 4.578761,0 7.76754,-1.22645 3.188779,-1.30822 5.314632,-3.51583 2.125853,-2.20762 3.352307,-5.06934 1.226453,-2.94349 1.880562,-6.21404 0.654108,-3.27054 0.817636,-6.70461 0.163527,-3.43407 0.163527,-6.62285 0,-3.18878 -0.163527,-6.62285 -0.163528,-3.43407 -0.817636,-6.70461 -0.654109,-3.27054 -1.880562,-6.21403 -1.226454,-2.94349 -3.352307,-5.15111 -2.125853,-2.20761 -5.396396,-3.51583 -3.188779,-1.30822 -7.685776,-1.30822 -4.496996,0 -7.767539,1.30822 -3.188779,1.30822 -5.314632,3.51583 -2.125853,2.20762 -3.352307,5.15111 -1.226453,2.94349 -1.880562,6.21403 -0.654108,3.27054 -0.817636,6.70461 -0.163527,3.43407 -0.163527,6.62285 z"
         inkscape:connector-curvature="0" />
      <path
         id="path4297"
         style="font-style:normal;font-variant:normal;font-weight:normal;font-stretch:normal;font-size:81.76357269px;font-family:'Helvetica Neue';-inkscape-font-specification:'Helvetica Neue';letter-spacing:0px;fill:#464646;fill-opacity:1"
         d="m 9.6091046,207.62063 0,42.27177 6.9499034,0 0,-26.32788 q 0,-1.22645 0.572345,-3.02525 0.654109,-1.88056 1.962326,-3.59759 1.389981,-1.71704 3.515834,-2.94349 2.207616,-1.22646 5.232868,-1.22646 2.371144,0 3.842888,0.73588 1.553508,0.6541 2.452907,1.96232 0.8994,1.22645 1.226454,2.94349 0.408818,1.71703 0.408818,3.76112 l 0,27.71786 6.949904,0 0,-26.32788 q 0,-4.90581 2.943488,-7.8493 2.943489,-2.94349 8.094594,-2.94349 2.534671,0 4.088179,0.73588 1.635271,0.73587 2.53467,2.04408 0.8994,1.22646 1.226454,2.94349 0.327054,1.71704 0.327054,3.67936 l 0,27.71786 6.949904,0 0,-30.9884 q 0,-3.27054 -1.062927,-5.55992 -0.981163,-2.37115 -2.861725,-3.84289 -1.798798,-1.47174 -4.415233,-2.12585 -2.53467,-0.73587 -5.72345,-0.73587 -4.169942,0 -7.685776,1.88056 -3.43407,1.88056 -5.559922,5.31463 -1.308218,-3.92465 -4.496997,-5.55992 -3.188779,-1.63527 -7.113431,-1.63527 -8.912229,0 -13.654516,7.19519 l -0.163528,0 0,-6.21403 -6.5410854,0 z"
         inkscape:connector-curvature="0" />
      <path
         id="path4299"
         style="font-style:normal;font-variant:normal;font-weight:normal;font-stretch:normal;font-size:81.76357269px;font-family:'Helvetica Neue';-inkscape-font-specification:'Helvetica Neue';letter-spacing:0px;fill:#464646;fill-opacity:1"
         d="m 79.395573,207.62063 0,42.27177 6.949904,0 0,-26.32788 q 0,-1.22645 0.572345,-3.02525 0.654108,-1.88056 1.962326,-3.59759 1.38998,-1.71704 3.515833,-2.94349 2.207617,-1.22646 5.232869,-1.22646 2.371143,0 3.84289,0.73588 1.55351,0.6541 2.4529,1.96232 0.8994,1.22645 1.22646,2.94349 0.40882,1.71703 0.40882,3.76112 l 0,27.71786 6.9499,0 0,-26.32788 q 0,-4.90581 2.94349,-7.8493 2.94349,-2.94349 8.09459,-2.94349 2.53467,0 4.08818,0.73588 1.63527,0.73587 2.53467,2.04408 0.8994,1.22646 1.22646,2.94349 0.32705,1.71704 0.32705,3.67936 l 0,27.71786 6.9499,0 0,-30.9884 q 0,-3.27054 -1.06292,-5.55992 -0.98117,-2.37115 -2.86173,-3.84289 -1.7988,-1.47174 -4.41523,-2.12585 -2.53467,-0.73587 -5.72345,-0.73587 -4.16994,0 -7.68578,1.88056 -3.43407,1.88056 -5.55992,5.31463 -1.30822,-3.92465 -4.497,-5.55992 -3.18878,-1.63527 -7.113427,-1.63527 -8.91223,0 -13.654517,7.19519 l -0.163527,0 0,-6.21403 -6.541086,0 z"
         inkscape:connector-curvature="0" />
    </g>
  </g>
  <g
     id="g4184"
     transform="translate(-91.922022,845.13658)">
    <path
       style="fill:none;fill-rule:evenodd;stroke:#464646;stroke-width:6.78179026;stroke-linecap:butt;stroke-linejoin:miter;stroke-miterlimit:4;stroke-dasharray:none;stroke-opacity:1"
       d="m 458.90034,785.19622 1004.99996,0"
       id="path4175"
       inkscape:connector-curvature="0" />
    <g
       id="text4177"
       style="font-style:normal;font-weight:normal;font-size:43.60723877px;line-height:125%;font-family:sans-serif;letter-spacing:0px;word-spacing:0px;fill:#000000;fill-opacity:1;stroke:none;stroke-width:1px;stroke-linecap:butt;stroke-linejoin:miter;stroke-opacity:1">
      <path
         id="path4302"
         style="font-style:normal;font-variant:normal;font-weight:normal;font-stretch:normal;font-size:81.76357269px;font-family:'Helvetica Neue';-inkscape-font-specification:'Helvetica Neue';letter-spacing:0px;fill:#464646;fill-opacity:1"
         d="m 817.43828,885.81592 0,-57.97038 -5.31464,0 q -0.57234,3.27055 -2.12585,5.3964 -1.55351,2.12585 -3.84289,3.35231 -2.20761,1.22645 -4.98757,1.71703 -2.77997,0.40882 -5.72345,0.40882 l 0,5.55992 15.04449,0 0,41.5359 6.94991,0 z"
         inkscape:connector-curvature="0" />
      <path
         id="path4304"
         style="font-style:normal;font-variant:normal;font-weight:normal;font-stretch:normal;font-size:81.76357269px;font-family:'Helvetica Neue';-inkscape-font-specification:'Helvetica Neue';letter-spacing:0px;fill:#464646;fill-opacity:1"
         d="m 844.63616,857.28043 q 0,-2.12585 0,-4.66052 0.0818,-2.61644 0.40882,-5.15111 0.40882,-2.61643 1.06293,-5.06934 0.73587,-2.45291 2.04409,-4.2517 1.38998,-1.88057 3.43407,-3.02526 2.04409,-1.14469 4.98758,-1.14469 2.94348,0 4.98757,1.14469 2.04409,1.14469 3.35231,3.02526 1.38998,1.79879 2.04409,4.2517 0.73587,2.45291 1.06293,5.06934 0.40881,2.53467 0.40881,5.15111 0.0818,2.53467 0.0818,4.66052 0,3.27054 -0.24529,7.35872 -0.16353,4.00642 -1.30822,7.60401 -1.06293,3.51584 -3.51583,5.96875 -2.45291,2.4529 -6.86814,2.4529 -4.41524,0 -6.86814,-2.4529 -2.45291,-2.45291 -3.5976,-5.96875 -1.06293,-3.59759 -1.30822,-7.60401 -0.16353,-4.08818 -0.16353,-7.35872 z m -7.35872,0.0818 q 0,3.18878 0.16353,6.62285 0.16353,3.43407 0.81764,6.70462 0.6541,3.27054 1.88056,6.21403 1.22645,2.86172 3.3523,5.06934 2.12586,2.20762 5.31464,3.51583 3.27054,1.22646 7.76754,1.22646 4.57876,0 7.76753,-1.22646 3.18878,-1.30821 5.31464,-3.51583 2.12585,-2.20762 3.3523,-5.06934 1.22646,-2.94349 1.88057,-6.21403 0.6541,-3.27055 0.81763,-6.70462 0.16353,-3.43407 0.16353,-6.62285 0,-3.18877 -0.16353,-6.62284 -0.16353,-3.43407 -0.81763,-6.70462 -0.65411,-3.27054 -1.88057,-6.21403 -1.22645,-2.94349 -3.3523,-5.1511 -2.12586,-2.20762 -5.3964,-3.51584 -3.18878,-1.30822 -7.68577,-1.30822 -4.497,0 -7.76754,1.30822 -3.18878,1.30822 -5.31464,3.51584 -2.12585,2.20761 -3.3523,5.1511 -1.22646,2.94349 -1.88056,6.21403 -0.65411,3.27055 -0.81764,6.70462 -0.16353,3.43407 -0.16353,6.62284 z"
         inkscape:connector-curvature="0" />
      <path
         id="path4306"
         style="font-style:normal;font-variant:normal;font-weight:normal;font-stretch:normal;font-size:81.76357269px;font-family:'Helvetica Neue';-inkscape-font-specification:'Helvetica Neue';letter-spacing:0px;fill:#464646;fill-opacity:1"
         d="m 890.14909,857.28043 q 0,-2.12585 0,-4.66052 0.0818,-2.61644 0.40882,-5.15111 0.40882,-2.61643 1.06293,-5.06934 0.73587,-2.45291 2.04409,-4.2517 1.38998,-1.88057 3.43407,-3.02526 2.04408,-1.14469 4.98757,-1.14469 2.94349,0 4.98758,1.14469 2.04409,1.14469 3.35231,3.02526 1.38998,1.79879 2.04409,4.2517 0.73587,2.45291 1.06292,5.06934 0.40882,2.53467 0.40882,5.15111 0.0818,2.53467 0.0818,4.66052 0,3.27054 -0.2453,7.35872 -0.16352,4.00642 -1.30821,7.60401 -1.06293,3.51584 -3.51584,5.96875 -2.4529,2.4529 -6.86814,2.4529 -4.41523,0 -6.86814,-2.4529 -2.4529,-2.45291 -3.59759,-5.96875 -1.06293,-3.59759 -1.30822,-7.60401 -0.16353,-4.08818 -0.16353,-7.35872 z m -7.35872,0.0818 q 0,3.18878 0.16353,6.62285 0.16352,3.43407 0.81763,6.70462 0.65411,3.27054 1.88057,6.21403 1.22645,2.86172 3.3523,5.06934 2.12585,2.20762 5.31463,3.51583 3.27055,1.22646 7.76754,1.22646 4.57876,0 7.76754,-1.22646 3.18878,-1.30821 5.31464,-3.51583 2.12585,-2.20762 3.3523,-5.06934 1.22646,-2.94349 1.88056,-6.21403 0.65411,-3.27055 0.81764,-6.70462 0.16353,-3.43407 0.16353,-6.62285 0,-3.18877 -0.16353,-6.62284 -0.16353,-3.43407 -0.81764,-6.70462 -0.6541,-3.27054 -1.88056,-6.21403 -1.22645,-2.94349 -3.3523,-5.1511 -2.12586,-2.20762 -5.3964,-3.51584 -3.18878,-1.30822 -7.68578,-1.30822 -4.49699,0 -7.76754,1.30822 -3.18878,1.30822 -5.31463,3.51584 -2.12585,2.20761 -3.3523,5.1511 -1.22646,2.94349 -1.88057,6.21403 -0.65411,3.27055 -0.81763,6.70462 -0.16353,3.43407 -0.16353,6.62284 z"
         inkscape:connector-curvature="0" />
      <path
         id="path4308"
         style="font-style:normal;font-variant:normal;font-weight:normal;font-stretch:normal;font-size:81.76357269px;font-family:'Helvetica Neue';-inkscape-font-specification:'Helvetica Neue';letter-spacing:0px;fill:#464646;fill-opacity:1"
         d="m 963.29811,834.95898 0,-6.13227 -28.61725,0 -5.39639,30.08899 5.96874,0.32706 q 2.04409,-2.45291 4.66052,-3.92465 2.6982,-1.55351 6.13227,-1.55351 2.94349,0 5.31463,0.98116 2.45291,0.98116 4.16994,2.77996 1.71704,1.71704 2.61644,4.16994 0.98116,2.37115 0.98116,5.23287 0,3.43407 -0.98116,6.05051 -0.98117,2.53467 -2.6982,4.2517 -1.63527,1.71704 -3.92465,2.61644 -2.20762,0.81763 -4.66053,0.81763 -2.61643,0 -4.82405,-0.73587 -2.12585,-0.81763 -3.76112,-2.20762 -1.55351,-1.47174 -2.53467,-3.3523 -0.8994,-1.96233 -1.06293,-4.16994 l -6.9499,0 q 0.0818,3.92465 1.55351,7.03166 1.47174,3.10702 4.00641,5.23287 2.53467,2.04409 5.80521,3.18878 3.35231,1.06293 7.11343,1.06293 5.06935,0 8.83047,-1.55351 3.84289,-1.63527 6.37756,-4.33347 2.53467,-2.6982 3.76112,-6.13227 1.30822,-3.51583 1.30822,-7.19519 0,-4.98758 -1.47174,-8.66694 -1.47175,-3.76113 -4.00642,-6.21403 -2.53467,-2.53467 -5.96874,-3.76113 -3.43407,-1.22645 -7.27696,-1.22645 -2.94349,0 -5.96874,1.06293 -2.94349,0.98116 -4.82405,3.10701 l -0.16353,-0.16353 3.10702,-16.67976 23.38438,0 z"
         inkscape:connector-curvature="0" />
      <path
         id="path4310"
         style="font-style:normal;font-variant:normal;font-weight:normal;font-stretch:normal;font-size:81.76357269px;font-family:'Helvetica Neue';-inkscape-font-specification:'Helvetica Neue';letter-spacing:0px;fill:#464646;fill-opacity:1"
         d="m 998.29165,843.54415 0,42.27177 6.94985,0 0,-26.32787 q 0,-1.22646 0.5724,-3.02525 0.6541,-1.88057 1.9623,-3.5976 1.39,-1.71704 3.5159,-2.94349 2.2076,-1.22645 5.2328,-1.22645 2.3712,0 3.8429,0.73587 1.5535,0.65411 2.4529,1.96232 0.8994,1.22646 1.2265,2.94349 0.4088,1.71704 0.4088,3.76113 l 0,27.71785 6.9499,0 0,-26.32787 q 0,-4.90582 2.9435,-7.84931 2.9435,-2.94348 8.0946,-2.94348 2.5346,0 4.0882,0.73587 1.6352,0.73587 2.5346,2.04409 0.8994,1.22645 1.2265,2.94349 0.327,1.71703 0.327,3.67936 l 0,27.71785 6.9499,0 0,-30.9884 q 0,-3.27054 -1.0629,-5.55992 -0.9812,-2.37114 -2.8617,-3.84289 -1.7988,-1.47174 -4.4152,-2.12585 -2.5347,-0.73587 -5.7235,-0.73587 -4.1699,0 -7.6858,1.88056 -3.434,1.88056 -5.5599,5.31463 -1.3082,-3.92465 -4.497,-5.55992 -3.1888,-1.63527 -7.1134,-1.63527 -8.9123,0 -13.6545,7.19519 l -0.1636,0 0,-6.21403 -6.54105,0 z"
         inkscape:connector-curvature="0" />
      <path
         id="path4312"
         style="font-style:normal;font-variant:normal;font-weight:normal;font-stretch:normal;font-size:81.76357269px;font-family:'Helvetica Neue';-inkscape-font-specification:'Helvetica Neue';letter-spacing:0px;fill:#464646;fill-opacity:1"
         d="m 1068.0781,843.54415 0,42.27177 6.9499,0 0,-26.32787 q 0,-1.22646 0.5724,-3.02525 0.6541,-1.88057 1.9623,-3.5976 1.39,-1.71704 3.5158,-2.94349 2.2076,-1.22645 5.2329,-1.22645 2.3711,0 3.8429,0.73587 1.5535,0.65411 2.4529,1.96232 0.8994,1.22646 1.2264,2.94349 0.4089,1.71704 0.4089,3.76113 l 0,27.71785 6.9499,0 0,-26.32787 q 0,-4.90582 2.9434,-7.84931 2.9435,-2.94348 8.0946,-2.94348 2.5347,0 4.0882,0.73587 1.6353,0.73587 2.5347,2.04409 0.8994,1.22645 1.2264,2.94349 0.3271,1.71703 0.3271,3.67936 l 0,27.71785 6.9499,0 0,-30.9884 q 0,-3.27054 -1.0629,-5.55992 -0.9812,-2.37114 -2.8617,-3.84289 -1.7988,-1.47174 -4.4153,-2.12585 -2.5347,-0.73587 -5.7234,-0.73587 -4.17,0 -7.6858,1.88056 -3.4341,1.88056 -5.5599,5.31463 -1.3082,-3.92465 -4.497,-5.55992 -3.1888,-1.63527 -7.1135,-1.63527 -8.9122,0 -13.6545,7.19519 l -0.1635,0 0,-6.21403 -6.5411,0 z"
         inkscape:connector-curvature="0" />
    </g>
  </g>
  <g
     style="font-style:normal;font-weight:normal;font-size:122.47595215px;line-height:125%;font-family:sans-serif;letter-spacing:0px;word-spacing:0px;fill:#323232;fill-opacity:1;stroke:none;stroke-width:1px;stroke-linecap:butt;stroke-linejoin:miter;stroke-opacity:1"
     id="text4274">
    <path
       d="m 1530.7642,224.34038 18.0039,0 0,-17.75901 -0.6124,-9.6756 c 4.2867,4.04171 9.1857,6.36875 14.4522,6.36875 13.1049,0 25.5975,-12.00264 25.5975,-32.82355 0,-18.73882 -9.0632,-30.86394 -23.7604,-30.86394 -6.3687,0 -12.4925,3.18437 -17.2691,7.47103 l -0.4899,0 -1.2247,-6.00132 -14.6971,0 0,83.28364 z m 27.6795,-35.76297 c -3.0619,0 -6.4912,-0.97981 -9.6756,-3.91923 l 0,-24.86262 c 3.5518,-3.79676 6.7362,-5.51142 10.4105,-5.51142 7.2261,0 10.5329,5.51142 10.5329,16.41178 0,12.49254 -5.0215,17.88149 -11.2678,17.88149 z"
       style="font-style:normal;font-variant:normal;font-weight:bold;font-stretch:normal;font-family:'Source Sans Pro';-inkscape-font-specification:'Source Sans Pro Bold';fill:#323232;fill-opacity:1"
       id="path4387" />
    <path
       d="m 1626.9403,203.27452 c 15.3095,0 29.5167,-11.63521 29.5167,-31.84375 0,-20.20853 -14.2072,-31.84374 -29.5167,-31.84374 -15.432,0 -29.6392,11.63521 -29.6392,31.84374 0,20.20854 14.2072,31.84375 29.6392,31.84375 z m 0,-14.57464 c -7.471,0 -11.1453,-6.73617 -11.1453,-17.26911 0,-10.53293 3.6743,-17.26911 11.1453,-17.26911 7.3486,0 11.1453,6.73618 11.1453,17.26911 0,10.53294 -3.7967,17.26911 -11.1453,17.26911 z"
       style="font-style:normal;font-variant:normal;font-weight:bold;font-stretch:normal;font-family:'Source Sans Pro';-inkscape-font-specification:'Source Sans Pro Bold';fill:#323232;fill-opacity:1"
       id="path4389" />
    <path
       d="m 1685.9527,203.27452 c 16.2893,0 24.9851,-8.57332 24.9851,-19.59615 0,-11.14531 -8.6958,-15.43197 -16.4118,-18.24892 -6.2463,-2.32704 -11.8802,-3.79675 -11.8802,-7.71598 0,-3.0619 2.2046,-4.77657 6.8587,-4.77657 4.2866,0 8.4508,1.95962 12.8599,5.14399 l 8.0835,-10.77788 c -5.2665,-3.91923 -12.1252,-7.71598 -21.4333,-7.71598 -14.0848,0 -23.2705,7.71598 -23.2705,18.98377 0,10.04303 8.6958,15.06454 16.0444,17.88149 6.2463,2.44952 12.3701,4.28666 12.3701,8.32836 0,3.18438 -2.3271,5.14399 -7.716,5.14399 -5.144,0 -10.1655,-2.20456 -15.6769,-6.36875 l -8.0835,11.26779 c 6.1238,5.02151 15.3095,8.45084 23.2705,8.45084 z"
       style="font-style:normal;font-variant:normal;font-weight:bold;font-stretch:normal;font-family:'Source Sans Pro';-inkscape-font-specification:'Source Sans Pro Bold';fill:#323232;fill-opacity:1"
       id="path4391" />
    <path
       d="m 1743.3728,203.27452 c 5.8789,0 10.288,-1.22476 13.4724,-2.20457 l -2.817,-13.10492 c -1.5921,0.61238 -3.7967,1.22476 -5.7563,1.22476 -4.7766,0 -7.8385,-2.81695 -7.8385,-9.6756 l 0,-24.37272 14.5747,0 0,-14.08473 -14.5747,0 0,-16.16683 -14.942,0 -2.0821,16.16683 -9.3082,0.73485 0,13.34988 8.3284,0 0,24.61767 c 0,14.08473 5.8788,23.51538 20.9433,23.51538 z"
       style="font-style:normal;font-variant:normal;font-weight:bold;font-stretch:normal;font-family:'Source Sans Pro';-inkscape-font-specification:'Source Sans Pro Bold';fill:#323232;fill-opacity:1"
       id="path4393" />
    <path
       d="m 1791.902,203.27452 c 7.2261,0 15.3095,-2.57199 21.5558,-6.85865 l -6.0013,-10.90036 c -4.4092,2.69447 -8.5733,4.0417 -13.1049,4.0417 -8.0835,0 -14.2073,-4.0417 -15.7994,-12.85997 l 36.3753,0 c 0.3674,-1.46971 0.7349,-4.77656 0.7349,-7.96094 0,-16.53425 -8.5733,-29.14927 -25.8425,-29.14927 -14.5746,0 -28.6593,12.12512 -28.6593,31.84374 0,20.08606 13.3498,31.84375 30.7414,31.84375 z m -13.4723,-38.45745 c 1.2247,-7.71598 6.1238,-11.51274 11.7577,-11.51274 7.2261,0 10.1655,4.77656 10.1655,11.51274 l -21.9232,0 z"
       style="font-style:normal;font-variant:normal;font-weight:bold;font-stretch:normal;font-family:'Source Sans Pro';-inkscape-font-specification:'Source Sans Pro Bold';fill:#323232;fill-opacity:1"
       id="path4395" />
    <path
       d="m 1828.1032,201.80481 18.004,0 0,-35.27307 c 3.1844,-8.20589 8.8183,-11.14532 13.3499,-11.14532 2.572,0 4.4091,0.36743 6.6137,0.97981 l 2.9394,-15.55444 c -1.7147,-0.73486 -3.7967,-1.22476 -7.2261,-1.22476 -6.2462,0 -12.8599,3.91923 -17.2691,12.12512 l -0.4899,0 -1.2247,-10.65541 -14.6972,0 0,60.74807 z"
       style="font-style:normal;font-variant:normal;font-weight:bold;font-stretch:normal;font-family:'Source Sans Pro';-inkscape-font-specification:'Source Sans Pro Bold';fill:#323232;fill-opacity:1"
       id="path4397" />
    <path
       d="m 1933.1455,203.27452 c 13.1049,0 25.5975,-12.00264 25.5975,-32.94603 0,-18.61634 -9.1857,-30.74146 -23.8828,-30.74146 -5.6339,0 -11.3903,2.57199 -16.0444,6.73617 l 0.4899,-9.30817 0,-21.06586 -18.0039,0 0,85.85564 14.0847,0 1.4697,-6.49123 0.4899,0 c 4.7766,5.26647 10.4105,7.96094 15.7994,7.96094 z m -4.1642,-14.69711 c -3.0619,0 -6.4912,-0.97981 -9.6756,-3.91923 l 0,-24.86262 c 3.4293,-3.79676 6.7362,-5.51142 10.4105,-5.51142 7.2261,0 10.5329,5.51142 10.5329,16.41178 0,12.49254 -5.0215,17.88149 -11.2678,17.88149 z"
       style="font-style:normal;font-variant:normal;font-weight:bold;font-stretch:normal;font-family:'Source Sans Pro';-inkscape-font-specification:'Source Sans Pro Bold';fill:#323232;fill-opacity:1"
       id="path4399" />
    <path
       d="m 1997.4779,203.27452 c 15.3095,0 29.5167,-11.63521 29.5167,-31.84375 0,-20.20853 -14.2072,-31.84374 -29.5167,-31.84374 -15.432,0 -29.6392,11.63521 -29.6392,31.84374 0,20.20854 14.2072,31.84375 29.6392,31.84375 z m 0,-14.57464 c -7.471,0 -11.1453,-6.73617 -11.1453,-17.26911 0,-10.53293 3.6743,-17.26911 11.1453,-17.26911 7.3486,0 11.1453,6.73618 11.1453,17.26911 0,10.53294 -3.7967,17.26911 -11.1453,17.26911 z"
       style="font-style:normal;font-variant:normal;font-weight:bold;font-stretch:normal;font-family:'Source Sans Pro';-inkscape-font-specification:'Source Sans Pro Bold';fill:#323232;fill-opacity:1"
       id="path4401" />
    <path
       d="m 2053.2006,203.27452 c 6.8587,0 12.4926,-3.18437 17.6366,-7.71598 l 0.4899,0 1.2247,6.24627 14.6972,0 0,-34.78317 c 0,-18.61635 -8.5734,-27.43461 -24.1278,-27.43461 -9.5531,0 -18.2489,3.30685 -25.9649,7.96093 l 6.4912,11.88017 c 5.8789,-3.42933 10.9004,-5.51142 16.0444,-5.51142 6.6137,0 9.1857,3.42933 9.5531,8.81827 -24.0053,2.44952 -34.1708,9.43065 -34.1708,22.16815 0,10.28798 6.9811,18.37139 18.1264,18.37139 z m 6.1238,-13.96226 c -4.2866,0 -6.9811,-1.83714 -6.9811,-5.75637 0,-4.65408 4.1642,-8.32836 16.9017,-10.04303 l 0,10.65541 c -3.1844,3.18438 -5.8789,5.14399 -9.9206,5.14399 z"
       style="font-style:normal;font-variant:normal;font-weight:bold;font-stretch:normal;font-family:'Source Sans Pro';-inkscape-font-specification:'Source Sans Pro Bold';fill:#323232;fill-opacity:1"
       id="path4403" />
    <path
       d="m 2102.4781,201.80481 18.004,0 0,-35.27307 c 3.1843,-8.20589 8.8182,-11.14532 13.3498,-11.14532 2.572,0 4.4092,0.36743 6.6137,0.97981 l 2.9395,-15.55444 c -1.7147,-0.73486 -3.7968,-1.22476 -7.2261,-1.22476 -6.2463,0 -12.86,3.91923 -17.2691,12.12512 l -0.4899,0 -1.2248,-10.65541 -14.6971,0 0,60.74807 z"
       style="font-style:normal;font-variant:normal;font-weight:bold;font-stretch:normal;font-family:'Source Sans Pro';-inkscape-font-specification:'Source Sans Pro Bold';fill:#323232;fill-opacity:1"
       id="path4405" />
    <path
       d="m 2171.7593,203.27452 c 5.8788,0 11.8802,-3.18437 16.1668,-7.47103 l 0.4899,0 1.2248,6.00132 14.6971,0 0,-85.85564 -18.004,0 0,20.69843 0.7349,9.30818 c -4.1642,-3.91924 -8.2059,-6.36875 -14.9421,-6.36875 -12.8599,0 -25.23,12.00264 -25.23,31.84374 0,19.84111 9.7981,31.84375 24.8626,31.84375 z m 4.6541,-14.69711 c -6.9811,0 -11.0229,-5.38895 -11.0229,-17.39159 0,-11.51274 5.144,-16.90168 10.9004,-16.90168 3.3069,0 6.8587,0.97981 10.043,3.91923 l 0,24.86262 c -2.9394,4.04171 -6.0013,5.51142 -9.9205,5.51142 z"
       style="font-style:normal;font-variant:normal;font-weight:bold;font-stretch:normal;font-family:'Source Sans Pro';-inkscape-font-specification:'Source Sans Pro Bold';fill:#323232;fill-opacity:1"
       id="path4407" />
  </g>
  <g
     style="font-style:normal;font-weight:normal;font-size:122.47595215px;line-height:125%;font-family:sans-serif;letter-spacing:0px;word-spacing:0px;fill:#ffffff;fill-opacity:1;stroke:none;stroke-width:1px;stroke-linecap:butt;stroke-linejoin:miter;stroke-opacity:1"
     id="text4365">
    <path
       d="m 645.37412,800.28087 c 2.20457,-7.96093 4.28666,-17.26911 6.24627,-25.71995 l 0.48991,0 c 2.08209,8.32837 4.28666,17.75902 6.49122,25.71995 l 1.83714,7.34856 -17.02416,0 1.95962,-7.34856 z m -28.90432,40.41707 18.37139,0 4.89904,-18.98378 24.37271,0 4.89904,18.98378 19.10625,0 -24.9851,-79.85432 -21.67824,0 -24.98509,79.85432 z"
       style="font-style:normal;font-variant:normal;font-weight:bold;font-stretch:normal;font-family:'Source Sans Pro';-inkscape-font-specification:'Source Sans Pro Bold';fill:#ffffff;fill-opacity:1"
       id="path4370" />
    <path
       d="m 719.62708,842.16765 c 16.65673,0 27.80204,-14.20721 27.80204,-40.66202 0,-26.4548 -11.14531,-40.04963 -27.80204,-40.04963 -16.65673,0 -27.80204,13.59483 -27.80204,40.04963 0,26.45481 11.14531,40.66202 27.80204,40.66202 z m 0,-13.96226 c -6.00132,0 -10.77789,-5.51142 -10.77789,-26.69976 0,-21.31081 4.77657,-26.08738 10.77789,-26.08738 6.1238,0 10.77788,4.77657 10.77788,26.08738 0,21.18834 -4.65408,26.69976 -10.77788,26.69976 z"
       style="font-style:normal;font-variant:normal;font-weight:bold;font-stretch:normal;font-family:'Source Sans Pro';-inkscape-font-specification:'Source Sans Pro Bold';fill:#ffffff;fill-opacity:1"
       id="path4372" />
    <path
       d="m 784.2408,863.23351 18.00396,0 0,-17.75901 -0.61238,-9.6756 c 4.28666,4.04171 9.1857,6.36875 14.45217,6.36875 13.10492,0 25.59747,-12.00264 25.59747,-32.82356 0,-18.73882 -9.06322,-30.86394 -23.76033,-30.86394 -6.36875,0 -12.49255,3.18438 -17.26911,7.47104 l -0.48991,0 -1.22476,-6.00133 -14.69711,0 0,83.28365 z m 27.67956,-35.76298 c -3.0619,0 -6.49122,-0.9798 -9.6756,-3.91923 l 0,-24.86261 c 3.55181,-3.79676 6.73618,-5.51142 10.41046,-5.51142 7.22608,0 10.53293,5.51142 10.53293,16.41178 0,12.49254 -5.02151,17.88148 -11.26779,17.88148 z"
       style="font-style:normal;font-variant:normal;font-weight:bold;font-stretch:normal;font-family:'Source Sans Pro';-inkscape-font-specification:'Source Sans Pro Bold';fill:#ffffff;fill-opacity:1"
       id="path4374" />
    <path
       d="m 880.41695,842.16765 c 15.3095,0 29.51671,-11.63522 29.51671,-31.84375 0,-20.20853 -14.20721,-31.84375 -29.51671,-31.84375 -15.43197,0 -29.63918,11.63522 -29.63918,31.84375 0,20.20853 14.20721,31.84375 29.63918,31.84375 z m 0,-14.57464 c -7.47103,0 -11.14531,-6.73618 -11.14531,-17.26911 0,-10.53293 3.67428,-17.26911 11.14531,-17.26911 7.34856,0 11.14531,6.73618 11.14531,17.26911 0,10.53293 -3.79675,17.26911 -11.14531,17.26911 z"
       style="font-style:normal;font-variant:normal;font-weight:bold;font-stretch:normal;font-family:'Source Sans Pro';-inkscape-font-specification:'Source Sans Pro Bold';fill:#ffffff;fill-opacity:1"
       id="path4376" />
    <path
       d="m 939.42931,842.16765 c 16.2893,0 24.98509,-8.57332 24.98509,-19.59615 0,-11.14532 -8.69579,-15.43197 -16.41177,-18.24892 -6.24628,-2.32704 -11.88017,-3.79676 -11.88017,-7.71599 0,-3.06189 2.20457,-4.77656 6.85865,-4.77656 4.28666,0 8.45084,1.95962 12.85998,5.14399 l 8.08341,-10.77788 c -5.26647,-3.91923 -12.12512,-7.71599 -21.43329,-7.71599 -14.08474,0 -23.27043,7.71599 -23.27043,18.98378 0,10.04302 8.69579,15.06454 16.04435,17.88148 6.24627,2.44952 12.37007,4.28666 12.37007,8.32837 0,3.18437 -2.32704,5.14399 -7.71599,5.14399 -5.14399,0 -10.1655,-2.20457 -15.67692,-6.36875 l -8.08341,11.26779 c 6.1238,5.02151 15.30949,8.45084 23.27043,8.45084 z"
       style="font-style:normal;font-variant:normal;font-weight:bold;font-stretch:normal;font-family:'Source Sans Pro';-inkscape-font-specification:'Source Sans Pro Bold';fill:#ffffff;fill-opacity:1"
       id="path4378" />
    <path
       d="m 996.84948,842.16765 c 5.87882,0 10.28802,-1.22476 13.47232,-2.20457 l -2.8169,-13.10493 c -1.5922,0.61238 -3.7968,1.22476 -5.7564,1.22476 -4.77654,0 -7.83844,-2.81694 -7.83844,-9.6756 l 0,-24.37271 14.57464,0 0,-14.08474 -14.57464,0 0,-16.16682 -14.94207,0 -2.08209,16.16682 -9.30817,0.73486 0,13.34988 8.32836,0 0,24.61767 c 0,14.08473 5.87885,23.51538 20.94339,23.51538 z"
       style="font-style:normal;font-variant:normal;font-weight:bold;font-stretch:normal;font-family:'Source Sans Pro';-inkscape-font-specification:'Source Sans Pro Bold';fill:#ffffff;fill-opacity:1"
       id="path4380" />
    <path
       d="m 1045.3787,842.16765 c 7.226,0 15.3095,-2.572 21.5557,-6.85865 l -6.0013,-10.90036 c -4.4091,2.69447 -8.5733,4.0417 -13.1049,4.0417 -8.0834,0 -14.2072,-4.0417 -15.7994,-12.85997 l 36.3753,0 c 0.3675,-1.46971 0.7349,-4.77657 0.7349,-7.96094 0,-16.53425 -8.5733,-29.14928 -25.8424,-29.14928 -14.5747,0 -28.6594,12.12512 -28.6594,31.84375 0,20.08606 13.3499,31.84375 30.7415,31.84375 z m -13.4724,-38.45745 c 1.2248,-7.71599 6.1238,-11.51274 11.7577,-11.51274 7.2261,0 10.1655,4.77656 10.1655,11.51274 l -21.9232,0 z"
       style="font-style:normal;font-variant:normal;font-weight:bold;font-stretch:normal;font-family:'Source Sans Pro';-inkscape-font-specification:'Source Sans Pro Bold';fill:#ffffff;fill-opacity:1"
       id="path4382" />
    <path
       d="m 1081.5799,840.69794 18.0039,0 0,-35.27308 c 3.1844,-8.20589 8.8183,-11.14531 13.3499,-11.14531 2.572,0 4.4091,0.36743 6.6137,0.97981 l 2.9394,-15.55445 c -1.7146,-0.73485 -3.7967,-1.22476 -7.226,-1.22476 -6.2463,0 -12.86,3.91923 -17.2692,12.12512 l -0.4899,0 -1.2247,-10.65541 -14.6971,0 0,60.74808 z"
       style="font-style:normal;font-variant:normal;font-weight:bold;font-stretch:normal;font-family:'Source Sans Pro';-inkscape-font-specification:'Source Sans Pro Bold';fill:#ffffff;fill-opacity:1"
       id="path4384" />
  </g>
</svg>
