<?xml version="1.0" encoding="UTF-8" standalone="no"?>
<svg
   xmlns:dc="http://purl.org/dc/elements/1.1/"
   xmlns:cc="http://creativecommons.org/ns#"
   xmlns:rdf="http://www.w3.org/1999/02/22-rdf-syntax-ns#"
   xmlns:svg="http://www.w3.org/2000/svg"
   xmlns="http://www.w3.org/2000/svg"
   version="1.1"
   id="svg2"
   viewBox="0 0 2404.6025 1831.8519"
   height="1831.8519"
   width="2404.6025">
  <defs
     id="defs4" />
  <metadata
     id="metadata7">
    <rdf:RDF>
      <cc:Work
         rdf:about="">
        <dc:format>image/svg+xml</dc:format>
        <dc:type
           rdf:resource="http://purl.org/dc/dcmitype/StillImage" />
        <dc:title></dc:title>
      </cc:Work>
    </rdf:RDF>
  </metadata>
  <g
     transform="translate(-91.922022,785.13658)"
     id="layer1">
    <g
       id="g4189">
      <path
         id="rect4136"
         d="m 458.90033,-673.09802 1004.99997,0 0,1400 -1004.99997,0 z"
         style="opacity:1;fill:#c8c8c8;fill-opacity:1;stroke:none;stroke-width:3;stroke-miterlimit:4;stroke-dasharray:none;stroke-opacity:1" />
      <path
         id="rect4138"
         d="m 540.90033,-567.59802 840.99997,0 0,1189 -840.99997,0 z"
         style="opacity:1;fill:#323232;fill-opacity:1;stroke:none;stroke-width:3;stroke-miterlimit:4;stroke-dasharray:none;stroke-opacity:1" />
      <g
         id="text4140"
         style="font-style:normal;font-weight:normal;font-size:73.04610443px;line-height:125%;font-family:sans-serif;letter-spacing:0px;word-spacing:0px;fill:#000000;fill-opacity:1;stroke:none;stroke-width:1px;stroke-linecap:butt;stroke-linejoin:miter;stroke-opacity:1">
        <path
           id="path4248"
           style="font-style:normal;font-variant:normal;font-weight:900;font-stretch:normal;font-size:136.96144104px;font-family:Roboto;-inkscape-font-specification:'Roboto Heavy';fill:#ffffff;fill-opacity:1"
           d="m 722.28626,43.453715 -30.69595,0 -5.48381,18.925824 -22.73774,0 31.43159,-97.371024 24.27588,0 31.49845,97.371024 -22.73774,0 -5.55068,-18.925824 z m -25.68027,-17.387683 20.66459,0 -10.16511,-34.8422412 -0.40125,0 -10.09823,34.8422412 z" />
        <path
           id="path4250"
           style="font-style:normal;font-variant:normal;font-weight:900;font-stretch:normal;font-size:136.96144104px;font-family:Roboto;-inkscape-font-specification:'Roboto Heavy';fill:#ffffff;fill-opacity:1"
           d="m 823.40232,23.92601 q 0,19.728332 -9.16197,29.826564 -9.16197,10.031355 -24.67713,10.031355 -15.64892,0 -24.81089,-10.031355 -9.16197,-10.098232 -9.16197,-29.826564 l 0,-20.4639654 q 0,-19.7283326 9.0951,-29.7596886 9.09509,-10.098231 24.74401,-10.098231 15.58204,0 24.74401,10.098231 9.22884,10.098232 9.22884,29.7596886 l 0,20.4639654 z M 800.86521,1.9239034 q 0,-11.1682425 -2.94253,-16.0501684 -2.94253,-4.881927 -8.49321,-4.881927 -5.61756,0 -8.49322,4.881927 -2.80878,4.8819259 -2.80878,16.0501684 l 0,23.4064966 q 0,11.368869 2.87566,16.250796 2.87565,4.81505 8.56009,4.81505 5.55068,0 8.42634,-4.81505 2.87565,-4.881927 2.87565,-16.250796 l 0,-23.4064966 z" />
        <path
           id="path4252"
           style="font-style:normal;font-variant:normal;font-weight:900;font-stretch:normal;font-size:136.96144104px;font-family:Roboto;-inkscape-font-specification:'Roboto Heavy';fill:#ffffff;fill-opacity:1"
           d="m 936.95726,27.737925 q 0,16.317672 -7.35632,26.215276 -7.35633,9.830728 -20.73147,9.830728 -5.21631,0 -9.29573,-2.006271 -4.01254,-2.006271 -7.02194,-5.818186 l 0,34.24036 -22.60399,0 0,-100.1798038 21.13272,0 0.80251,7.9582087 q 3.07628,-4.4806722 7.22257,-6.8881975 4.1463,-2.4075254 9.63011,-2.4075254 13.44201,0 20.79834,10.36573415 7.4232,10.36573405 7.4232,27.28528685 l 0,1.40439 z m -22.53711,-1.40439 q 0,-9.161971 -2.67503,-14.712655 -2.67503,-5.550683 -8.56009,-5.550683 -3.81191,0 -6.48694,1.4043898 -2.60815,1.4043898 -4.14629,4.0794182 l 0,30.227818 q 1.60501,2.340649 4.21317,3.477536 2.67502,1.136887 6.55381,1.136887 5.95194,0 8.49322,-4.881926 2.60815,-4.948802 2.60815,-13.776395 l 0,-1.40439 z" />
        <path
           id="path4254"
           style="font-style:normal;font-variant:normal;font-weight:900;font-stretch:normal;font-size:136.96144104px;font-family:Roboto;-inkscape-font-specification:'Roboto Heavy';fill:#ffffff;fill-opacity:1"
           d="m 943.9792,25.531027 q 0,-16.3176719 9.22885,-26.5496546 9.22885,-10.2988584 25.74715,-10.2988584 16.58517,0 25.814,10.2988584 9.2289,10.2319827 9.2289,26.5496546 l 0,1.40439 q 0,16.384547 -9.2289,26.61653 -9.22883,10.231982 -25.68025,10.231982 -16.65205,0 -25.8809,-10.231982 -9.22885,-10.231983 -9.22885,-26.61653 l 0,-1.40439 z m 22.60399,1.40439 q 0,9.095095 2.80878,14.3114 2.87566,5.149429 9.69698,5.149429 6.62069,0 9.49635,-5.216305 2.87565,-5.216304 2.87565,-14.244524 l 0,-1.40439 q 0,-8.827593 -2.87565,-14.110774 -2.87566,-5.350056 -9.6301,-5.350056 -6.68757,0 -9.56323,5.350056 -2.80878,5.350057 -2.80878,14.110774 l 0,1.40439 z" />
        <path
           id="path4256"
           style="font-style:normal;font-variant:normal;font-weight:900;font-stretch:normal;font-size:136.96144104px;font-family:Roboto;-inkscape-font-specification:'Roboto Heavy';fill:#ffffff;fill-opacity:1"
           d="m 1061.7473,42.049326 q 0,-2.675029 -3.0762,-4.748175 -3.0094,-2.140023 -11.0345,-3.811915 -12.6395,-2.474402 -19.0596,-7.690706 -6.4201,-5.216305 -6.4201,-14.244525 0,-9.5632259 8.0251,-16.1839206 8.0251,-6.6875704 21.7346,-6.6875704 14.4452,0 23.0053,6.4869433 8.56,6.4200676 8.1588,16.6520507 l -0.1338,0.401254 -21.9352,0 q 0,-4.2800453 -2.2069,-6.4869435 -2.14,-2.2068982 -6.9551,-2.2068982 -3.5444,0 -5.9519,1.9393954 -2.4075,1.9393954 -2.4075,4.9488023 0,2.875655 2.7419,4.881926 2.8088,2.006271 11.2351,3.611288 13.2414,2.608153 19.5946,7.824457 6.42,5.14943 6.42,14.64578 0,9.763852 -8.6938,16.117044 -8.627,6.286316 -22.8715,6.286316 -14.7795,0 -23.4065,-7.490079 -8.5601,-7.490078 -8.1588,-16.718925 l 0.1337,-0.401255 20.464,0 q 0.1337,5.14943 3.0763,7.423203 3.0094,2.273774 8.4932,2.273774 4.5475,0 6.8882,-1.738768 2.3406,-1.805644 2.3406,-5.082553 z" />
        <path
           id="path4258"
           style="font-style:normal;font-variant:normal;font-weight:900;font-stretch:normal;font-size:136.96144104px;font-family:Roboto;-inkscape-font-specification:'Roboto Heavy';fill:#ffffff;fill-opacity:1"
           d="m 1120.8654,-27.969536 0,17.9895642 12.2383,0 0,15.6489146 -12.2383,0 0,33.1703492 q 0,3.878791 1.5382,5.617559 1.605,1.671893 4.28,1.671893 2.1401,0 3.3438,-0.133752 1.2707,-0.133751 3.2101,-0.535006 l 1.605,16.718926 q -3.7451,0.869385 -6.7545,1.203763 -3.0094,0.401254 -7.0888,0.401254 -11.1682,0 -16.9196,-5.951937 -5.7513,-5.951938 -5.7513,-18.858949 l 0,-33.3041002 -10.1651,0 0,-15.6489146 10.1651,0 0,-17.9895642 22.5371,0 z" />
        <path
           id="path4260"
           style="font-style:normal;font-variant:normal;font-weight:900;font-stretch:normal;font-size:136.96144104px;font-family:Roboto;-inkscape-font-specification:'Roboto Heavy';fill:#ffffff;fill-opacity:1"
           d="m 1176.9073,63.783929 q -15.9833,0 -25.5465,-10.031355 -9.4964,-10.031356 -9.4964,-25.145265 l 0,-2.541277 q 0,-16.5182984 8.627,-26.95090815 8.6938,-10.49948585 24.8109,-10.43260985 14.7126,0 23.0721,8.827593 8.3595,8.8275928 8.3595,23.941502 l 0,11.836999 -41.3292,0 -0.1338,0.401255 q 0.7356,5.550683 4.5476,9.161971 3.8119,3.544412 10.1651,3.544412 6.42,0 10.232,-1.003135 3.8787,-1.003136 9.7638,-3.477537 l 5.3501,13.776395 q -4.7482,3.477537 -12.3052,5.818186 -7.49,2.273774 -16.117,2.273774 z m -1.605,-57.713732 q -4.882,0 -7.3564,3.4775366 -2.4075,3.4775364 -2.9425,9.2957224 l 0.2006,0.334379 19.4609,0 0,-1.738768 q 0,-5.483808 -2.2738,-8.426339 -2.2738,-2.942531 -7.0888,-2.942531 z" />
        <path
           id="path4262"
           style="font-style:normal;font-variant:normal;font-weight:900;font-stretch:normal;font-size:136.96144104px;font-family:Roboto;-inkscape-font-specification:'Roboto Heavy';fill:#ffffff;fill-opacity:1"
           d="m 1257.225,9.9489878 -8.2257,-0.066876 q -3.8788,0 -6.3532,1.3375139 -2.4744,1.270639 -3.6781,3.678164 l 0,47.481749 -22.604,0 0,-72.3595108 21.2664,0 0.8026,10.63323684 q 2.2737,-5.68443484 6.0188,-8.82759284 3.745,-3.1431582 8.7607,-3.1431582 1.605,0 3.2769,0.267503 1.6719,0.200627 2.9425,0.535006 l -2.2069,20.4639648 z" />
      </g>
      <path
         style="fill:none;fill-rule:evenodd;stroke:#000000;stroke-width:15;stroke-linecap:butt;stroke-linejoin:miter;stroke-miterlimit:4;stroke-dasharray:none;stroke-opacity:1"
         d="m 1381.2628,-619.51814 209.735,0"
         id="path4148" />
      <path
         id="path4150"
         d="m 1421.4589,-619.51813 a 21.348034,21.348034 0 0 1 -21.3481,21.34804 21.348034,21.348034 0 0 1 -21.348,-21.34804 21.348034,21.348034 0 0 1 21.348,-21.34803 21.348034,21.348034 0 0 1 21.3481,21.34803 z"
         style="opacity:1;fill:#1e1e1e;fill-opacity:1;stroke:#1e1e1e;stroke-width:7;stroke-miterlimit:4;stroke-dasharray:none;stroke-opacity:1" />
      <g
         id="text4152"
         style="font-style:normal;font-weight:normal;font-size:73.04610443px;line-height:125%;font-family:sans-serif;letter-spacing:0px;word-spacing:0px;fill:#000000;fill-opacity:1;stroke:none;stroke-width:1px;stroke-linecap:butt;stroke-linejoin:miter;stroke-opacity:1">
        <path
           id="path4266"
           style="font-style:normal;font-variant:normal;font-weight:900;font-stretch:normal;font-size:136.96144104px;font-family:Roboto;-inkscape-font-specification:'Roboto Heavy';fill:#323232;fill-opacity:1"
           d="m 1692.1228,-615.4521 q 0,16.31767 -7.3564,26.21528 -7.3563,9.83072 -20.7314,9.83072 -5.2163,0 -9.2958,-2.00627 -4.0125,-2.00627 -7.0219,-5.81818 l 0,34.24036 -22.604,0 0,-100.17981 21.1327,0 0.8025,7.95821 q 3.0763,-4.48067 7.2226,-6.8882 4.1463,-2.40752 9.6301,-2.40752 13.442,0 20.7984,10.36573 7.4232,10.36574 7.4232,27.28529 l 0,1.40439 z m -22.5372,-1.40439 q 0,-9.16197 -2.675,-14.71265 -2.675,-5.55069 -8.5601,-5.55069 -3.8119,0 -6.4869,1.40439 -2.6082,1.40439 -4.1463,4.07942 l 0,30.22782 q 1.605,2.34065 4.2132,3.47753 2.675,1.13689 6.5538,1.13689 5.9519,0 8.4932,-4.88193 2.6081,-4.9488 2.6081,-13.77639 l 0,-1.40439 z" />
        <path
           id="path4268"
           style="font-style:normal;font-variant:normal;font-weight:900;font-stretch:normal;font-size:136.96144104px;font-family:Roboto;-inkscape-font-specification:'Roboto Heavy';fill:#323232;fill-opacity:1"
           d="m 1699.1447,-617.659 q 0,-16.31767 9.2289,-26.54965 9.2288,-10.29886 25.7471,-10.29886 16.5852,0 25.814,10.29886 9.2289,10.23198 9.2289,26.54965 l 0,1.40439 q 0,16.38455 -9.2289,26.61653 -9.2288,10.23198 -25.6802,10.23198 -16.6521,0 -25.8809,-10.23198 -9.2289,-10.23198 -9.2289,-26.61653 l 0,-1.40439 z m 22.604,1.40439 q 0,9.0951 2.8088,14.3114 2.8756,5.14943 9.697,5.14943 6.6206,0 9.4963,-5.2163 2.8757,-5.21631 2.8757,-14.24453 l 0,-1.40439 q 0,-8.82759 -2.8757,-14.11077 -2.8757,-5.35006 -9.6301,-5.35006 -6.6876,0 -9.5632,5.35006 -2.8088,5.35005 -2.8088,14.11077 l 0,1.40439 z" />
        <path
           id="path4270"
           style="font-style:normal;font-variant:normal;font-weight:900;font-stretch:normal;font-size:136.96144104px;font-family:Roboto;-inkscape-font-specification:'Roboto Heavy';fill:#323232;fill-opacity:1"
           d="m 1816.9128,-601.1407 q 0,-2.67503 -3.0763,-4.74817 -3.0094,-2.14003 -11.0345,-3.81192 -12.6395,-2.4744 -19.0595,-7.69071 -6.4201,-5.2163 -6.4201,-14.24452 0,-9.56323 8.0251,-16.18392 8.0251,-6.68757 21.7346,-6.68757 14.4451,0 23.0052,6.48694 8.5601,6.42007 8.1589,16.65205 l -0.1338,0.40126 -21.9352,0 q 0,-4.28005 -2.2069,-6.48695 -2.14,-2.2069 -6.9551,-2.2069 -3.5444,0 -5.9519,1.9394 -2.4075,1.9394 -2.4075,4.9488 0,2.87566 2.7419,4.88193 2.8087,2.00627 11.2351,3.61129 13.2414,2.60815 19.5946,7.82445 6.42,5.14943 6.42,14.64578 0,9.76386 -8.6938,16.11705 -8.627,6.28631 -22.8715,6.28631 -14.7795,0 -23.4065,-7.49007 -8.5601,-7.49008 -8.1588,-16.71893 l 0.1337,-0.40126 20.464,0 q 0.1337,5.14943 3.0763,7.42321 3.0094,2.27377 8.4932,2.27377 4.5475,0 6.8882,-1.73877 2.3406,-1.80564 2.3406,-5.08255 z" />
        <path
           id="path4272"
           style="font-style:normal;font-variant:normal;font-weight:900;font-stretch:normal;font-size:136.96144104px;font-family:Roboto;-inkscape-font-specification:'Roboto Heavy';fill:#323232;fill-opacity:1"
           d="m 1876.0309,-671.15956 0,17.98956 12.2383,0 0,15.64892 -12.2383,0 0,33.17035 q 0,3.87879 1.5382,5.61756 1.605,1.67189 4.28,1.67189 2.1401,0 3.3438,-0.13375 1.2707,-0.13375 3.21,-0.53501 l 1.6051,16.71893 q -3.7451,0.86938 -6.7545,1.20376 -3.0094,0.40125 -7.0888,0.40125 -11.1682,0 -16.9196,-5.95193 -5.7513,-5.95194 -5.7513,-18.85895 l 0,-33.3041 -10.1651,0 0,-15.64892 10.1651,0 0,-17.98956 22.5371,0 z" />
        <path
           id="path4274"
           style="font-style:normal;font-variant:normal;font-weight:900;font-stretch:normal;font-size:136.96144104px;font-family:Roboto;-inkscape-font-specification:'Roboto Heavy';fill:#323232;fill-opacity:1"
           d="m 1932.0728,-579.4061 q -15.9833,0 -25.5465,-10.03135 -9.4964,-10.03136 -9.4964,-25.14527 l 0,-2.54127 q 0,-16.5183 8.627,-26.95091 8.6938,-10.49949 24.8109,-10.43261 14.7126,0 23.0721,8.82759 8.3594,8.82759 8.3594,23.9415 l 0,11.837 -41.3291,0 -0.1338,0.40126 q 0.7356,5.55068 4.5476,9.16197 3.8119,3.54441 10.1651,3.54441 6.42,0 10.2319,-1.00313 3.8788,-1.00314 9.7639,-3.47754 l 5.3501,13.77639 q -4.7482,3.47754 -12.3052,5.81819 -7.49,2.27377 -16.117,2.27377 z m -1.605,-57.71373 q -4.882,0 -7.3564,3.47754 -2.4075,3.47753 -2.9425,9.29572 l 0.2006,0.33438 19.4609,0 0,-1.73877 q 0,-5.48381 -2.2738,-8.42634 -2.2738,-2.94253 -7.0888,-2.94253 z" />
        <path
           id="path4276"
           style="font-style:normal;font-variant:normal;font-weight:900;font-stretch:normal;font-size:136.96144104px;font-family:Roboto;-inkscape-font-specification:'Roboto Heavy';fill:#323232;fill-opacity:1"
           d="m 2012.3905,-633.24104 -8.2257,-0.0669 q -3.8788,0 -6.3532,1.33751 -2.4744,1.27064 -3.6782,3.67816 l 0,47.48175 -22.604,0 0,-72.35951 21.2665,0 0.8025,10.63324 q 2.2738,-5.68444 6.0188,-8.82759 3.7451,-3.14316 8.7608,-3.14316 1.605,0 3.2769,0.2675 1.6719,0.20063 2.9425,0.53501 l -2.2069,20.46396 z" />
        <path
           id="path4278"
           style="font-style:normal;font-variant:normal;font-weight:900;font-stretch:normal;font-size:136.96144104px;font-family:Roboto;-inkscape-font-specification:'Roboto Heavy';fill:#323232;fill-opacity:1"
           d="m 2123.3373,-615.4521 q 0,16.5183 -7.0888,26.28215 -7.0889,9.76385 -20.999,9.76385 -5.9519,0 -10.3657,-2.54127 -4.4138,-2.60816 -7.4901,-7.42321 l -1.4713,8.56009 -19.5946,0 0,-104.32609 22.604,0 0,38.98853 q 3.0094,-4.01254 6.9551,-6.15256 4.0125,-2.2069 9.2289,-2.2069 13.977,0 21.0658,10.23198 7.1557,10.23198 7.1557,27.41904 l 0,1.40439 z m -22.5371,-1.40439 q 0,-9.6301 -2.4075,-14.91328 -2.4076,-5.35006 -8.9614,-5.35006 -3.6781,0 -6.3532,1.40439 -2.6081,1.33752 -4.1463,3.94567 l 0,30.36157 q 1.605,2.34065 4.2132,3.47753 2.6082,1.13689 6.4201,1.13689 6.6875,0 8.9613,-4.61442 2.2738,-4.6813 2.2738,-14.0439 l 0,-1.40439 z" />
        <path
           id="path4280"
           style="font-style:normal;font-variant:normal;font-weight:900;font-stretch:normal;font-size:136.96144104px;font-family:Roboto;-inkscape-font-specification:'Roboto Heavy';fill:#323232;fill-opacity:1"
           d="m 2130.3592,-617.659 q 0,-16.31767 9.2289,-26.54965 9.2288,-10.29886 25.7471,-10.29886 16.5852,0 25.8141,10.29886 9.2288,10.23198 9.2288,26.54965 l 0,1.40439 q 0,16.38455 -9.2288,26.61653 -9.2289,10.23198 -25.6803,10.23198 -16.6521,0 -25.8809,-10.23198 -9.2289,-10.23198 -9.2289,-26.61653 l 0,-1.40439 z m 22.604,1.40439 q 0,9.0951 2.8088,14.3114 2.8757,5.14943 9.697,5.14943 6.6207,0 9.4963,-5.2163 2.8757,-5.21631 2.8757,-14.24453 l 0,-1.40439 q 0,-8.82759 -2.8757,-14.11077 -2.8756,-5.35006 -9.6301,-5.35006 -6.6875,0 -9.5632,5.35006 -2.8088,5.35005 -2.8088,14.11077 l 0,1.40439 z" />
        <path
           id="path4282"
           style="font-style:normal;font-variant:normal;font-weight:900;font-stretch:normal;font-size:136.96144104px;font-family:Roboto;-inkscape-font-specification:'Roboto Heavy';fill:#323232;fill-opacity:1"
           d="m 2252.0061,-580.87736 q -0.9362,-1.73877 -1.7387,-3.87879 -0.7357,-2.14002 -1.2707,-4.4138 -3.21,4.48067 -7.7576,7.1557 -4.5475,2.60815 -11.0344,2.60815 -10.2989,0 -16.7858,-5.95193 -6.4201,-5.95194 -6.4201,-15.84955 0,-10.76698 8.0251,-16.58517 8.0919,-5.88506 24.5434,-5.88506 l 8.2257,0 0,-5.14943 q 0,-4.61442 -2.2069,-7.08883 -2.1401,-2.4744 -6.6876,-2.4744 -3.8788,0 -5.8182,1.87252 -1.8725,1.80565 -1.8725,5.68444 l -21.8684,-0.0669 -0.1337,-0.40125 q -0.4681,-9.89761 8.2257,-16.5183 8.6938,-6.68757 23.0052,-6.68757 13.3752,0 21.6678,6.68757 8.3594,6.68757 8.3594,19.12645 l 0,27.28529 q 0,5.81818 0.9363,10.76699 1.0031,4.9488 2.9425,9.83072 l -22.3365,-0.0669 z m -14.9132,-14.64578 q 3.3437,0 6.1525,-1.33751 2.8088,-1.33752 4.5476,-3.47754 l 0,-11.302 -8.0251,0 q -5.3501,0 -7.8245,2.60816 -2.4075,2.60815 -2.4075,6.62069 0,3.07628 2.0731,5.01568 2.1401,1.87252 5.4839,1.87252 z" />
        <path
           id="path4284"
           style="font-style:normal;font-variant:normal;font-weight:900;font-stretch:normal;font-size:136.96144104px;font-family:Roboto;-inkscape-font-specification:'Roboto Heavy';fill:#323232;fill-opacity:1"
           d="m 2324.0313,-633.24104 -8.2257,-0.0669 q -3.8788,0 -6.3532,1.33751 -2.4744,1.27064 -3.6782,3.67816 l 0,47.48175 -22.6039,0 0,-72.35951 21.2664,0 0.8025,10.63324 q 2.2738,-5.68444 6.0188,-8.82759 3.7451,-3.14316 8.7608,-3.14316 1.605,0 3.2769,0.2675 1.6719,0.20063 2.9425,0.53501 l -2.2069,20.46396 z" />
        <path
           id="path4286"
           style="font-style:normal;font-variant:normal;font-weight:900;font-stretch:normal;font-size:136.96144104px;font-family:Roboto;-inkscape-font-specification:'Roboto Heavy';fill:#323232;fill-opacity:1"
           d="m 2329.3814,-616.85649 q 0,-16.91955 7.3563,-27.28529 7.4232,-10.36573 20.8652,-10.36573 5.0157,0 9.0282,2.34065 4.0794,2.27377 7.2895,6.55382 l 0,-39.52354 22.604,0 0,104.32609 -19.5946,0 -1.605,-8.89446 q -3.3438,5.01567 -7.8245,7.6907 -4.4138,2.60815 -10.0313,2.60815 -13.3752,0 -20.7315,-9.8976 -7.3563,-9.8976 -7.3563,-26.1484 l 0,-1.40439 z m 22.604,1.40439 q 0,8.82759 2.5412,13.77639 2.6082,4.88193 8.6939,4.88193 3.5444,0 6.2194,-1.27064 2.7419,-1.33751 4.4807,-3.87879 l 0,-29.22468 q -1.7388,-2.87566 -4.4138,-4.4138 -2.675,-1.53814 -6.1526,-1.53814 -6.0188,0 -8.6938,5.55069 -2.675,5.55068 -2.675,14.71265 l 0,1.40439 z" />
      </g>
      <g
         id="g4168">
        <path
           id="path4156"
           d="m 292.83198,-671.95947 0,1398.48343"
           style="fill:none;fill-rule:evenodd;stroke:#464646;stroke-width:8;stroke-linecap:butt;stroke-linejoin:miter;stroke-miterlimit:4;stroke-dasharray:none;stroke-opacity:1" />
        <g
           id="text4158"
           style="font-style:normal;font-weight:normal;font-size:43.60723877px;line-height:125%;font-family:sans-serif;letter-spacing:0px;word-spacing:0px;fill:#000000;fill-opacity:1;stroke:none;stroke-width:1px;stroke-linecap:butt;stroke-linejoin:miter;stroke-opacity:1"
           transform="matrix(0,-1,1,0,0,0)">
          <path
             id="path4289"
             style="font-style:normal;font-variant:normal;font-weight:normal;font-stretch:normal;font-size:81.76357269px;font-family:'Helvetica Neue';-inkscape-font-specification:'Helvetica Neue';letter-spacing:0px;fill:#464646;fill-opacity:1"
             d="m -171.24426,249.8924 0,-57.97038 -5.31464,0 q -0.57234,3.27054 -2.12585,5.3964 -1.55351,2.12585 -3.84289,3.3523 -2.20761,1.22646 -4.98758,1.71704 -2.77996,0.40882 -5.72345,0.40882 l 0,5.55992 15.0445,0 0,41.5359 6.94991,0 z" />
          <path
             id="path4291"
             style="font-style:normal;font-variant:normal;font-weight:normal;font-stretch:normal;font-size:81.76357269px;font-family:'Helvetica Neue';-inkscape-font-specification:'Helvetica Neue';letter-spacing:0px;fill:#464646;fill-opacity:1"
             d="m -127.12132,230.18737 -19.45973,0 19.29621,-28.37196 0.16352,0 0,28.37196 z m 6.54109,0 0,-38.26535 -5.55992,0 -26.40964,37.69301 0,6.70461 25.42847,0 0,13.57276 6.54109,0 0,-13.57276 7.8493,0 0,-6.13227 -7.8493,0 z" />
          <path
             id="path4293"
             style="font-style:normal;font-variant:normal;font-weight:normal;font-stretch:normal;font-size:81.76357269px;font-family:'Helvetica Neue';-inkscape-font-specification:'Helvetica Neue';letter-spacing:0px;fill:#464646;fill-opacity:1"
             d="m -98.533449,221.35691 q 0,-2.12585 0,-4.66053 0.08176,-2.61643 0.408818,-5.1511 0.408818,-2.61643 1.062926,-5.06934 0.735873,-2.45291 2.04409,-4.25171 1.38998,-1.88056 3.43407,-3.02525 2.044089,-1.14469 4.987578,-1.14469 2.943488,0 4.987578,1.14469 2.044089,1.14469 3.352306,3.02525 1.389981,1.7988 2.044089,4.25171 0.735873,2.45291 1.062927,5.06934 0.408818,2.53467 0.408818,5.1511 0.08176,2.53468 0.08176,4.66053 0,3.27054 -0.24529,7.35872 -0.163528,4.00641 -1.308218,7.60401 -1.062926,3.51584 -3.515833,5.96874 -2.452907,2.45291 -6.86814,2.45291 -4.415233,0 -6.86814,-2.45291 -2.452908,-2.4529 -3.597598,-5.96874 -1.062926,-3.5976 -1.308217,-7.60401 -0.163527,-4.08818 -0.163527,-7.35872 z m -7.358721,0.0818 q 0,3.18878 0.16353,6.62285 0.16352,3.43407 0.81763,6.70461 0.65411,3.27055 1.88056,6.21404 1.22646,2.86172 3.352311,5.06934 2.125853,2.20761 5.314632,3.51583 3.270543,1.22645 7.76754,1.22645 4.57876,0 7.767539,-1.22645 3.188779,-1.30822 5.314632,-3.51583 2.125853,-2.20762 3.352307,-5.06934 1.226453,-2.94349 1.880562,-6.21404 0.654109,-3.27054 0.817636,-6.70461 0.163527,-3.43407 0.163527,-6.62285 0,-3.18878 -0.163527,-6.62285 -0.163527,-3.43407 -0.817636,-6.70461 -0.654109,-3.27054 -1.880562,-6.21403 -1.226454,-2.94349 -3.352307,-5.15111 -2.125853,-2.20761 -5.396395,-3.51583 -3.18878,-1.30822 -7.685776,-1.30822 -4.496997,0 -7.76754,1.30822 -3.188779,1.30822 -5.314632,3.51583 -2.125851,2.20762 -3.352311,5.15111 -1.22645,2.94349 -1.88056,6.21403 -0.65411,3.27054 -0.81763,6.70461 -0.16353,3.43407 -0.16353,6.62285 z" />
          <path
             id="path4295"
             style="font-style:normal;font-variant:normal;font-weight:normal;font-stretch:normal;font-size:81.76357269px;font-family:'Helvetica Neue';-inkscape-font-specification:'Helvetica Neue';letter-spacing:0px;fill:#464646;fill-opacity:1"
             d="m -53.020517,221.35691 q 0,-2.12585 0,-4.66053 0.08176,-2.61643 0.408818,-5.1511 0.408818,-2.61643 1.062926,-5.06934 0.735872,-2.45291 2.04409,-4.25171 1.38998,-1.88056 3.43407,-3.02525 2.044089,-1.14469 4.987577,-1.14469 2.943489,0 4.987578,1.14469 2.04409,1.14469 3.352307,3.02525 1.389981,1.7988 2.044089,4.25171 0.735872,2.45291 1.062927,5.06934 0.408818,2.53467 0.408818,5.1511 0.08176,2.53468 0.08176,4.66053 0,3.27054 -0.245291,7.35872 -0.163527,4.00641 -1.308217,7.60401 -1.062926,3.51584 -3.515833,5.96874 -2.452908,2.45291 -6.868141,2.45291 -4.415232,0 -6.86814,-2.45291 -2.452907,-2.4529 -3.597597,-5.96874 -1.062926,-3.5976 -1.308217,-7.60401 -0.163527,-4.08818 -0.163527,-7.35872 z m -7.358722,0.0818 q 0,3.18878 0.163527,6.62285 0.163528,3.43407 0.817636,6.70461 0.654109,3.27055 1.880562,6.21404 1.226454,2.86172 3.352307,5.06934 2.125853,2.20761 5.314632,3.51583 3.270543,1.22645 7.767539,1.22645 4.578761,0 7.76754,-1.22645 3.188779,-1.30822 5.314632,-3.51583 2.125853,-2.20762 3.352307,-5.06934 1.226453,-2.94349 1.880562,-6.21404 0.654108,-3.27054 0.817636,-6.70461 0.163527,-3.43407 0.163527,-6.62285 0,-3.18878 -0.163527,-6.62285 -0.163528,-3.43407 -0.817636,-6.70461 -0.654109,-3.27054 -1.880562,-6.21403 -1.226454,-2.94349 -3.352307,-5.15111 -2.125853,-2.20761 -5.396396,-3.51583 -3.188779,-1.30822 -7.685776,-1.30822 -4.496996,0 -7.767539,1.30822 -3.188779,1.30822 -5.314632,3.51583 -2.125853,2.20762 -3.352307,5.15111 -1.226453,2.94349 -1.880562,6.21403 -0.654108,3.27054 -0.817636,6.70461 -0.163527,3.43407 -0.163527,6.62285 z" />
          <path
             id="path4297"
             style="font-style:normal;font-variant:normal;font-weight:normal;font-stretch:normal;font-size:81.76357269px;font-family:'Helvetica Neue';-inkscape-font-specification:'Helvetica Neue';letter-spacing:0px;fill:#464646;fill-opacity:1"
             d="m 9.6091046,207.62063 0,42.27177 6.9499034,0 0,-26.32788 q 0,-1.22645 0.572345,-3.02525 0.654109,-1.88056 1.962326,-3.59759 1.389981,-1.71704 3.515834,-2.94349 2.207616,-1.22646 5.232868,-1.22646 2.371144,0 3.842888,0.73588 1.553508,0.6541 2.452907,1.96232 0.8994,1.22645 1.226454,2.94349 0.408818,1.71703 0.408818,3.76112 l 0,27.71786 6.949904,0 0,-26.32788 q 0,-4.90581 2.943488,-7.8493 2.943489,-2.94349 8.094594,-2.94349 2.534671,0 4.088179,0.73588 1.635271,0.73587 2.53467,2.04408 0.8994,1.22646 1.226454,2.94349 0.327054,1.71704 0.327054,3.67936 l 0,27.71786 6.949904,0 0,-30.9884 q 0,-3.27054 -1.062927,-5.55992 -0.981163,-2.37115 -2.861725,-3.84289 -1.798798,-1.47174 -4.415233,-2.12585 -2.53467,-0.73587 -5.72345,-0.73587 -4.169942,0 -7.685776,1.88056 -3.43407,1.88056 -5.559922,5.31463 -1.308218,-3.92465 -4.496997,-5.55992 -3.188779,-1.63527 -7.113431,-1.63527 -8.912229,0 -13.654516,7.19519 l -0.163528,0 0,-6.21403 -6.5410854,0 z" />
          <path
             id="path4299"
             style="font-style:normal;font-variant:normal;font-weight:normal;font-stretch:normal;font-size:81.76357269px;font-family:'Helvetica Neue';-inkscape-font-specification:'Helvetica Neue';letter-spacing:0px;fill:#464646;fill-opacity:1"
             d="m 79.395573,207.62063 0,42.27177 6.949904,0 0,-26.32788 q 0,-1.22645 0.572345,-3.02525 0.654108,-1.88056 1.962326,-3.59759 1.38998,-1.71704 3.515833,-2.94349 2.207617,-1.22646 5.232869,-1.22646 2.371143,0 3.84289,0.73588 1.55351,0.6541 2.4529,1.96232 0.8994,1.22645 1.22646,2.94349 0.40882,1.71703 0.40882,3.76112 l 0,27.71786 6.9499,0 0,-26.32788 q 0,-4.90581 2.94349,-7.8493 2.94349,-2.94349 8.09459,-2.94349 2.53467,0 4.08818,0.73588 1.63527,0.73587 2.53467,2.04408 0.8994,1.22646 1.22646,2.94349 0.32705,1.71704 0.32705,3.67936 l 0,27.71786 6.9499,0 0,-30.9884 q 0,-3.27054 -1.06292,-5.55992 -0.98117,-2.37115 -2.86173,-3.84289 -1.7988,-1.47174 -4.41523,-2.12585 -2.53467,-0.73587 -5.72345,-0.73587 -4.16994,0 -7.68578,1.88056 -3.43407,1.88056 -5.55992,5.31463 -1.30822,-3.92465 -4.497,-5.55992 -3.18878,-1.63527 -7.113427,-1.63527 -8.91223,0 -13.654517,7.19519 l -0.163527,0 0,-6.21403 -6.541086,0 z" />
        </g>
      </g>
      <g
         id="g4184"
         transform="translate(0,60)">
        <path
           style="fill:none;fill-rule:evenodd;stroke:#464646;stroke-width:6.78179026;stroke-linecap:butt;stroke-linejoin:miter;stroke-miterlimit:4;stroke-dasharray:none;stroke-opacity:1"
           d="m 458.90034,785.19622 1004.99996,0"
           id="path4175" />
        <g
           id="text4177"
           style="font-style:normal;font-weight:normal;font-size:43.60723877px;line-height:125%;font-family:sans-serif;letter-spacing:0px;word-spacing:0px;fill:#000000;fill-opacity:1;stroke:none;stroke-width:1px;stroke-linecap:butt;stroke-linejoin:miter;stroke-opacity:1">
          <path
             id="path4302"
             style="font-style:normal;font-variant:normal;font-weight:normal;font-stretch:normal;font-size:81.76357269px;font-family:'Helvetica Neue';-inkscape-font-specification:'Helvetica Neue';letter-spacing:0px;fill:#464646;fill-opacity:1"
             d="m 817.43828,885.81592 0,-57.97038 -5.31464,0 q -0.57234,3.27055 -2.12585,5.3964 -1.55351,2.12585 -3.84289,3.35231 -2.20761,1.22645 -4.98757,1.71703 -2.77997,0.40882 -5.72345,0.40882 l 0,5.55992 15.04449,0 0,41.5359 6.94991,0 z" />
          <path
             id="path4304"
             style="font-style:normal;font-variant:normal;font-weight:normal;font-stretch:normal;font-size:81.76357269px;font-family:'Helvetica Neue';-inkscape-font-specification:'Helvetica Neue';letter-spacing:0px;fill:#464646;fill-opacity:1"
             d="m 844.63616,857.28043 q 0,-2.12585 0,-4.66052 0.0818,-2.61644 0.40882,-5.15111 0.40882,-2.61643 1.06293,-5.06934 0.73587,-2.45291 2.04409,-4.2517 1.38998,-1.88057 3.43407,-3.02526 2.04409,-1.14469 4.98758,-1.14469 2.94348,0 4.98757,1.14469 2.04409,1.14469 3.35231,3.02526 1.38998,1.79879 2.04409,4.2517 0.73587,2.45291 1.06293,5.06934 0.40881,2.53467 0.40881,5.15111 0.0818,2.53467 0.0818,4.66052 0,3.27054 -0.24529,7.35872 -0.16353,4.00642 -1.30822,7.60401 -1.06293,3.51584 -3.51583,5.96875 -2.45291,2.4529 -6.86814,2.4529 -4.41524,0 -6.86814,-2.4529 -2.45291,-2.45291 -3.5976,-5.96875 -1.06293,-3.59759 -1.30822,-7.60401 -0.16353,-4.08818 -0.16353,-7.35872 z m -7.35872,0.0818 q 0,3.18878 0.16353,6.62285 0.16353,3.43407 0.81764,6.70462 0.6541,3.27054 1.88056,6.21403 1.22645,2.86172 3.3523,5.06934 2.12586,2.20762 5.31464,3.51583 3.27054,1.22646 7.76754,1.22646 4.57876,0 7.76753,-1.22646 3.18878,-1.30821 5.31464,-3.51583 2.12585,-2.20762 3.3523,-5.06934 1.22646,-2.94349 1.88057,-6.21403 0.6541,-3.27055 0.81763,-6.70462 0.16353,-3.43407 0.16353,-6.62285 0,-3.18877 -0.16353,-6.62284 -0.16353,-3.43407 -0.81763,-6.70462 -0.65411,-3.27054 -1.88057,-6.21403 -1.22645,-2.94349 -3.3523,-5.1511 -2.12586,-2.20762 -5.3964,-3.51584 -3.18878,-1.30822 -7.68577,-1.30822 -4.497,0 -7.76754,1.30822 -3.18878,1.30822 -5.31464,3.51584 -2.12585,2.20761 -3.3523,5.1511 -1.22646,2.94349 -1.88056,6.21403 -0.65411,3.27055 -0.81764,6.70462 -0.16353,3.43407 -0.16353,6.62284 z" />
          <path
             id="path4306"
             style="font-style:normal;font-variant:normal;font-weight:normal;font-stretch:normal;font-size:81.76357269px;font-family:'Helvetica Neue';-inkscape-font-specification:'Helvetica Neue';letter-spacing:0px;fill:#464646;fill-opacity:1"
             d="m 890.14909,857.28043 q 0,-2.12585 0,-4.66052 0.0818,-2.61644 0.40882,-5.15111 0.40882,-2.61643 1.06293,-5.06934 0.73587,-2.45291 2.04409,-4.2517 1.38998,-1.88057 3.43407,-3.02526 2.04408,-1.14469 4.98757,-1.14469 2.94349,0 4.98758,1.14469 2.04409,1.14469 3.35231,3.02526 1.38998,1.79879 2.04409,4.2517 0.73587,2.45291 1.06292,5.06934 0.40882,2.53467 0.40882,5.15111 0.0818,2.53467 0.0818,4.66052 0,3.27054 -0.2453,7.35872 -0.16352,4.00642 -1.30821,7.60401 -1.06293,3.51584 -3.51584,5.96875 -2.4529,2.4529 -6.86814,2.4529 -4.41523,0 -6.86814,-2.4529 -2.4529,-2.45291 -3.59759,-5.96875 -1.06293,-3.59759 -1.30822,-7.60401 -0.16353,-4.08818 -0.16353,-7.35872 z m -7.35872,0.0818 q 0,3.18878 0.16353,6.62285 0.16352,3.43407 0.81763,6.70462 0.65411,3.27054 1.88057,6.21403 1.22645,2.86172 3.3523,5.06934 2.12585,2.20762 5.31463,3.51583 3.27055,1.22646 7.76754,1.22646 4.57876,0 7.76754,-1.22646 3.18878,-1.30821 5.31464,-3.51583 2.12585,-2.20762 3.3523,-5.06934 1.22646,-2.94349 1.88056,-6.21403 0.65411,-3.27055 0.81764,-6.70462 0.16353,-3.43407 0.16353,-6.62285 0,-3.18877 -0.16353,-6.62284 -0.16353,-3.43407 -0.81764,-6.70462 -0.6541,-3.27054 -1.88056,-6.21403 -1.22645,-2.94349 -3.3523,-5.1511 -2.12586,-2.20762 -5.3964,-3.51584 -3.18878,-1.30822 -7.68578,-1.30822 -4.49699,0 -7.76754,1.30822 -3.18878,1.30822 -5.31463,3.51584 -2.12585,2.20761 -3.3523,5.1511 -1.22646,2.94349 -1.88057,6.21403 -0.65411,3.27055 -0.81763,6.70462 -0.16353,3.43407 -0.16353,6.62284 z" />
          <path
             id="path4308"
             style="font-style:normal;font-variant:normal;font-weight:normal;font-stretch:normal;font-size:81.76357269px;font-family:'Helvetica Neue';-inkscape-font-specification:'Helvetica Neue';letter-spacing:0px;fill:#464646;fill-opacity:1"
             d="m 963.29811,834.95898 0,-6.13227 -28.61725,0 -5.39639,30.08899 5.96874,0.32706 q 2.04409,-2.45291 4.66052,-3.92465 2.6982,-1.55351 6.13227,-1.55351 2.94349,0 5.31463,0.98116 2.45291,0.98116 4.16994,2.77996 1.71704,1.71704 2.61644,4.16994 0.98116,2.37115 0.98116,5.23287 0,3.43407 -0.98116,6.05051 -0.98117,2.53467 -2.6982,4.2517 -1.63527,1.71704 -3.92465,2.61644 -2.20762,0.81763 -4.66053,0.81763 -2.61643,0 -4.82405,-0.73587 -2.12585,-0.81763 -3.76112,-2.20762 -1.55351,-1.47174 -2.53467,-3.3523 -0.8994,-1.96233 -1.06293,-4.16994 l -6.9499,0 q 0.0818,3.92465 1.55351,7.03166 1.47174,3.10702 4.00641,5.23287 2.53467,2.04409 5.80521,3.18878 3.35231,1.06293 7.11343,1.06293 5.06935,0 8.83047,-1.55351 3.84289,-1.63527 6.37756,-4.33347 2.53467,-2.6982 3.76112,-6.13227 1.30822,-3.51583 1.30822,-7.19519 0,-4.98758 -1.47174,-8.66694 -1.47175,-3.76113 -4.00642,-6.21403 -2.53467,-2.53467 -5.96874,-3.76113 -3.43407,-1.22645 -7.27696,-1.22645 -2.94349,0 -5.96874,1.06293 -2.94349,0.98116 -4.82405,3.10701 l -0.16353,-0.16353 3.10702,-16.67976 23.38438,0 z" />
          <path
             id="path4310"
             style="font-style:normal;font-variant:normal;font-weight:normal;font-stretch:normal;font-size:81.76357269px;font-family:'Helvetica Neue';-inkscape-font-specification:'Helvetica Neue';letter-spacing:0px;fill:#464646;fill-opacity:1"
             d="m 998.29165,843.54415 0,42.27177 6.94985,0 0,-26.32787 q 0,-1.22646 0.5724,-3.02525 0.6541,-1.88057 1.9623,-3.5976 1.39,-1.71704 3.5159,-2.94349 2.2076,-1.22645 5.2328,-1.22645 2.3712,0 3.8429,0.73587 1.5535,0.65411 2.4529,1.96232 0.8994,1.22646 1.2265,2.94349 0.4088,1.71704 0.4088,3.76113 l 0,27.71785 6.9499,0 0,-26.32787 q 0,-4.90582 2.9435,-7.84931 2.9435,-2.94348 8.0946,-2.94348 2.5346,0 4.0882,0.73587 1.6352,0.73587 2.5346,2.04409 0.8994,1.22645 1.2265,2.94349 0.327,1.71703 0.327,3.67936 l 0,27.71785 6.9499,0 0,-30.9884 q 0,-3.27054 -1.0629,-5.55992 -0.9812,-2.37114 -2.8617,-3.84289 -1.7988,-1.47174 -4.4152,-2.12585 -2.5347,-0.73587 -5.7235,-0.73587 -4.1699,0 -7.6858,1.88056 -3.434,1.88056 -5.5599,5.31463 -1.3082,-3.92465 -4.497,-5.55992 -3.1888,-1.63527 -7.1134,-1.63527 -8.9123,0 -13.6545,7.19519 l -0.1636,0 0,-6.21403 -6.54105,0 z" />
          <path
             id="path4312"
             style="font-style:normal;font-variant:normal;font-weight:normal;font-stretch:normal;font-size:81.76357269px;font-family:'Helvetica Neue';-inkscape-font-specification:'Helvetica Neue';letter-spacing:0px;fill:#464646;fill-opacity:1"
             d="m 1068.0781,843.54415 0,42.27177 6.9499,0 0,-26.32787 q 0,-1.22646 0.5724,-3.02525 0.6541,-1.88057 1.9623,-3.5976 1.39,-1.71704 3.5158,-2.94349 2.2076,-1.22645 5.2329,-1.22645 2.3711,0 3.8429,0.73587 1.5535,0.65411 2.4529,1.96232 0.8994,1.22646 1.2264,2.94349 0.4089,1.71704 0.4089,3.76113 l 0,27.71785 6.9499,0 0,-26.32787 q 0,-4.90582 2.9434,-7.84931 2.9435,-2.94348 8.0946,-2.94348 2.5347,0 4.0882,0.73587 1.6353,0.73587 2.5347,2.04409 0.8994,1.22645 1.2264,2.94349 0.3271,1.71703 0.3271,3.67936 l 0,27.71785 6.9499,0 0,-30.9884 q 0,-3.27054 -1.0629,-5.55992 -0.9812,-2.37114 -2.8617,-3.84289 -1.7988,-1.47174 -4.4153,-2.12585 -2.5347,-0.73587 -5.7234,-0.73587 -4.17,0 -7.6858,1.88056 -3.4341,1.88056 -5.5599,5.31463 -1.3082,-3.92465 -4.497,-5.55992 -3.1888,-1.63527 -7.1135,-1.63527 -8.9122,0 -13.6545,7.19519 l -0.1635,0 0,-6.21403 -6.5411,0 z" />
        </g>
      </g>
    </g>
  </g>
</svg>
